<svg xmlns="http://www.w3.org/2000/svg" width="28.96" height="19.315" viewBox="0 0 28.96 19.315">
  <path id="Icon_ionic-ios-arrow-round-forward" data-name="Icon ionic-ios-arrow-round-forward" d="M26.343,11.621a1.314,1.314,0,0,0-.01,1.851L32.449,19.6H9.173a1.308,1.308,0,0,0,0,2.615H32.439L26.323,28.34a1.324,1.324,0,0,0,.01,1.851,1.3,1.3,0,0,0,1.841-.01l8.289-8.349h0a1.469,1.469,0,0,0,.272-.412,1.248,1.248,0,0,0,.1-.5A1.311,1.311,0,0,0,36.463,20l-8.289-8.349A1.281,1.281,0,0,0,26.343,11.621Z" transform="translate(36.835 30.566) rotate(180)" fill="#73d4f8"/>
</svg>
