<svg xmlns="http://www.w3.org/2000/svg" width="2383.87" height="1323.706" viewBox="0 0 2383.87 1323.706">
  <g id="Group_4008" data-name="Group 4008" transform="translate(0.6 0)">
    <path id="Union_12" data-name="Union 12" d="M0,3.432V1063.407c43.167,2.2,90.925,3.432,144.53,3.432,489.824,0,489.824-102.965,979.648-102.965,436.218,0,483.961,81.7,835.12,99.533V3.432c-351.159,17.832-398.9,99.533-835.12,99.533C634.354,102.965,634.354,0,144.53,0,90.925,0,43.167,1.234,0,3.432Z" transform="translate(2158.268 1155.967) rotate(180)" fill="#e6e6e6" opacity="0.238"/>
    <path id="Union_13" data-name="Union 13" d="M0,3.583V1110.2c45.1,2.295,95,3.583,151,3.583,511.764,0,511.764-107.5,1023.528-107.5,455.756,0,505.639,85.3,872.525,103.912V3.583C1680.17,22.2,1630.287,107.5,1174.531,107.5,662.767,107.5,662.767,0,151,0,95,0,45.1,1.288,0,3.583Z" transform="matrix(-0.996, 0.087, -0.087, -0.996, 2246.789, 1109.542)" fill="#e6e6e6" opacity="0.196"/>
    <g id="Group_3946" data-name="Group 3946" transform="translate(0 821.932)" opacity="0.504">
      <path id="Path_630" data-name="Path 630" d="M0,40.93C666.868-113.693,737.585,771.6,2206.166,0" transform="translate(0 0)" fill="none" stroke="#d1d1d1" stroke-linecap="round" stroke-linejoin="round" stroke-width="1"/>
      <path id="Path_631" data-name="Path 631" d="M0,37.21C688.531-141.908,776.809,747.046,2210.192,0" transform="translate(1.684 16.18)" fill="none" stroke="#d1d1d1" stroke-linecap="round" stroke-linejoin="round" stroke-width="0.976"/>
      <path id="Path_632" data-name="Path 632" d="M0,33.489C710.2-170.124,816.036,722.492,2214.218,0" transform="translate(3.365 32.36)" fill="none" stroke="#d1d1d1" stroke-linecap="round" stroke-linejoin="round" stroke-width="0.952"/>
      <path id="Path_633" data-name="Path 633" d="M0,38.25C731.862-189.859,855.262,706.419,2218.246,8.48" transform="translate(5.047 40.06)" fill="none" stroke="#d1d1d1" stroke-linecap="round" stroke-linejoin="round" stroke-width="0.927"/>
      <path id="Path_634" data-name="Path 634" d="M0,46.071c753.525-252.6,894.488,647.337,2222.27-26.05" transform="translate(6.731 44.698)" fill="none" stroke="#d1d1d1" stroke-linecap="round" stroke-linejoin="round" stroke-width="0.903"/>
      <path id="Path_635" data-name="Path 635" d="M0,54.456c775.193-277.1,933.715,626.5,2226.3-22.331" transform="translate(8.412 48.773)" fill="none" stroke="#d1d1d1" stroke-linecap="round" stroke-linejoin="round" stroke-width="0.879"/>
      <path id="Path_636" data-name="Path 636" d="M0,63.368c796.858-301.593,972.941,605.671,2230.325-18.61" transform="translate(10.094 52.321)" fill="none" stroke="#d1d1d1" stroke-linecap="round" stroke-linejoin="round" stroke-width="0.855"/>
      <path id="Path_637" data-name="Path 637" d="M0,72.775c818.521-326.09,1012.167,584.838,2234.351-14.89" transform="translate(11.778 55.374)" fill="none" stroke="#d1d1d1" stroke-linecap="round" stroke-linejoin="round" stroke-width="0.831"/>
      <path id="Path_638" data-name="Path 638" d="M0,82.643c840.187-350.585,1051.395,564,2238.377-11.171" transform="translate(13.459 57.967)" fill="none" stroke="#d1d1d1" stroke-linecap="round" stroke-linejoin="round" stroke-width="0.806"/>
      <path id="Path_639" data-name="Path 639" d="M0,92.942c861.855-375.08,1090.62,543.172,2242.406-7.451" transform="translate(15.141 60.128)" fill="none" stroke="#d1d1d1" stroke-linecap="round" stroke-linejoin="round" stroke-width="0.782"/>
      <path id="Path_640" data-name="Path 640" d="M0,103.643c883.518-399.576,1129.846,522.338,2246.43-3.731" transform="translate(16.825 61.886)" fill="none" stroke="#d1d1d1" stroke-linecap="round" stroke-linejoin="round" stroke-width="0.758"/>
      <path id="Path_641" data-name="Path 641" d="M0,114.719c905.183-424.07,1169.071,501.506,2250.458-.011" transform="translate(18.506 63.27)" fill="none" stroke="#d1d1d1" stroke-linecap="round" stroke-linejoin="round" stroke-width="0.734"/>
      <path id="Path_642" data-name="Path 642" d="M0,126.146c926.849-448.566,1208.3,480.673,2254.484,3.709" transform="translate(20.188 64.303)" fill="none" stroke="#d1d1d1" stroke-linecap="round" stroke-linejoin="round" stroke-width="0.71"/>
      <path id="Path_643" data-name="Path 643" d="M0,137.9c948.512-473.06,1247.525,459.84,2258.51,7.429" transform="translate(21.872 65.009)" fill="none" stroke="#d1d1d1" stroke-linecap="round" stroke-linejoin="round" stroke-width="0.685"/>
      <path id="Path_644" data-name="Path 644" d="M0,149.955C970.179-347.6,1286.75,588.962,2262.537,161.1" transform="translate(23.553 65.414)" fill="none" stroke="#d1d1d1" stroke-linecap="round" stroke-linejoin="round" stroke-width="0.661"/>
      <path id="Path_645" data-name="Path 645" d="M0,162.294c991.845-522.051,1325.978,418.175,2266.565,14.869" transform="translate(25.235 65.534)" fill="none" stroke="#d1d1d1" stroke-linecap="round" stroke-linejoin="round" stroke-width="0.637"/>
      <path id="Path_646" data-name="Path 646" d="M0,174.9c1013.508-546.546,1365.2,397.341,2270.589,18.588" transform="translate(26.919 65.392)" fill="none" stroke="#d1d1d1" stroke-linecap="round" stroke-linejoin="round" stroke-width="0.613"/>
      <path id="Path_647" data-name="Path 647" d="M0,187.745C1035.173-383.3,1404.429,564.252,2274.617,210.053" transform="translate(28.6 65.005)" fill="none" stroke="#d1d1d1" stroke-linecap="round" stroke-linejoin="round" stroke-width="0.589"/>
      <path id="Path_648" data-name="Path 648" d="M0,200.82c1056.841-595.537,1443.657,355.674,2278.643,26.028" transform="translate(30.282 64.389)" fill="none" stroke="#d1d1d1" stroke-linecap="round" stroke-linejoin="round" stroke-width="0.565"/>
      <path id="Path_649" data-name="Path 649" d="M0,214.107c1078.5-620.032,1482.88,334.841,2282.669,29.748" transform="translate(31.966 63.562)" fill="none" stroke="#d1d1d1" stroke-linecap="round" stroke-linejoin="round" stroke-width="0.54"/>
      <path id="Path_650" data-name="Path 650" d="M0,227.592C1100.17-416.936,1522.108,541.6,2286.7,261.06" transform="translate(33.647 62.537)" fill="none" stroke="#d1d1d1" stroke-linecap="round" stroke-linejoin="round" stroke-width="0.516"/>
      <path id="Path_651" data-name="Path 651" d="M0,241.26c1121.835-669.023,1561.336,293.175,2290.724,37.187" transform="translate(35.329 61.328)" fill="none" stroke="#d1d1d1" stroke-linecap="round" stroke-linejoin="round" stroke-width="0.492"/>
      <path id="Path_652" data-name="Path 652" d="M0,255.1c1143.5-693.517,1600.56,272.343,2294.748,40.908" transform="translate(37.013 59.95)" fill="none" stroke="#d1d1d1" stroke-linecap="round" stroke-linejoin="round" stroke-width="0.468"/>
      <path id="Path_653" data-name="Path 653" d="M0,269.1c1165.166-718.014,1639.787,251.509,2298.776,44.628" transform="translate(38.694 58.411)" fill="none" stroke="#d1d1d1" stroke-linecap="round" stroke-linejoin="round" stroke-width="0.444"/>
      <path id="Path_654" data-name="Path 654" d="M0,283.243C1186.831-459.265,1679.013,513.92,2302.8,331.591" transform="translate(40.376 56.725)" fill="none" stroke="#d1d1d1" stroke-linecap="round" stroke-linejoin="round" stroke-width="0.419"/>
      <path id="Path_655" data-name="Path 655" d="M0,297.527c1208.494-767,1718.239,209.844,2306.829,52.067" transform="translate(42.06 54.901)" fill="none" stroke="#d1d1d1" stroke-linecap="round" stroke-linejoin="round" stroke-width="0.395"/>
      <path id="Path_656" data-name="Path 656" d="M0,311.939c1230.16-791.5,1757.466,189.011,2310.855,55.788" transform="translate(43.741 52.948)" fill="none" stroke="#d1d1d1" stroke-linecap="round" stroke-linejoin="round" stroke-width="0.371"/>
      <path id="Path_657" data-name="Path 657" d="M0,326.472C1251.827-489.522,1796.692,494.65,2314.883,385.98" transform="translate(45.423 50.876)" fill="none" stroke="#d1d1d1" stroke-linecap="round" stroke-linejoin="round" stroke-width="0.347"/>
      <path id="Path_658" data-name="Path 658" d="M0,341.117c1273.491-840.49,1835.917,147.345,2318.907,63.227" transform="translate(47.107 48.692)" fill="none" stroke="#d1d1d1" stroke-linecap="round" stroke-linejoin="round" stroke-width="0.323"/>
      <path id="Path_659" data-name="Path 659" d="M0,355.865c1295.156-864.984,1875.143,126.512,2322.936,66.947" transform="translate(48.788 46.403)" fill="none" stroke="#d1d1d1" stroke-linecap="round" stroke-linejoin="round" stroke-width="0.298"/>
      <path id="Path_660" data-name="Path 660" d="M0,370.711c1316.822-889.48,1914.371,105.678,2326.961,70.666" transform="translate(50.47 44.017)" fill="none" stroke="#d1d1d1" stroke-linecap="round" stroke-linejoin="round" stroke-width="0.274"/>
      <path id="Path_661" data-name="Path 661" d="M0,385.648c1338.485-913.975,1953.6,84.846,2330.988,74.387" transform="translate(52.154 41.54)" fill="none" stroke="#d1d1d1" stroke-linecap="round" stroke-linejoin="round" stroke-width="0.25"/>
    </g>
  </g>
</svg>
