<svg xmlns="http://www.w3.org/2000/svg" xmlns:xlink="http://www.w3.org/1999/xlink" width="83.375" height="83.372" viewBox="0 0 83.375 83.372">
  <defs>
    <filter id="Path_216" x="0" y="0" width="83.375" height="83.372" filterUnits="userSpaceOnUse">
      <feOffset dx="2" dy="2" input="SourceAlpha"/>
      <feGaussianBlur stdDeviation="2" result="blur"/>
      <feFlood flood-opacity="0.161"/>
      <feComposite operator="in" in2="blur"/>
      <feComposite in="SourceGraphic"/>
    </filter>
  </defs>
  <g id="Component_1_2" data-name="Component 1 – 2" transform="translate(5.021 5)">
    <g id="speech-bubble" transform="translate(0)">
      <g transform="matrix(1, 0, 0, 1, -5.02, -5)" filter="url(#Path_216)">
        <path id="Path_216-2" data-name="Path 216" d="M59.191,10.164A34.675,34.675,0,0,0,4.61,51.961L.094,66.588a2.033,2.033,0,0,0,2.578,2.529l14.184-4.686A34.675,34.675,0,0,0,59.191,10.164Z" transform="translate(5.02 5)" fill="#a50a2e" stroke="#fff" stroke-width="2"/>
      </g>
      <rect id="Rectangle_155" data-name="Rectangle 155" width="24" height="4" rx="2" transform="translate(27.698 23.698)" fill="#fff"/>
      <path id="Path_217" data-name="Path 217" d="M-4,0H22a2,2,0,0,1,0,4H-4A2,2,0,0,1-6,2,2,2,0,0,1-4,0Z" transform="translate(26.669 32.27)" fill="#fff"/>
      <rect id="Rectangle_156" data-name="Rectangle 156" width="24" height="4" rx="2" transform="translate(19.698 40.698)" fill="#fff"/>
      <circle id="Ellipse_14" data-name="Ellipse 14" cx="2" cy="2" r="2" transform="translate(17.698 23.698)" fill="#fff"/>
      <circle id="Ellipse_15" data-name="Ellipse 15" cx="2" cy="2" r="2" transform="translate(49.698 40.698)" fill="#fff"/>
    </g>
  </g>
</svg>
