<svg xmlns="http://www.w3.org/2000/svg" width="34.293" height="33.82" viewBox="0 0 34.293 33.82">
    <path fill="none" stroke="#fff" stroke-width="2px" d="M30.962 13.84L17.98.858a2.929 2.929 0 0 0-4.143 0L.864 13.831l-.013.013A2.928 2.928 0 0 0 2.8 18.835h.607v9.552a3.432 3.432 0 0 0 3.429 3.433h5.078a.932.932 0 0 0 .932-.932V23.4a1.566 1.566 0 0 1 1.564-1.564h3a1.566 1.566 0 0 1 1.56 1.564v7.489a.932.932 0 0 0 .932.932h5.078a3.432 3.432 0 0 0 3.429-3.428v-9.554h.48a2.93 2.93 0 0 0 2.073-5zm0 0" transform="translate(1.238 1.001)"/>
</svg>
