<svg id="construction-and-tools" xmlns="http://www.w3.org/2000/svg" width="34.733" height="34.733" viewBox="0 0 34.733 34.733">
  <path id="Path_355" data-name="Path 355" d="M353.093,448.091a16.957,16.957,0,0,0-3.207-1.936l-4.066-1.877a10.969,10.969,0,0,1-1.766,3.145,9.819,9.819,0,0,1-1.433,1.449h11.49Zm0,0" transform="translate(-319.378 -414.139)" fill="#73d4f8"/>
  <path id="Path_356" data-name="Path 356" d="M10.058,447.423a10.968,10.968,0,0,1-1.766-3.145l-4.066,1.877a16.957,16.957,0,0,0-3.207,1.936L0,448.872H11.49A9.819,9.819,0,0,1,10.058,447.423Zm0,0" transform="translate(0 -414.139)" fill="#73d4f8"/>
  <path id="Path_357" data-name="Path 357" d="M163.48,414.814v-.232a10.286,10.286,0,0,1-13.248,0v.232a1.021,1.021,0,0,1-.591.924s1.57,5.453,7.215,5.453,7.215-5.453,7.215-5.453A1.02,1.02,0,0,1,163.48,414.814Zm0,0" transform="translate(-139.489 -386.458)" fill="#73d4f8"/>
  <path id="Path_358" data-name="Path 358" d="M142.276,256.058a8.287,8.287,0,0,0,8.276-8.28v-3.665H134v3.665A8.287,8.287,0,0,0,142.276,256.058Zm0,0" transform="translate(-124.91 -227.553)" fill="#73d4f8"/>
  <path id="Path_359" data-name="Path 359" d="M88.373,40.876h20.845a1.018,1.018,0,0,0,0-2.036h-.855V37.787a9.57,9.57,0,0,0-4.181-7.907v4.3a1.018,1.018,0,1,1-2.035,0V29.233a1.012,1.012,0,0,1,.075-.383,9.493,9.493,0,0,0-2.409-.581v7.155a1.018,1.018,0,1,1-2.035,0V28.27a9.486,9.486,0,0,0-2.409.581,1.018,1.018,0,0,1,.075.383v4.943a1.018,1.018,0,1,1-2.035,0v-4.3a9.57,9.57,0,0,0-4.182,7.907V38.84h-.855a1.018,1.018,0,0,0,0,2.036Zm0,0" transform="translate(-81.429 -26.352)" fill="#73d4f8"/>
  <path id="Path_360" data-name="Path 360" d="M308.472,28.487a1.017,1.017,0,0,0-1.96-.383,9.541,9.541,0,0,1,1.96,1.03Zm0,0" transform="translate(-285.719 -25.605)" fill="#73d4f8"/>
  <path id="Path_361" data-name="Path 361" d="M177.623,27.469a1.018,1.018,0,0,0-1.018,1.018v.647a9.541,9.541,0,0,1,1.96-1.03A1.017,1.017,0,0,0,177.623,27.469Zm0,0" transform="translate(-164.625 -25.605)" fill="#73d4f8"/>
  <path id="Path_362" data-name="Path 362" d="M243.035,1.918v-.9a1.018,1.018,0,1,0-2.035,0v.9a9.558,9.558,0,0,1,2.035,0Zm0,0" transform="translate(-224.651 0)" fill="#73d4f8"/>
</svg>
