<svg xmlns="http://www.w3.org/2000/svg" width="38.556" height="30.845" viewBox="0 0 38.556 30.845">
  <path id="Icon_awesome-business-time" data-name="Icon awesome-business-time" d="M29.881,13.495a8.675,8.675,0,1,0,8.675,8.675A8.67,8.67,0,0,0,29.881,13.495Zm3.856,9.054a.587.587,0,0,1-.585.585H29.5a.587.587,0,0,1-.585-.585V17.936a.587.587,0,0,1,.585-.585h.757a.587.587,0,0,1,.585.585v3.27h2.307a.587.587,0,0,1,.585.585ZM29.881,11.567c.325,0,.646.02.964.049V8.675a2.965,2.965,0,0,0-2.892-2.892H23.134V2.892A2.965,2.965,0,0,0,20.242,0H10.6A2.965,2.965,0,0,0,7.711,2.892V5.783H2.892A2.965,2.965,0,0,0,0,8.675v4.819H23.8A10.538,10.538,0,0,1,29.881,11.567Zm-10.6-5.783H11.567V3.856h7.711Zm.411,13.495H12.531a.964.964,0,0,1-.964-.964V15.422H0V24.1a2.965,2.965,0,0,0,2.892,2.892H20.449a10.461,10.461,0,0,1-.76-7.711Z" fill="#b294fd"/>
</svg>
