<svg xmlns="http://www.w3.org/2000/svg" width="19.623" height="19.281" viewBox="0 0 19.623 19.281">
  <path id="path" d="M55.208,1159.643l1.955,1.49a.552.552,0,0,1,.093.652l-1.862,3.259a.414.414,0,0,1-.559.186l-2.328-.931a7.608,7.608,0,0,1-1.583.931l-.372,2.421c-.093.279-.186.372-.466.372H46.362a.475.475,0,0,1-.466-.372l-.372-2.421a5.456,5.456,0,0,1-1.583-.931l-2.328.931a.415.415,0,0,1-.559-.186l-1.862-3.259a.45.45,0,0,1,.093-.652l1.955-1.49v-1.862l-1.955-1.49a.551.551,0,0,1-.093-.652l1.862-3.259a.414.414,0,0,1,.559-.186l2.328.931a7.591,7.591,0,0,1,1.583-.931l.372-2.421c.093-.28.186-.373.466-.373h3.725a.475.475,0,0,1,.466.373l.372,2.421a5.453,5.453,0,0,1,1.583.931l2.328-.931a.415.415,0,0,1,.559.186l1.862,3.259a.449.449,0,0,1-.093.652l-1.955,1.49v1.862Zm-9.218,1.4a3.375,3.375,0,1,0-.931-2.328A3.089,3.089,0,0,0,45.99,1161.04Z" transform="translate(1168.523 -38.584) rotate(90)" fill="none" stroke="#fff" stroke-width="1"/>
</svg>
