<svg xmlns="http://www.w3.org/2000/svg" width="3009.955" height="905.175" viewBox="0 0 3009.955 905.175">
  <g id="Group_4023" data-name="Group 4023" transform="translate(3.439 0.559)">
    <path id="Path_8148" data-name="Path 8148" d="M0,607.162,522.634,44.086s37.33-59.107,108.881-40.442,665.738,183.544,665.738,183.544V607.162Z" transform="translate(139.85 148.369)" fill="#ee9c47" opacity="0.114"/>
    <path id="Path_8149" data-name="Path 8149" d="M0,607.162,522.634,44.086s37.33-59.107,108.881-40.442,665.738,183.544,665.738,183.544V607.162Z" transform="translate(0 227.369)" fill="none" stroke="#a50a2e" stroke-width="3" opacity="0.598"/>
    <path id="Path_8150" data-name="Path 8150" d="M0,607.162,522.634,44.086s37.33-59.107,108.881-40.442,665.738,183.544,665.738,183.544V607.162Z" transform="translate(1484.512 264.922)" fill="none" stroke="#ee9c47" stroke-width="3" opacity="0.667"/>
    <path id="Path_8151" data-name="Path 8151" d="M0,607.162,522.634,44.086s37.33-59.107,108.881-40.442,665.738,183.544,665.738,183.544V607.162Z" transform="translate(1708.941 215.625)" fill="#b294fd" opacity="0.114"/>
    <path id="bg-25" d="M4.7,495.9,370.776,140.7S491.84,30.021,569.666,12,736.848-11.163,981.857,50.612,2192.488,354.338,2192.488,354.338l-105.31,305.741L0,754.072Z" transform="matrix(0.998, 0.07, -0.07, 0.998, 509.024, -0.558)" fill="#ee9c47"/>
    <path id="bigstock-drone-operated-by-construction-210455512" d="M4.552,537.44,358.823,152.484S475.984,32.535,551.3,13.008,713.094-12.1,950.2,54.851s1171.6,329.164,1171.6,329.164V817.229H0Z" transform="translate(458.106 76.255)" fill="#a50a2e"/>
    <path id="Path_8152" data-name="Path 8152" d="M0,493.874,418.74,31.763s26.9-42.586,78.447-29.138,915.237,332.3,915.237,332.3l-84.27,158.949Z" transform="translate(1594.092 399.659)" fill="#8e0928"/>
  </g>
</svg>
