<svg xmlns="http://www.w3.org/2000/svg" width="2125.73" height="993.05" viewBox="0 0 2125.73 993.05">
  <g id="Group_4029" data-name="Group 4029" transform="translate(2962.127 -2360.247)">
    <path id="Union_15" data-name="Union 15" d="M3.56,915.332.482,821.521H0V85.362H.789L3.56.888C50.24,0,101.861-.259,159.775.279c529.2,4.914,527.172,66.674,1056.37,71.587,471.284,4.376,528.446-43.345,908.183-50.519V85.362h.272V821.521h-.272v73.352c-379.737-7.174-436.9-54.9-908.183-50.519-529.2,4.914-527.172,66.674-1056.37,71.587q-30.408.282-58.561.279C66.327,916.219,33.9,915.907,3.56,915.332Z" transform="translate(-2962 2360.247)" fill="#e6e6e6" opacity="0.4"/>
    <path id="Union_14" data-name="Union 14" d="M3.56,829.532.482,744.514H0V77.361H.789L3.56.8C50.24,0,101.861-.235,159.775.252c529.2,4.453,527.172,60.424,1056.37,64.876,471.284,3.966,528.446-39.282,908.183-45.783V77.361h.272V744.514h-.272v66.476c-379.737-6.5-436.9-49.75-908.183-45.784-529.2,4.453-527.172,60.424-1056.37,64.876q-30.408.256-58.561.252C66.327,830.336,33.9,830.054,3.56,829.532Z" transform="translate(-2962 2403.82)" fill="#e6e6e6" opacity="0.55"/>
    <g id="Group_4028" data-name="Group 4028" transform="translate(-836.97 3353.175) rotate(-180)">
      <path id="Path_630" data-name="Path 630" d="M0,172.855C594.641,268.54,657.7-279.3,1967.222,198.184" transform="translate(0 112.255)" fill="none" stroke="#d1d1d1" stroke-linecap="round" stroke-linejoin="round" stroke-width="1"/>
      <path id="Path_631" data-name="Path 631" d="M0,164.912c613.958,110.844,692.674-439.265,1970.812,23.027" transform="translate(1.501 112.487)" fill="none" stroke="#d1d1d1" stroke-linecap="round" stroke-linejoin="round" stroke-width="0.976"/>
      <path id="Path_632" data-name="Path 632" d="M0,157.112c633.277,126,727.654-426.373,1974.4,20.724" transform="translate(3.001 112.578)" fill="none" stroke="#d1d1d1" stroke-linecap="round" stroke-linejoin="round" stroke-width="0.952"/>
      <path id="Path_633" data-name="Path 633" d="M0,149.462c652.6,141.16,762.631-413.482,1977.994,18.422" transform="translate(4.5 112.517)" fill="none" stroke="#d1d1d1" stroke-linecap="round" stroke-linejoin="round" stroke-width="0.927"/>
      <path id="Path_634" data-name="Path 634" d="M0,141.972c671.913,156.318,797.608-400.59,1981.582,16.12" transform="translate(6.002 112.297)" fill="none" stroke="#d1d1d1" stroke-linecap="round" stroke-linejoin="round" stroke-width="0.903"/>
      <path id="Path_635" data-name="Path 635" d="M0,134.652c691.234,171.476,832.587-387.7,1985.174,13.819" transform="translate(7.501 111.906)" fill="none" stroke="#d1d1d1" stroke-linecap="round" stroke-linejoin="round" stroke-width="0.879"/>
      <path id="Path_636" data-name="Path 636" d="M0,127.513C710.552,314.147,867.564-247.292,1988.764,139.03" transform="translate(9.001 111.334)" fill="none" stroke="#d1d1d1" stroke-linecap="round" stroke-linejoin="round" stroke-width="0.855"/>
      <path id="Path_637" data-name="Path 637" d="M0,120.566c729.87,201.793,902.541-361.914,1992.354,9.214" transform="translate(10.502 110.571)" fill="none" stroke="#d1d1d1" stroke-linecap="round" stroke-linejoin="round" stroke-width="0.831"/>
      <path id="Path_638" data-name="Path 638" d="M0,113.822C749.188,330.773,937.521-235.2,1995.944,120.735" transform="translate(12.002 109.604)" fill="none" stroke="#d1d1d1" stroke-linecap="round" stroke-linejoin="round" stroke-width="0.806"/>
      <path id="Path_639" data-name="Path 639" d="M0,107.293C768.509,339.4,972.5-228.836,1999.536,111.9" transform="translate(13.501 108.422)" fill="none" stroke="#d1d1d1" stroke-linecap="round" stroke-linejoin="round" stroke-width="0.782"/>
      <path id="Path_640" data-name="Path 640" d="M0,100.991C787.826,348.259,1007.475-222.246,2003.125,103.3" transform="translate(15.003 107.014)" fill="none" stroke="#d1d1d1" stroke-linecap="round" stroke-linejoin="round" stroke-width="0.758"/>
      <path id="Path_641" data-name="Path 641" d="M0,94.93c807.145,262.426,1042.452-310.346,2006.716.007" transform="translate(16.502 105.365)" fill="none" stroke="#d1d1d1" stroke-linecap="round" stroke-linejoin="round" stroke-width="0.734"/>
      <path id="Path_642" data-name="Path 642" d="M0,89.12c826.464,277.585,1077.431-297.453,2010.307-2.3" transform="translate(18.001 103.464)" fill="none" stroke="#d1d1d1" stroke-linecap="round" stroke-linejoin="round" stroke-width="0.71"/>
      <path id="Path_643" data-name="Path 643" d="M0,83.578c845.781,292.743,1112.408-284.562,2013.9-4.6" transform="translate(19.503 101.296)" fill="none" stroke="#d1d1d1" stroke-linecap="round" stroke-linejoin="round" stroke-width="0.685"/>
      <path id="Path_644" data-name="Path 644" d="M0,78.315c865.1,307.9,1147.386-271.669,2017.487-6.9" transform="translate(21.002 98.848)" fill="none" stroke="#d1d1d1" stroke-linecap="round" stroke-linejoin="round" stroke-width="0.661"/>
      <path id="Path_645" data-name="Path 645" d="M0,73.347c884.421,323.059,1182.365-258.778,2021.079-9.2" transform="translate(22.502 96.105)" fill="none" stroke="#d1d1d1" stroke-linecap="round" stroke-linejoin="round" stroke-width="0.637"/>
      <path id="Path_646" data-name="Path 646" d="M0,68.687C903.738,406.9,1217.34-177.2,2024.667,57.184" transform="translate(24.003 93.055)" fill="none" stroke="#d1d1d1" stroke-linecap="round" stroke-linejoin="round" stroke-width="0.613"/>
      <path id="Path_647" data-name="Path 647" d="M0,64.35c923.056,353.376,1252.319-232.993,2028.259-13.8" transform="translate(25.503 89.68)" fill="none" stroke="#d1d1d1" stroke-linecap="round" stroke-linejoin="round" stroke-width="0.589"/>
      <path id="Path_648" data-name="Path 648" d="M0,60.352c942.377,368.534,1287.3-220.1,2031.849-16.107" transform="translate(27.002 85.969)" fill="none" stroke="#d1d1d1" stroke-linecap="round" stroke-linejoin="round" stroke-width="0.565"/>
      <path id="Path_649" data-name="Path 649" d="M0,56.705C961.694,440.4,1322.273-150.5,2035.439,38.3" transform="translate(28.504 81.904)" fill="none" stroke="#d1d1d1" stroke-linecap="round" stroke-linejoin="round" stroke-width="0.54"/>
      <path id="Path_650" data-name="Path 650" d="M0,53.428C981.013,452.279,1357.253-140.889,2039.03,32.717" transform="translate(30.003 77.472)" fill="none" stroke="#d1d1d1" stroke-linecap="round" stroke-linejoin="round" stroke-width="0.516"/>
      <path id="Path_651" data-name="Path 651" d="M0,50.533C1000.332,464.543,1392.232-130.892,2042.622,27.521" transform="translate(31.503 72.656)" fill="none" stroke="#d1d1d1" stroke-linecap="round" stroke-linejoin="round" stroke-width="0.492"/>
      <path id="Path_652" data-name="Path 652" d="M0,48.038C1019.649,477.205,1427.207-120.495,2046.21,22.723" transform="translate(33.004 67.44)" fill="none" stroke="#d1d1d1" stroke-linecap="round" stroke-linejoin="round" stroke-width="0.468"/>
      <path id="Path_653" data-name="Path 653" d="M0,45.957C1038.97,490.283,1462.186-109.684,2049.8,18.34" transform="translate(34.503 61.811)" fill="none" stroke="#d1d1d1" stroke-linecap="round" stroke-linejoin="round" stroke-width="0.444"/>
      <path id="Path_654" data-name="Path 654" d="M0,44.305C1058.289,503.789,1497.163-98.444,2053.392,14.386" transform="translate(36.003 55.752)" fill="none" stroke="#d1d1d1" stroke-linecap="round" stroke-linejoin="round" stroke-width="0.419"/>
      <path id="Path_655" data-name="Path 655" d="M0,43.1C1077.605,517.741,1532.141-86.758,2056.982,10.878" transform="translate(37.504 49.248)" fill="none" stroke="#d1d1d1" stroke-linecap="round" stroke-linejoin="round" stroke-width="0.395"/>
      <path id="Path_656" data-name="Path 656" d="M0,42.354C1096.924,532.155,1567.119-74.611,2060.572,7.831" transform="translate(39.004 42.283)" fill="none" stroke="#d1d1d1" stroke-linecap="round" stroke-linejoin="round" stroke-width="0.371"/>
      <path id="Path_657" data-name="Path 657" d="M0,42.085C1116.245,547.044,1602.1-61.987,2064.165,5.261" transform="translate(40.503 34.84)" fill="none" stroke="#d1d1d1" stroke-linecap="round" stroke-linejoin="round" stroke-width="0.347"/>
      <path id="Path_658" data-name="Path 658" d="M0,42.308C1135.562,562.426,1637.074-48.873,2067.753,3.182" transform="translate(42.005 26.907)" fill="none" stroke="#d1d1d1" stroke-linecap="round" stroke-linejoin="round" stroke-width="0.323"/>
      <path id="Path_659" data-name="Path 659" d="M0,43.039C1154.881,578.315,1672.051-35.25,2071.344,1.61" transform="translate(43.504 18.466)" fill="none" stroke="#d1d1d1" stroke-linecap="round" stroke-linejoin="round" stroke-width="0.298"/>
      <path id="Path_660" data-name="Path 660" d="M0,44.292C1174.2,594.726,1707.031-21.1,2074.934.562" transform="translate(45.004 9.502)" fill="none" stroke="#d1d1d1" stroke-linecap="round" stroke-linejoin="round" stroke-width="0.274"/>
      <path id="Path_661" data-name="Path 661" d="M0,46.084C1193.517,611.676,1742.008-6.421,2078.525.051" transform="translate(46.505 0)" fill="none" stroke="#d1d1d1" stroke-linecap="round" stroke-linejoin="round" stroke-width="0.25"/>
    </g>
  </g>
</svg>
