<svg xmlns="http://www.w3.org/2000/svg" width="1900.131" height="1572.47" viewBox="0 0 1900.131 1572.47">
  <g id="Group_4029" data-name="Group 4029" transform="translate(2962.129 -2360.247)">
    <path id="Union_15" data-name="Union 15" d="M3.182,1449.474.431,1300.919H0V135.175H.705L3.182,1.406C44.906,0,91.045-.41,142.809.441,615.815,8.222,614,106.022,1087.009,113.8c421.24,6.929,472.333-68.639,811.748-80V135.175H1899V1300.919h-.243v116.157c-339.414-11.36-390.507-86.929-811.748-80-473.006,7.781-471.194,105.581-944.2,113.361q-27.179.447-52.343.441C59.284,1450.879,30.3,1450.385,3.182,1449.474Z" transform="translate(-2962 2360.247)" fill="#e6e6e6" opacity="0.4"/>
    <path id="Union_14" data-name="Union 14" d="M3.182,1313.606.431,1178.976H0V122.5H.705L3.182,1.274C44.906,0,91.045-.372,142.809.4,615.815,7.451,614,96.084,1087.009,103.135c421.24,6.28,472.333-62.2,811.748-72.5V122.5H1899V1178.976h-.243v105.269c-339.414-10.3-390.507-78.781-811.748-72.5-473.006,7.052-471.194,95.684-944.2,102.735q-27.179.405-52.343.4C59.284,1314.879,30.3,1314.432,3.182,1313.606Z" transform="translate(-2962 2429.247)" fill="#e6e6e6" opacity="0.55"/>
    <g id="Group_4028" data-name="Group 4028" transform="translate(-1062.616 3932.598) rotate(-180)">
      <path id="Path_630" data-name="Path 630" d="M-214.1,438.274C317.4,589.8,373.765-277.741,1544.236,478.383" transform="translate(214.097 13.213)" fill="none" stroke="#d1d1d1" stroke-linecap="round" stroke-linejoin="round" stroke-width="1"/>
      <path id="Path_631" data-name="Path 631" d="M-213.33,441.7c548.765,175.526,619.123-695.6,1761.541,36.464" transform="translate(214.672 -2.429)" fill="none" stroke="#d1d1d1" stroke-linecap="round" stroke-linejoin="round" stroke-width="0.976"/>
      <path id="Path_632" data-name="Path 632" d="M-212.564,445.363c566.033,199.529,650.388-675.184,1764.75,32.817" transform="translate(215.246 -18.296)" fill="none" stroke="#d1d1d1" stroke-linecap="round" stroke-linejoin="round" stroke-width="0.952"/>
      <path id="Path_633" data-name="Path 633" d="M-211.8,440.867C371.5,664.4,469.853-213.9,1556.163,470.039" transform="translate(215.821 -26.01)" fill="none" stroke="#d1d1d1" stroke-linecap="round" stroke-linejoin="round" stroke-width="0.927"/>
      <path id="Path_634" data-name="Path 634" d="M-211.031,433.6c600.566,247.537,712.914-634.354,1771.168,25.527" transform="translate(216.395 -30.948)" fill="none" stroke="#d1d1d1" stroke-linecap="round" stroke-linejoin="round" stroke-width="0.903"/>
      <path id="Path_635" data-name="Path 635" d="M-210.265,426.036C407.57,697.577,533.914-187.9,1564.114,447.919" transform="translate(216.97 -35.599)" fill="none" stroke="#d1d1d1" stroke-linecap="round" stroke-linejoin="round" stroke-width="0.879"/>
      <path id="Path_636" data-name="Path 636" d="M-209.5,418.242c635.1,295.544,775.442-593.523,1777.587,18.237" transform="translate(217.544 -40.015)" fill="none" stroke="#d1d1d1" stroke-linecap="round" stroke-linejoin="round" stroke-width="0.855"/>
      <path id="Path_637" data-name="Path 637" d="M-208.732,410.262c652.368,319.55,806.705-573.109,1780.8,14.591" transform="translate(218.119 -44.245)" fill="none" stroke="#d1d1d1" stroke-linecap="round" stroke-linejoin="round" stroke-width="0.831"/>
      <path id="Path_638" data-name="Path 638" d="M-207.966,402.147C461.67,745.7,630-150.546,1576.039,413.094" transform="translate(218.693 -48.341)" fill="none" stroke="#d1d1d1" stroke-linecap="round" stroke-linejoin="round" stroke-width="0.806"/>
      <path id="Path_639" data-name="Path 639" d="M-207.2,393.946c686.905,367.558,869.233-532.278,1787.216,7.3" transform="translate(219.268 -52.35)" fill="none" stroke="#d1d1d1" stroke-linecap="round" stroke-linejoin="round" stroke-width="0.782"/>
      <path id="Path_640" data-name="Path 640" d="M-206.433,385.707c704.171,391.562,900.5-511.862,1790.423,3.657" transform="translate(219.843 -56.321)" fill="none" stroke="#d1d1d1" stroke-linecap="round" stroke-linejoin="round" stroke-width="0.758"/>
      <path id="Path_641" data-name="Path 641" d="M-205.667,377.477c721.439,415.565,931.76-491.448,1793.634.011" transform="translate(220.417 -60.301)" fill="none" stroke="#d1d1d1" stroke-linecap="round" stroke-linejoin="round" stroke-width="0.734"/>
      <path id="Path_642" data-name="Path 642" d="M-204.9,369.3c738.706,439.57,963.024-471.032,1796.843-3.635" transform="translate(220.991 -64.334)" fill="none" stroke="#d1d1d1" stroke-linecap="round" stroke-linejoin="round" stroke-width="0.71"/>
      <path id="Path_643" data-name="Path 643" d="M-204.134,361.223C551.838,824.8,790.154-89.394,1595.918,353.943" transform="translate(221.566 -68.466)" fill="none" stroke="#d1d1d1" stroke-linecap="round" stroke-linejoin="round" stroke-width="0.685"/>
      <path id="Path_644" data-name="Path 644" d="M-203.368,353.289c773.241,487.577,1025.551-430.2,1803.261-10.925" transform="translate(222.14 -72.743)" fill="none" stroke="#d1d1d1" stroke-linecap="round" stroke-linejoin="round" stroke-width="0.661"/>
      <path id="Path_645" data-name="Path 645" d="M-202.6,345.541C587.906,857.122,854.214-64.246,1603.869,330.971" transform="translate(222.715 -77.205)" fill="none" stroke="#d1d1d1" stroke-linecap="round" stroke-linejoin="round" stroke-width="0.637"/>
      <path id="Path_646" data-name="Path 646" d="M-201.835,338.021C605.939,873.606,886.242-51.351,1607.843,319.806" transform="translate(223.289 -81.895)" fill="none" stroke="#d1d1d1" stroke-linecap="round" stroke-linejoin="round" stroke-width="0.613"/>
      <path id="Path_647" data-name="Path 647" d="M-201.069,330.77C623.973,890.359,918.273-38.186,1611.82,308.91" transform="translate(223.864 -86.855)" fill="none" stroke="#d1d1d1" stroke-linecap="round" stroke-linejoin="round" stroke-width="0.589"/>
      <path id="Path_648" data-name="Path 648" d="M-200.3,323.829C642.008,907.422,950.3-24.712,1615.795,298.323" transform="translate(224.438 -92.123)" fill="none" stroke="#d1d1d1" stroke-linecap="round" stroke-linejoin="round" stroke-width="0.565"/>
      <path id="Path_649" data-name="Path 649" d="M-199.536,317.237c859.577,607.6,1181.868-328.125,1819.307-29.151" transform="translate(225.013 -97.741)" fill="none" stroke="#d1d1d1" stroke-linecap="round" stroke-linejoin="round" stroke-width="0.54"/>
      <path id="Path_650" data-name="Path 650" d="M-198.77,311.032c876.844,631.6,1213.133-307.711,1822.516-32.8" transform="translate(225.587 -103.746)" fill="none" stroke="#d1d1d1" stroke-linecap="round" stroke-linejoin="round" stroke-width="0.516"/>
      <path id="Path_651" data-name="Path 651" d="M-198,305.253c894.112,655.6,1244.4-287.3,1825.726-36.441" transform="translate(226.162 -110.177)" fill="none" stroke="#d1d1d1" stroke-linecap="round" stroke-linejoin="round" stroke-width="0.492"/>
      <path id="Path_652" data-name="Path 652" d="M-197.237,299.937C714.141,979.545,1078.422,33.057,1631.7,259.85" transform="translate(226.737 -117.072)" fill="none" stroke="#d1d1d1" stroke-linecap="round" stroke-linejoin="round" stroke-width="0.468"/>
      <path id="Path_653" data-name="Path 653" d="M-196.471,295.119C732.176,998.732,1110.453,48.654,1635.673,251.386" transform="translate(227.311 -124.463)" fill="none" stroke="#d1d1d1" stroke-linecap="round" stroke-linejoin="round" stroke-width="0.444"/>
      <path id="Path_654" data-name="Path 654" d="M-195.705,290.836c945.915,727.616,1338.187-226.051,1835.353-47.378" transform="translate(227.885 -132.39)" fill="none" stroke="#d1d1d1" stroke-linecap="round" stroke-linejoin="round" stroke-width="0.419"/>
      <path id="Path_655" data-name="Path 655" d="M-194.938,287.121c963.18,751.62,1369.451-205.635,1838.562-51.023" transform="translate(228.46 -140.885)" fill="none" stroke="#d1d1d1" stroke-linecap="round" stroke-linejoin="round" stroke-width="0.395"/>
      <path id="Path_656" data-name="Path 656" d="M-194.172,284.009C786.276,1059.633,1206.543,98.789,1647.6,229.34" transform="translate(229.034 -149.982)" fill="none" stroke="#d1d1d1" stroke-linecap="round" stroke-linejoin="round" stroke-width="0.371"/>
      <path id="Path_657" data-name="Path 657" d="M-193.406,281.533c997.717,799.628,1431.979-164.8,1844.982-58.314" transform="translate(229.608 -159.717)" fill="none" stroke="#d1d1d1" stroke-linecap="round" stroke-linejoin="round" stroke-width="0.347"/>
      <path id="Path_658" data-name="Path 658" d="M-192.639,279.724C822.344,1103.357,1270.6,135.335,1655.55,217.766" transform="translate(230.183 -170.119)" fill="none" stroke="#d1d1d1" stroke-linecap="round" stroke-linejoin="round" stroke-width="0.323"/>
      <path id="Path_659" data-name="Path 659" d="M-191.873,278.617c1032.25,847.636,1494.5-123.975,1851.4-65.6" transform="translate(230.758 -181.222)" fill="none" stroke="#d1d1d1" stroke-linecap="round" stroke-linejoin="round" stroke-width="0.298"/>
      <path id="Path_660" data-name="Path 660" d="M-191.107,278.24C858.411,1149.88,1334.663,174.681,1663.5,208.991" transform="translate(231.332 -193.055)" fill="none" stroke="#d1d1d1" stroke-linecap="round" stroke-linejoin="round" stroke-width="0.274"/>
      <path id="Path_661" data-name="Path 661" d="M-190.34,278.627c1066.783,895.644,1557.033-83.144,1857.817-72.9" transform="translate(231.907 -205.651)" fill="none" stroke="#d1d1d1" stroke-linecap="round" stroke-linejoin="round" stroke-width="0.25"/>
    </g>
  </g>
</svg>
