<svg xmlns="http://www.w3.org/2000/svg" width="2063.109" height="948.081" viewBox="0 0 2063.109 948.081">
  <g id="Group_4029" data-name="Group 4029" transform="translate(2962.127 -2360.247)">
    <path id="Union_15" data-name="Union 15" d="M3.455,882.432.468,791.992H0V82.294H.766L3.455.856C48.759,0,98.857-.25,155.064.269,668.658,5.006,666.69,64.546,1180.285,69.282c457.387,4.219,512.864-41.787,881.4-48.7V82.294h.264v709.7h-.264v70.716c-368.539-6.916-424.016-52.922-881.4-48.7-513.594,4.737-511.627,64.277-1025.221,69.014q-29.511.272-56.835.269C64.372,883.287,32.9,882.987,3.455,882.432Z" transform="translate(-2962 2360.247)" fill="#e6e6e6" opacity="0.4"/>
    <path id="Union_14" data-name="Union 14" d="M3.455,810.095.468,727.069H0V75.548H.766L3.455.786C48.759,0,98.857-.229,155.064.247,668.658,4.6,666.69,59.255,1180.285,63.6c457.387,3.873,512.864-38.361,881.4-44.711V75.548h.264V727.069h-.264v64.919c-368.539-6.349-424.016-48.584-881.4-44.711-513.594,4.349-511.627,59.008-1025.221,63.356q-29.511.25-56.835.247C64.372,810.88,32.9,810.6,3.455,810.095Z" transform="translate(-2962 2396.983)" fill="#e6e6e6" opacity="0.55"/>
    <g id="Group_4028" data-name="Group 4028" transform="translate(-899.59 3308.206) rotate(-180)">
      <path id="Path_630" data-name="Path 630" d="M0,165.027c577.119,91.351,638.318-431.68,1909.252,24.181" transform="translate(0 107.171)" fill="none" stroke="#d1d1d1" stroke-linecap="round" stroke-linejoin="round" stroke-width="1"/>
      <path id="Path_631" data-name="Path 631" d="M0,157.444c595.866,105.824,672.263-419.372,1912.737,21.984" transform="translate(1.457 107.393)" fill="none" stroke="#d1d1d1" stroke-linecap="round" stroke-linejoin="round" stroke-width="0.976"/>
      <path id="Path_632" data-name="Path 632" d="M0,150c614.616,120.295,706.212-407.064,1916.221,19.785" transform="translate(2.912 107.479)" fill="none" stroke="#d1d1d1" stroke-linecap="round" stroke-linejoin="round" stroke-width="0.952"/>
      <path id="Path_633" data-name="Path 633" d="M0,142.693c633.366,134.767,740.158-394.756,1919.707,17.588" transform="translate(4.368 107.421)" fill="none" stroke="#d1d1d1" stroke-linecap="round" stroke-linejoin="round" stroke-width="0.927"/>
      <path id="Path_634" data-name="Path 634" d="M0,135.542c652.113,149.239,774.1-382.448,1923.19,15.39" transform="translate(5.825 107.211)" fill="none" stroke="#d1d1d1" stroke-linecap="round" stroke-linejoin="round" stroke-width="0.903"/>
      <path id="Path_635" data-name="Path 635" d="M0,128.553c670.865,163.71,808.053-370.139,1926.676,13.193" transform="translate(7.28 106.838)" fill="none" stroke="#d1d1d1" stroke-linecap="round" stroke-linejoin="round" stroke-width="0.879"/>
      <path id="Path_636" data-name="Path 636" d="M0,121.738C689.614,299.92,842-236.093,1930.16,132.733" transform="translate(8.736 106.292)" fill="none" stroke="#d1d1d1" stroke-linecap="round" stroke-linejoin="round" stroke-width="0.855"/>
      <path id="Path_637" data-name="Path 637" d="M0,115.106c708.362,192.654,875.946-345.523,1933.644,8.8" transform="translate(10.193 105.563)" fill="none" stroke="#d1d1d1" stroke-linecap="round" stroke-linejoin="round" stroke-width="0.831"/>
      <path id="Path_638" data-name="Path 638" d="M0,108.667c727.112,207.126,909.894-333.215,1937.129,6.6" transform="translate(11.648 104.64)" fill="none" stroke="#d1d1d1" stroke-linecap="round" stroke-linejoin="round" stroke-width="0.806"/>
      <path id="Path_639" data-name="Path 639" d="M0,102.434c745.863,221.6,943.841-320.907,1940.615,4.4" transform="translate(13.103 103.512)" fill="none" stroke="#d1d1d1" stroke-linecap="round" stroke-linejoin="round" stroke-width="0.782"/>
      <path id="Path_640" data-name="Path 640" d="M0,96.417c764.611,236.07,977.787-308.6,1944.1,2.2" transform="translate(14.56 102.168)" fill="none" stroke="#d1d1d1" stroke-linecap="round" stroke-linejoin="round" stroke-width="0.758"/>
      <path id="Path_641" data-name="Path 641" d="M0,90.63c783.361,250.541,1011.734-296.291,1947.583.007" transform="translate(16.016 100.593)" fill="none" stroke="#d1d1d1" stroke-linecap="round" stroke-linejoin="round" stroke-width="0.734"/>
      <path id="Path_642" data-name="Path 642" d="M0,85.084C802.11,350.1,1045.682-198.9,1951.068,82.893" transform="translate(17.471 98.778)" fill="none" stroke="#d1d1d1" stroke-linecap="round" stroke-linejoin="round" stroke-width="0.71"/>
      <path id="Path_643" data-name="Path 643" d="M0,79.793C820.858,359.278,1079.628-191.881,1954.552,75.4" transform="translate(18.928 96.708)" fill="none" stroke="#d1d1d1" stroke-linecap="round" stroke-linejoin="round" stroke-width="0.685"/>
      <path id="Path_644" data-name="Path 644" d="M0,74.768C839.609,368.725,1113.575-184.6,1958.036,68.182" transform="translate(20.383 94.371)" fill="none" stroke="#d1d1d1" stroke-linecap="round" stroke-linejoin="round" stroke-width="0.661"/>
      <path id="Path_645" data-name="Path 645" d="M0,70.025c858.359,308.428,1147.523-247.058,1961.523-8.784" transform="translate(21.839 91.752)" fill="none" stroke="#d1d1d1" stroke-linecap="round" stroke-linejoin="round" stroke-width="0.637"/>
      <path id="Path_646" data-name="Path 646" d="M0,65.576c877.107,322.9,1181.468-234.75,1965-10.982" transform="translate(23.296 88.84)" fill="none" stroke="#d1d1d1" stroke-linecap="round" stroke-linejoin="round" stroke-width="0.613"/>
      <path id="Path_647" data-name="Path 647" d="M0,61.436c895.856,337.372,1215.416-222.441,1968.491-13.18" transform="translate(24.751 85.619)" fill="none" stroke="#d1d1d1" stroke-linecap="round" stroke-linejoin="round" stroke-width="0.589"/>
      <path id="Path_648" data-name="Path 648" d="M0,57.619C914.608,409.462,1249.365-152.514,1971.975,42.241" transform="translate(26.206 82.075)" fill="none" stroke="#d1d1d1" stroke-linecap="round" stroke-linejoin="round" stroke-width="0.565"/>
      <path id="Path_649" data-name="Path 649" d="M0,54.137C933.356,420.453,1283.309-143.687,1975.46,36.562" transform="translate(27.664 78.195)" fill="none" stroke="#d1d1d1" stroke-linecap="round" stroke-linejoin="round" stroke-width="0.54"/>
      <path id="Path_650" data-name="Path 650" d="M0,51.008C952.1,431.8,1317.258-134.509,1978.944,31.236" transform="translate(29.119 73.963)" fill="none" stroke="#d1d1d1" stroke-linecap="round" stroke-linejoin="round" stroke-width="0.516"/>
      <path id="Path_651" data-name="Path 651" d="M0,48.245C970.854,443.5,1351.206-124.964,1982.431,26.275" transform="translate(30.574 69.365)" fill="none" stroke="#d1d1d1" stroke-linecap="round" stroke-linejoin="round" stroke-width="0.492"/>
      <path id="Path_652" data-name="Path 652" d="M0,45.863c989.6,409.731,1385.151-160.9,1985.913-24.169" transform="translate(32.031 64.386)" fill="none" stroke="#d1d1d1" stroke-linecap="round" stroke-linejoin="round" stroke-width="0.468"/>
      <path id="Path_653" data-name="Path 653" d="M0,43.875c1008.354,424.2,1419.1-148.592,1989.4-26.366" transform="translate(33.487 59.012)" fill="none" stroke="#d1d1d1" stroke-linecap="round" stroke-linejoin="round" stroke-width="0.444"/>
      <path id="Path_654" data-name="Path 654" d="M0,42.3C1027.1,480.973,1453.046-93.986,1992.883,13.735" transform="translate(34.942 53.227)" fill="none" stroke="#d1d1d1" stroke-linecap="round" stroke-linejoin="round" stroke-width="0.419"/>
      <path id="Path_655" data-name="Path 655" d="M0,41.147C1045.851,494.293,1486.992-82.829,1996.368,10.386" transform="translate(36.399 47.018)" fill="none" stroke="#d1d1d1" stroke-linecap="round" stroke-linejoin="round" stroke-width="0.395"/>
      <path id="Path_656" data-name="Path 656" d="M0,40.436C1064.6,508.054,1520.94-71.232,1999.852,7.476" transform="translate(37.854 40.367)" fill="none" stroke="#d1d1d1" stroke-linecap="round" stroke-linejoin="round" stroke-width="0.371"/>
      <path id="Path_657" data-name="Path 657" d="M0,40.179C1083.352,522.269,1554.887-59.18,2003.338,5.022" transform="translate(39.31 33.262)" fill="none" stroke="#d1d1d1" stroke-linecap="round" stroke-linejoin="round" stroke-width="0.347"/>
      <path id="Path_658" data-name="Path 658" d="M0,40.392C1102.1,536.954,1588.833-46.659,2006.821,3.038" transform="translate(40.767 25.688)" fill="none" stroke="#d1d1d1" stroke-linecap="round" stroke-linejoin="round" stroke-width="0.323"/>
      <path id="Path_659" data-name="Path 659" d="M0,41.09C1120.849,552.123,1622.779-33.654,2010.307,1.537" transform="translate(42.222 17.629)" fill="none" stroke="#d1d1d1" stroke-linecap="round" stroke-linejoin="round" stroke-width="0.298"/>
      <path id="Path_660" data-name="Path 660" d="M0,42.286C1139.6,567.791,1656.728-20.149,2013.791.536" transform="translate(43.677 9.072)" fill="none" stroke="#d1d1d1" stroke-linecap="round" stroke-linejoin="round" stroke-width="0.274"/>
      <path id="Path_661" data-name="Path 661" d="M0,44C1158.347,583.974,1690.675-6.131,2017.275.048" transform="translate(45.135 0)" fill="none" stroke="#d1d1d1" stroke-linecap="round" stroke-linejoin="round" stroke-width="0.25"/>
    </g>
  </g>
</svg>
