<svg xmlns="http://www.w3.org/2000/svg" width="1754.603" height="1102.713" viewBox="0 0 1754.603 1102.713">
  <g id="Group_4029" data-name="Group 4029" transform="translate(2962.128 -2360.247)">
    <path id="Union_15" data-name="Union 15" d="M2.939,1016.426.4,912.254H0V94.79H.651L2.939.986C41.465,0,84.069-.288,131.867.309,568.631,5.766,566.958,74.347,1003.721,79.8c388.965,4.859,436.143-48.132,749.551-56.1V94.79h.224V912.254h-.224v81.454c-313.408-7.966-360.586-60.958-749.551-56.1-436.764,5.456-435.091,74.038-871.854,79.493q-25.1.313-48.333.309C54.742,1017.411,27.979,1017.065,2.939,1016.426Z" transform="translate(-2962 2360.247)" fill="#e6e6e6" opacity="0.4"/>
    <path id="Union_14" data-name="Union 14" d="M2.939,921.15.4,826.743H0V85.9H.651L2.939.893C41.465,0,84.069-.261,131.867.28c436.764,4.945,435.091,67.1,871.854,72.042,388.965,4.4,436.143-43.62,749.551-50.84V85.9h.224V826.743h-.224v73.818c-313.408-7.219-360.586-55.244-749.551-50.84-436.764,4.945-435.091,67.1-871.854,72.042q-25.1.284-48.333.28C54.742,922.043,27.979,921.729,2.939,921.15Z" transform="translate(-2962 2408.632)" fill="#e6e6e6" opacity="0.55"/>
    <g id="Group_4028" data-name="Group 4028" transform="translate(-1208.12 3462.839) rotate(-180)">
      <path id="Path_630" data-name="Path 630" d="M0,191.947C490.784,298.2,542.828-310.15,1623.634,220.072" transform="translate(0 124.653)" fill="none" stroke="#d1d1d1" stroke-linecap="round" stroke-linejoin="round" stroke-width="1"/>
      <path id="Path_631" data-name="Path 631" d="M0,183.126c506.727,123.086,571.695-487.78,1626.6,25.57" transform="translate(1.239 124.911)" fill="none" stroke="#d1d1d1" stroke-linecap="round" stroke-linejoin="round" stroke-width="0.976"/>
      <path id="Path_632" data-name="Path 632" d="M0,174.464C522.671,314.382,600.565-299,1629.56,197.477" transform="translate(2.477 125.011)" fill="none" stroke="#d1d1d1" stroke-linecap="round" stroke-linejoin="round" stroke-width="0.952"/>
      <path id="Path_633" data-name="Path 633" d="M0,165.969c538.616,156.75,629.433-459.149,1632.525,20.457" transform="translate(3.714 124.944)" fill="none" stroke="#d1d1d1" stroke-linecap="round" stroke-linejoin="round" stroke-width="0.927"/>
      <path id="Path_634" data-name="Path 634" d="M0,157.652c554.559,173.583,658.3-444.833,1635.487,17.9" transform="translate(4.954 124.699)" fill="none" stroke="#d1d1d1" stroke-linecap="round" stroke-linejoin="round" stroke-width="0.903"/>
      <path id="Path_635" data-name="Path 635" d="M0,149.524c570.506,190.415,687.171-430.517,1638.451,15.345" transform="translate(6.191 124.265)" fill="none" stroke="#d1d1d1" stroke-linecap="round" stroke-linejoin="round" stroke-width="0.879"/>
      <path id="Path_636" data-name="Path 636" d="M0,141.6c586.45,207.247,716.039-416.2,1641.414,12.788" transform="translate(7.429 123.631)" fill="none" stroke="#d1d1d1" stroke-linecap="round" stroke-linejoin="round" stroke-width="0.855"/>
      <path id="Path_637" data-name="Path 637" d="M0,133.882C602.393,357.962,744.907-268,1644.377,144.114" transform="translate(8.668 122.783)" fill="none" stroke="#d1d1d1" stroke-linecap="round" stroke-linejoin="round" stroke-width="0.831"/>
      <path id="Path_638" data-name="Path 638" d="M0,126.393c618.338,240.913,773.777-387.569,1647.34,7.676" transform="translate(9.905 121.709)" fill="none" stroke="#d1d1d1" stroke-linecap="round" stroke-linejoin="round" stroke-width="0.806"/>
      <path id="Path_639" data-name="Path 639" d="M0,119.143c634.284,257.745,802.645-373.253,1650.305,5.12" transform="translate(11.143 120.397)" fill="none" stroke="#d1d1d1" stroke-linecap="round" stroke-linejoin="round" stroke-width="0.782"/>
      <path id="Path_640" data-name="Path 640" d="M0,112.145c650.228,274.578,831.513-358.937,1653.267,2.564" transform="translate(12.382 118.833)" fill="none" stroke="#d1d1d1" stroke-linecap="round" stroke-linejoin="round" stroke-width="0.758"/>
      <path id="Path_641" data-name="Path 641" d="M0,105.414c666.172,291.41,860.382-344.622,1656.231.008" transform="translate(13.62 117.002)" fill="none" stroke="#d1d1d1" stroke-linecap="round" stroke-linejoin="round" stroke-width="0.734"/>
      <path id="Path_642" data-name="Path 642" d="M0,98.963c682.117,308.243,889.251-330.306,1659.194-2.549" transform="translate(14.857 114.891)" fill="none" stroke="#d1d1d1" stroke-linecap="round" stroke-linejoin="round" stroke-width="0.71"/>
      <path id="Path_643" data-name="Path 643" d="M0,92.809C698.06,417.884,918.119-223.181,1662.157,87.7" transform="translate(16.097 112.483)" fill="none" stroke="#d1d1d1" stroke-linecap="round" stroke-linejoin="round" stroke-width="0.685"/>
      <path id="Path_644" data-name="Path 644" d="M0,86.965C714.006,428.872,946.988-214.709,1665.12,79.3" transform="translate(17.334 109.765)" fill="none" stroke="#d1d1d1" stroke-linecap="round" stroke-linejoin="round" stroke-width="0.661"/>
      <path id="Path_645" data-name="Path 645" d="M0,81.448c729.951,358.74,975.857-287.359,1668.085-10.217" transform="translate(18.572 106.719)" fill="none" stroke="#d1d1d1" stroke-linecap="round" stroke-linejoin="round" stroke-width="0.637"/>
      <path id="Path_646" data-name="Path 646" d="M0,76.273C745.894,451.846,1004.724-196.769,1671.047,63.5" transform="translate(19.811 103.332)" fill="none" stroke="#d1d1d1" stroke-linecap="round" stroke-linejoin="round" stroke-width="0.613"/>
      <path id="Path_647" data-name="Path 647" d="M0,71.457c761.839,392.4,1033.594-258.726,1674.011-15.33" transform="translate(21.049 99.585)" fill="none" stroke="#d1d1d1" stroke-linecap="round" stroke-linejoin="round" stroke-width="0.589"/>
      <path id="Path_648" data-name="Path 648" d="M0,67.017c777.785,409.237,1062.464-244.41,1676.974-17.886" transform="translate(22.286 95.464)" fill="none" stroke="#d1d1d1" stroke-linecap="round" stroke-linejoin="round" stroke-width="0.565"/>
      <path id="Path_649" data-name="Path 649" d="M0,62.968c793.729,426.07,1091.33-230.094,1679.937-20.442" transform="translate(23.525 90.95)" fill="none" stroke="#d1d1d1" stroke-linecap="round" stroke-linejoin="round" stroke-width="0.54"/>
      <path id="Path_650" data-name="Path 650" d="M0,59.329c809.673,442.9,1120.2-215.779,1682.9-23" transform="translate(24.763 86.028)" fill="none" stroke="#d1d1d1" stroke-linecap="round" stroke-linejoin="round" stroke-width="0.516"/>
      <path id="Path_651" data-name="Path 651" d="M0,56.114C825.618,515.849,1149.07-145.348,1685.865,30.56" transform="translate(26 80.68)" fill="none" stroke="#d1d1d1" stroke-linecap="round" stroke-linejoin="round" stroke-width="0.492"/>
      <path id="Path_652" data-name="Path 652" d="M0,53.344C841.561,529.911,1177.937-133.8,1688.827,25.233" transform="translate(27.24 74.889)" fill="none" stroke="#d1d1d1" stroke-linecap="round" stroke-linejoin="round" stroke-width="0.468"/>
      <path id="Path_653" data-name="Path 653" d="M0,51.032c857.507,493.4,1206.806-172.83,1691.791-30.667" transform="translate(28.477 68.638)" fill="none" stroke="#d1d1d1" stroke-linecap="round" stroke-linejoin="round" stroke-width="0.444"/>
      <path id="Path_654" data-name="Path 654" d="M0,49.2C873.452,559.431,1235.675-109.317,1694.754,15.975" transform="translate(29.715 61.91)" fill="none" stroke="#d1d1d1" stroke-linecap="round" stroke-linejoin="round" stroke-width="0.419"/>
      <path id="Path_655" data-name="Path 655" d="M0,47.859C889.4,574.923,1264.543-96.34,1697.718,12.08" transform="translate(30.954 54.687)" fill="none" stroke="#d1d1d1" stroke-linecap="round" stroke-linejoin="round" stroke-width="0.395"/>
      <path id="Path_656" data-name="Path 656" d="M0,47.032C905.34,590.929,1293.412-82.852,1700.68,8.7" transform="translate(32.192 46.953)" fill="none" stroke="#d1d1d1" stroke-linecap="round" stroke-linejoin="round" stroke-width="0.371"/>
      <path id="Path_657" data-name="Path 657" d="M0,46.733C921.286,607.463,1322.281-68.834,1703.645,5.841" transform="translate(33.429 38.688)" fill="none" stroke="#d1d1d1" stroke-linecap="round" stroke-linejoin="round" stroke-width="0.347"/>
      <path id="Path_658" data-name="Path 658" d="M0,46.981C937.229,624.544,1351.149-54.271,1706.607,3.533" transform="translate(34.668 29.878)" fill="none" stroke="#d1d1d1" stroke-linecap="round" stroke-linejoin="round" stroke-width="0.323"/>
      <path id="Path_659" data-name="Path 659" d="M0,47.792c953.174,594.395,1380.017-86.936,1709.571-46" transform="translate(35.906 20.505)" fill="none" stroke="#d1d1d1" stroke-linecap="round" stroke-linejoin="round" stroke-width="0.298"/>
      <path id="Path_660" data-name="Path 660" d="M0,49.183C969.119,660.41,1408.887-23.436,1712.534.623" transform="translate(37.143 10.552)" fill="none" stroke="#d1d1d1" stroke-linecap="round" stroke-linejoin="round" stroke-width="0.274"/>
      <path id="Path_661" data-name="Path 661" d="M0,51.173C985.062,679.233,1437.755-7.131,1715.5.056" transform="translate(38.383 0)" fill="none" stroke="#d1d1d1" stroke-linecap="round" stroke-linejoin="round" stroke-width="0.25"/>
    </g>
  </g>
</svg>
