<svg xmlns="http://www.w3.org/2000/svg" width="3016.022" height="837.229" viewBox="0 0 3016.022 837.229">
  <g id="Group_4025" data-name="Group 4025" transform="translate(-7586.608 -8979.563)">
    <g id="Group_4024" data-name="Group 4024" transform="translate(5 -42)">
      <g id="Group_4023" data-name="Group 4023" transform="translate(7585.047 8965.308)">
        <path id="Path_8148" data-name="Path 8148" d="M0,607.162,522.634,44.086s37.33-59.107,108.881-40.442,665.738,183.544,665.738,183.544V607.162Z" transform="translate(139.85 148.369)" fill="#ee9c47" opacity="0.114"/>
        <path id="Path_8149" data-name="Path 8149" d="M0,607.162,522.634,44.086s37.33-59.107,108.881-40.442,665.738,183.544,665.738,183.544V607.162Z" transform="translate(0 227.369)" fill="none" stroke="#a50a2e" stroke-width="3" opacity="0.598"/>
        <path id="Path_8150" data-name="Path 8150" d="M0,607.162,522.634,44.086s37.33-59.107,108.881-40.442,665.738,183.544,665.738,183.544V607.162Z" transform="translate(1484.512 264.922)" fill="none" stroke="#ee9c47" stroke-width="3" opacity="0.667"/>
        <path id="Path_8151" data-name="Path 8151" d="M0,607.162,522.634,44.086s37.33-59.107,108.881-40.442,665.738,183.544,665.738,183.544V607.162Z" transform="translate(1708.941 215.625)" fill="#b294fd" opacity="0.114"/>
        <path id="bigstock-drone-operated-by-construction-210455512" d="M4.552,537.44,358.823,152.484S475.984,32.535,551.3,13.008,713.094-12.1,950.2,54.851,2554.478,537.44,2554.478,537.44v279.79H0Z" transform="translate(458.105 56.256)" fill="#ee9c47"/>
        <path id="bigstock-drone-operated-by-construction-210455512-2" data-name="bigstock-drone-operated-by-construction-210455512" d="M4.552,537.44,358.823,152.484S475.984,32.535,551.3,13.008,713.094-12.1,950.2,54.851,2554.478,537.44,2554.478,537.44v279.79H0Z" transform="translate(458.106 76.255)" fill="#a50a2e"/>
        <path id="Path_8152" data-name="Path 8152" d="M-7,502.513,418.74,31.763s26.9-42.586,78.447-29.138,921.2,334.974,921.2,334.974V503.562Z" transform="translate(1594.092 389.659)" fill="#8e0928"/>
      </g>
    </g>
  </g>
</svg>
