<svg xmlns="http://www.w3.org/2000/svg" width="2063.102" height="837.25" viewBox="0 0 2063.102 837.25">
  <g id="Group_4029" data-name="Group 4029" transform="translate(2962.127 -2360.247)">
    <path id="Union_15" data-name="Union 15" d="M3.455,771.707.468,692.616H0V71.968H.766L3.455.748C48.759,0,98.857-.218,155.064.235,668.658,4.378,666.69,56.447,1180.285,60.589c457.387,3.689,512.864-36.544,881.4-42.592V71.968h.264V692.616h-.264v61.842c-368.539-6.048-424.016-46.282-881.4-42.592C666.69,716.009,668.658,768.078,155.064,772.22q-29.511.238-56.835.235C64.372,772.455,32.9,772.193,3.455,771.707Z" transform="translate(-2962 2360.247)" fill="#e6e6e6" opacity="0.4"/>
    <path id="Union_14" data-name="Union 14" d="M3.455,699.37.468,627.693H0V65.222H.766L3.455.678C48.759,0,98.857-.2,155.064.213,668.658,3.967,666.69,51.156,1180.285,54.91c457.387,3.343,512.864-33.118,881.4-38.6V65.222h.264V627.693h-.264v56.046c-368.539-5.481-424.016-41.943-881.4-38.6-513.594,3.754-511.627,50.943-1025.221,54.7q-29.511.216-56.835.213C64.372,700.048,32.9,699.81,3.455,699.37Z" transform="translate(-2962 2396.983)" fill="#e6e6e6" opacity="0.55"/>
    <g id="Group_4028" data-name="Group 4028" transform="translate(-899.59 3197.375) rotate(-180)">
      <path id="Path_630" data-name="Path 630" d="M0,145.733c577.119,80.671,638.318-381.21,1909.252,21.354" transform="translate(0 94.641)" fill="none" stroke="#d1d1d1" stroke-linecap="round" stroke-linejoin="round" stroke-width="1"/>
      <path id="Path_631" data-name="Path 631" d="M0,139.036C595.866,232.487,672.263-231.3,1912.737,158.45" transform="translate(1.457 94.837)" fill="none" stroke="#d1d1d1" stroke-linecap="round" stroke-linejoin="round" stroke-width="0.976"/>
      <path id="Path_632" data-name="Path 632" d="M0,132.459c614.616,106.23,706.212-359.471,1916.221,17.472" transform="translate(2.912 94.913)" fill="none" stroke="#d1d1d1" stroke-linecap="round" stroke-linejoin="round" stroke-width="0.952"/>
      <path id="Path_633" data-name="Path 633" d="M0,126.01c633.366,119.01,740.158-348.6,1919.707,15.532" transform="translate(4.368 94.862)" fill="none" stroke="#d1d1d1" stroke-linecap="round" stroke-linejoin="round" stroke-width="0.927"/>
      <path id="Path_634" data-name="Path 634" d="M0,119.7c652.113,131.79,774.1-337.733,1923.19,13.591" transform="translate(5.825 94.676)" fill="none" stroke="#d1d1d1" stroke-linecap="round" stroke-linejoin="round" stroke-width="0.903"/>
      <path id="Path_635" data-name="Path 635" d="M0,113.523c670.865,144.57,808.053-326.864,1926.676,11.65" transform="translate(7.28 94.347)" fill="none" stroke="#d1d1d1" stroke-linecap="round" stroke-linejoin="round" stroke-width="0.879"/>
      <path id="Path_636" data-name="Path 636" d="M0,107.505c689.614,157.349,842-315.995,1930.16,9.709" transform="translate(8.736 93.865)" fill="none" stroke="#d1d1d1" stroke-linecap="round" stroke-linejoin="round" stroke-width="0.855"/>
      <path id="Path_637" data-name="Path 637" d="M0,101.648c708.362,170.13,875.946-305.126,1933.644,7.769" transform="translate(10.193 93.221)" fill="none" stroke="#d1d1d1" stroke-linecap="round" stroke-linejoin="round" stroke-width="0.831"/>
      <path id="Path_638" data-name="Path 638" d="M0,95.962c727.112,182.91,909.894-294.256,1937.129,5.828" transform="translate(11.648 92.406)" fill="none" stroke="#d1d1d1" stroke-linecap="round" stroke-linejoin="round" stroke-width="0.806"/>
      <path id="Path_639" data-name="Path 639" d="M0,90.458c745.863,195.69,943.841-283.387,1940.615,3.887" transform="translate(13.103 91.41)" fill="none" stroke="#d1d1d1" stroke-linecap="round" stroke-linejoin="round" stroke-width="0.782"/>
      <path id="Path_640" data-name="Path 640" d="M0,85.144c764.611,208.469,977.787-272.518,1944.1,1.947" transform="translate(14.56 90.222)" fill="none" stroke="#d1d1d1" stroke-linecap="round" stroke-linejoin="round" stroke-width="0.758"/>
      <path id="Path_641" data-name="Path 641" d="M0,80.034c783.361,221.249,1011.734-261.649,1947.583.006" transform="translate(16.016 88.832)" fill="none" stroke="#d1d1d1" stroke-linecap="round" stroke-linejoin="round" stroke-width="0.734"/>
      <path id="Path_642" data-name="Path 642" d="M0,75.136C802.11,309.166,1045.682-175.644,1951.068,73.2" transform="translate(17.471 87.229)" fill="none" stroke="#d1d1d1" stroke-linecap="round" stroke-linejoin="round" stroke-width="0.71"/>
      <path id="Path_643" data-name="Path 643" d="M0,70.464c820.858,246.809,1079.628-239.911,1954.552-3.876" transform="translate(18.928 85.402)" fill="none" stroke="#d1d1d1" stroke-linecap="round" stroke-linejoin="round" stroke-width="0.685"/>
      <path id="Path_644" data-name="Path 644" d="M0,66.027C839.609,325.615,1113.575-163.015,1958.036,60.21" transform="translate(20.383 83.337)" fill="none" stroke="#d1d1d1" stroke-linecap="round" stroke-linejoin="round" stroke-width="0.661"/>
      <path id="Path_645" data-name="Path 645" d="M0,61.838c858.359,272.368,1147.523-218.173,1961.523-7.757" transform="translate(21.839 81.025)" fill="none" stroke="#d1d1d1" stroke-linecap="round" stroke-linejoin="round" stroke-width="0.637"/>
      <path id="Path_646" data-name="Path 646" d="M0,57.91c877.107,285.148,1181.468-207.3,1965-9.7" transform="translate(23.296 78.453)" fill="none" stroke="#d1d1d1" stroke-linecap="round" stroke-linejoin="round" stroke-width="0.613"/>
      <path id="Path_647" data-name="Path 647" d="M0,54.253C895.856,352.181,1215.416-142.181,1968.491,42.614" transform="translate(24.751 75.609)" fill="none" stroke="#d1d1d1" stroke-linecap="round" stroke-linejoin="round" stroke-width="0.589"/>
      <path id="Path_648" data-name="Path 648" d="M0,50.882C914.608,361.59,1249.365-134.683,1971.975,37.3" transform="translate(26.206 72.48)" fill="none" stroke="#d1d1d1" stroke-linecap="round" stroke-linejoin="round" stroke-width="0.565"/>
      <path id="Path_649" data-name="Path 649" d="M0,47.808c933.356,323.488,1283.309-174.7,1975.46-15.52" transform="translate(27.664 69.052)" fill="none" stroke="#d1d1d1" stroke-linecap="round" stroke-linejoin="round" stroke-width="0.54"/>
      <path id="Path_650" data-name="Path 650" d="M0,45.045C952.1,381.312,1317.258-118.782,1978.944,27.584" transform="translate(29.119 65.316)" fill="none" stroke="#d1d1d1" stroke-linecap="round" stroke-linejoin="round" stroke-width="0.516"/>
      <path id="Path_651" data-name="Path 651" d="M0,42.6C970.854,391.651,1351.206-110.354,1982.431,23.2" transform="translate(30.574 61.255)" fill="none" stroke="#d1d1d1" stroke-linecap="round" stroke-linejoin="round" stroke-width="0.492"/>
      <path id="Path_652" data-name="Path 652" d="M0,40.5C989.6,402.327,1385.151-101.588,1985.913,19.158" transform="translate(32.031 56.858)" fill="none" stroke="#d1d1d1" stroke-linecap="round" stroke-linejoin="round" stroke-width="0.468"/>
      <path id="Path_653" data-name="Path 653" d="M0,38.745C1008.354,413.352,1419.1-92.474,1989.4,15.462" transform="translate(33.487 52.113)" fill="none" stroke="#d1d1d1" stroke-linecap="round" stroke-linejoin="round" stroke-width="0.444"/>
      <path id="Path_654" data-name="Path 654" d="M0,37.353C1027.1,424.74,1453.046-83,1992.883,12.129" transform="translate(34.942 47.004)" fill="none" stroke="#d1d1d1" stroke-linecap="round" stroke-linejoin="round" stroke-width="0.419"/>
      <path id="Path_655" data-name="Path 655" d="M0,36.336C1045.851,436.5,1486.992-73.145,1996.368,9.171" transform="translate(36.399 41.52)" fill="none" stroke="#d1d1d1" stroke-linecap="round" stroke-linejoin="round" stroke-width="0.395"/>
      <path id="Path_656" data-name="Path 656" d="M0,35.709C1064.6,448.655,1520.94-62.9,1999.852,6.6" transform="translate(37.854 35.648)" fill="none" stroke="#d1d1d1" stroke-linecap="round" stroke-linejoin="round" stroke-width="0.371"/>
      <path id="Path_657" data-name="Path 657" d="M0,35.482C1083.352,461.208,1554.887-52.261,2003.338,4.435" transform="translate(39.31 29.373)" fill="none" stroke="#d1d1d1" stroke-linecap="round" stroke-linejoin="round" stroke-width="0.347"/>
      <path id="Path_658" data-name="Path 658" d="M0,35.669C1102.1,474.176,1588.833-41.2,2006.821,2.682" transform="translate(40.767 22.685)" fill="none" stroke="#d1d1d1" stroke-linecap="round" stroke-linejoin="round" stroke-width="0.323"/>
      <path id="Path_659" data-name="Path 659" d="M0,36.286c1120.849,451.286,1622.779-66,2010.307-34.928" transform="translate(42.222 15.568)" fill="none" stroke="#d1d1d1" stroke-linecap="round" stroke-linejoin="round" stroke-width="0.298"/>
      <path id="Path_660" data-name="Path 660" d="M0,37.342C1139.6,501.408,1656.728-17.793,2013.791.473" transform="translate(43.677 8.011)" fill="none" stroke="#d1d1d1" stroke-linecap="round" stroke-linejoin="round" stroke-width="0.274"/>
      <path id="Path_661" data-name="Path 661" d="M0,38.852C1158.347,515.7,1690.675-5.414,2017.275.043" transform="translate(45.135 0)" fill="none" stroke="#d1d1d1" stroke-linecap="round" stroke-linejoin="round" stroke-width="0.25"/>
    </g>
  </g>
</svg>
