<svg xmlns="http://www.w3.org/2000/svg" width="3016.022" height="845.07" viewBox="0 0 3016.022 845.07">
  <g id="Group_4025" data-name="Group 4025" transform="translate(-7586.608 -8979.563)">
    <g id="Group_4024" data-name="Group 4024" transform="translate(5 -42)">
      <g id="Group_4023" data-name="Group 4023" transform="translate(7585.047 8965.308)">
        <g id="Group_4026" data-name="Group 4026">
          <path id="Path_8148" data-name="Path 8148" d="M0,607.162,522.634,44.086s37.33-59.107,108.881-40.442,665.738,183.544,665.738,183.544V607.162Z" transform="translate(139.85 148.369)" fill="#ee9c47" opacity="0.114"/>
          <path id="Path_8149" data-name="Path 8149" d="M0,607.162,522.634,44.086s37.33-59.107,108.881-40.442,665.738,183.544,665.738,183.544V607.162Z" transform="translate(0 227.368)" fill="none" stroke="#a50a2e" stroke-width="3" opacity="0.598"/>
        </g>
        <path id="Path_8150" data-name="Path 8150" d="M0,607.162,522.634,44.086s37.33-59.107,108.881-40.442,665.738,183.544,665.738,183.544V607.162Z" transform="translate(1484.512 264.922)" fill="none" stroke="#ee9c47" stroke-width="3" opacity="0.667"/>
        <path id="Path_8151" data-name="Path 8151" d="M0,607.162,522.634,44.086s37.33-59.107,108.881-40.442,665.738,183.544,665.738,183.544V607.162Z" transform="translate(1708.941 215.625)" fill="#b294fd" opacity="0.114"/>
        <path id="bigstock-drone-operated-by-construction-210455512" d="M551.3,13.008C626.618-6.518,713.094-12.1,950.2,54.851S2554.478,537.44,2554.478,537.44v279.79l-3002.5,25.046S53.4,383.531,355.952,155.663C456.892,74.535,532.095,17.988,551.3,13.008Z" transform="translate(448.105 56.256)" fill="#ee9c47"/>
        <path id="bigstock-drone-operated-by-construction-210455512-2" data-name="bigstock-drone-operated-by-construction-210455512" d="M546.668,13c74.976-19.521,161.06-25.1,397.1,41.831S2540.772,537.289,2540.772,537.289V817l-3012.583,8.07S471.692,32.526,546.668,13Z" transform="translate(471.811 76.255)" fill="#a50a2e"/>
        <path id="Path_8152" data-name="Path 8152" d="M-7,502.513,418.74,31.763s26.9-42.586,78.447-29.138,921.2,334.974,921.2,334.974V503.562Z" transform="translate(1594.092 389.659)" fill="#8e0928"/>
      </g>
    </g>
  </g>
</svg>
