<svg xmlns="http://www.w3.org/2000/svg" width="18.631" height="12.426" viewBox="0 0 18.631 12.426">
  <path id="Icon_ionic-ios-arrow-round-forward" data-name="Icon ionic-ios-arrow-round-forward" d="M19.756,11.49a.846.846,0,0,0-.006,1.191l3.935,3.941H8.71a.841.841,0,0,0,0,1.683H23.678l-3.935,3.941a.852.852,0,0,0,.006,1.191.838.838,0,0,0,1.184-.006l5.332-5.371h0a.945.945,0,0,0,.175-.265.8.8,0,0,0,.065-.324.844.844,0,0,0-.239-.589l-5.332-5.371A.824.824,0,0,0,19.756,11.49Z" transform="translate(26.506 23.678) rotate(180)" fill="#fff"/>
</svg>
