<svg xmlns="http://www.w3.org/2000/svg" width="416" height="386" viewBox="0 0 416 386">
  <g id="Group_1884" data-name="Group 1884" transform="translate(266 -1200)">
    <g id="Group_1845" data-name="Group 1845" transform="translate(-266 1428.158)" opacity="0.482">
      <g id="Group_1781" data-name="Group 1781" transform="translate(0 0)">
        <ellipse id="Ellipse_55" data-name="Ellipse 55" cx="7.5" cy="8" rx="7.5" ry="8" transform="translate(0 -0.158)" fill="#f7f7f7"/>
        <ellipse id="Ellipse_56" data-name="Ellipse 56" cx="7.5" cy="8" rx="7.5" ry="8" transform="translate(0 27.842)" fill="#f7f7f7"/>
        <ellipse id="Ellipse_57" data-name="Ellipse 57" cx="7.5" cy="8" rx="7.5" ry="8" transform="translate(0 55.842)" fill="#f7f7f7"/>
        <circle id="Ellipse_58" data-name="Ellipse 58" cx="7.5" cy="7.5" r="7.5" transform="translate(0 85.842)" fill="#f7f7f7"/>
        <circle id="Ellipse_59" data-name="Ellipse 59" cx="7.5" cy="7.5" r="7.5" transform="translate(0 113.842)" fill="#f7f7f7"/>
        <ellipse id="Ellipse_60" data-name="Ellipse 60" cx="7.5" cy="8" rx="7.5" ry="8" transform="translate(0 141.842)" fill="#f7f7f7"/>
      </g>
      <g id="Group_1782" data-name="Group 1782" transform="translate(44.284 0)">
        <ellipse id="Ellipse_55-2" data-name="Ellipse 55" cx="8.5" cy="8" rx="8.5" ry="8" transform="translate(-0.284 -0.158)" fill="#f7f7f7"/>
        <ellipse id="Ellipse_56-2" data-name="Ellipse 56" cx="8.5" cy="8" rx="8.5" ry="8" transform="translate(-0.284 27.842)" fill="#f7f7f7"/>
        <ellipse id="Ellipse_57-2" data-name="Ellipse 57" cx="8.5" cy="8" rx="8.5" ry="8" transform="translate(-0.284 55.842)" fill="#f7f7f7"/>
        <ellipse id="Ellipse_58-2" data-name="Ellipse 58" cx="8.5" cy="7.5" rx="8.5" ry="7.5" transform="translate(-0.284 85.842)" fill="#f7f7f7"/>
        <ellipse id="Ellipse_59-2" data-name="Ellipse 59" cx="8.5" cy="7.5" rx="8.5" ry="7.5" transform="translate(-0.284 113.842)" fill="#f7f7f7"/>
        <ellipse id="Ellipse_60-2" data-name="Ellipse 60" cx="8.5" cy="8" rx="8.5" ry="8" transform="translate(-0.284 141.842)" fill="#f7f7f7"/>
      </g>
      <g id="Group_1783" data-name="Group 1783" transform="translate(88.567 0)">
        <ellipse id="Ellipse_55-3" data-name="Ellipse 55" cx="7.5" cy="8" rx="7.5" ry="8" transform="translate(0.433 -0.158)" fill="#f7f7f7"/>
        <ellipse id="Ellipse_56-3" data-name="Ellipse 56" cx="7.5" cy="8" rx="7.5" ry="8" transform="translate(0.433 27.842)" fill="#f7f7f7"/>
        <ellipse id="Ellipse_57-3" data-name="Ellipse 57" cx="7.5" cy="8" rx="7.5" ry="8" transform="translate(0.433 55.842)" fill="#f7f7f7"/>
        <circle id="Ellipse_58-3" data-name="Ellipse 58" cx="7.5" cy="7.5" r="7.5" transform="translate(0.433 85.842)" fill="#f7f7f7"/>
        <circle id="Ellipse_59-3" data-name="Ellipse 59" cx="7.5" cy="7.5" r="7.5" transform="translate(0.433 113.842)" fill="#f7f7f7"/>
        <ellipse id="Ellipse_60-3" data-name="Ellipse 60" cx="7.5" cy="8" rx="7.5" ry="8" transform="translate(0.433 141.842)" fill="#f7f7f7"/>
      </g>
      <g id="Group_1784" data-name="Group 1784" transform="translate(132.851 0)">
        <circle id="Ellipse_55-4" data-name="Ellipse 55" cx="8" cy="8" r="8" transform="translate(0.148 -0.158)" fill="#f7f7f7"/>
        <circle id="Ellipse_56-4" data-name="Ellipse 56" cx="8" cy="8" r="8" transform="translate(0.148 27.842)" fill="#f7f7f7"/>
        <circle id="Ellipse_57-4" data-name="Ellipse 57" cx="8" cy="8" r="8" transform="translate(0.148 55.842)" fill="#f7f7f7"/>
        <ellipse id="Ellipse_58-4" data-name="Ellipse 58" cx="8" cy="7.5" rx="8" ry="7.5" transform="translate(0.148 85.842)" fill="#f7f7f7"/>
        <ellipse id="Ellipse_59-4" data-name="Ellipse 59" cx="8" cy="7.5" rx="8" ry="7.5" transform="translate(0.148 113.842)" fill="#f7f7f7"/>
        <circle id="Ellipse_60-4" data-name="Ellipse 60" cx="8" cy="8" r="8" transform="translate(0.148 141.842)" fill="#f7f7f7"/>
      </g>
      <g id="Group_1785" data-name="Group 1785" transform="translate(177.135 0)">
        <ellipse id="Ellipse_55-5" data-name="Ellipse 55" cx="8.5" cy="8" rx="8.5" ry="8" transform="translate(-0.135 -0.158)" fill="#f7f7f7"/>
        <ellipse id="Ellipse_56-5" data-name="Ellipse 56" cx="8.5" cy="8" rx="8.5" ry="8" transform="translate(-0.135 27.842)" fill="#f7f7f7"/>
        <ellipse id="Ellipse_57-5" data-name="Ellipse 57" cx="8.5" cy="8" rx="8.5" ry="8" transform="translate(-0.135 55.842)" fill="#f7f7f7"/>
        <ellipse id="Ellipse_58-5" data-name="Ellipse 58" cx="8.5" cy="7.5" rx="8.5" ry="7.5" transform="translate(-0.135 85.842)" fill="#f7f7f7"/>
        <ellipse id="Ellipse_59-5" data-name="Ellipse 59" cx="8.5" cy="7.5" rx="8.5" ry="7.5" transform="translate(-0.135 113.842)" fill="#f7f7f7"/>
        <ellipse id="Ellipse_60-5" data-name="Ellipse 60" cx="8.5" cy="8" rx="8.5" ry="8" transform="translate(-0.135 141.842)" fill="#f7f7f7"/>
      </g>
      <g id="Group_1786" data-name="Group 1786" transform="translate(221.418 0)">
        <ellipse id="Ellipse_55-6" data-name="Ellipse 55" cx="8.5" cy="8" rx="8.5" ry="8" transform="translate(-0.419 -0.158)" fill="#f7f7f7"/>
        <ellipse id="Ellipse_56-6" data-name="Ellipse 56" cx="8.5" cy="8" rx="8.5" ry="8" transform="translate(-0.419 27.842)" fill="#f7f7f7"/>
        <ellipse id="Ellipse_57-6" data-name="Ellipse 57" cx="8.5" cy="8" rx="8.5" ry="8" transform="translate(-0.419 55.842)" fill="#f7f7f7"/>
        <ellipse id="Ellipse_58-6" data-name="Ellipse 58" cx="8.5" cy="7.5" rx="8.5" ry="7.5" transform="translate(-0.419 85.842)" fill="#f7f7f7"/>
        <ellipse id="Ellipse_59-6" data-name="Ellipse 59" cx="8.5" cy="7.5" rx="8.5" ry="7.5" transform="translate(-0.419 113.842)" fill="#f7f7f7"/>
        <ellipse id="Ellipse_60-6" data-name="Ellipse 60" cx="8.5" cy="8" rx="8.5" ry="8" transform="translate(-0.419 141.842)" fill="#f7f7f7"/>
      </g>
      <g id="Group_1787" data-name="Group 1787" transform="translate(266.666 0)">
        <ellipse id="Ellipse_55-7" data-name="Ellipse 55" cx="7.5" cy="8" rx="7.5" ry="8" transform="translate(0.334 -0.158)" fill="#f7f7f7"/>
        <ellipse id="Ellipse_56-7" data-name="Ellipse 56" cx="7.5" cy="8" rx="7.5" ry="8" transform="translate(0.334 27.842)" fill="#f7f7f7"/>
        <ellipse id="Ellipse_57-7" data-name="Ellipse 57" cx="7.5" cy="8" rx="7.5" ry="8" transform="translate(0.334 55.842)" fill="#f7f7f7"/>
        <circle id="Ellipse_58-7" data-name="Ellipse 58" cx="7.5" cy="7.5" r="7.5" transform="translate(0.334 85.842)" fill="#f7f7f7"/>
        <circle id="Ellipse_59-7" data-name="Ellipse 59" cx="7.5" cy="7.5" r="7.5" transform="translate(0.334 113.842)" fill="#f7f7f7"/>
        <ellipse id="Ellipse_60-7" data-name="Ellipse 60" cx="7.5" cy="8" rx="7.5" ry="8" transform="translate(0.334 141.842)" fill="#f7f7f7"/>
      </g>
      <g id="Group_1788" data-name="Group 1788" transform="translate(309.987 0)">
        <ellipse id="Ellipse_55-8" data-name="Ellipse 55" cx="8.5" cy="8" rx="8.5" ry="8" transform="translate(0.013 -0.158)" fill="#f7f7f7"/>
        <ellipse id="Ellipse_56-8" data-name="Ellipse 56" cx="8.5" cy="8" rx="8.5" ry="8" transform="translate(0.013 27.842)" fill="#f7f7f7"/>
        <ellipse id="Ellipse_57-8" data-name="Ellipse 57" cx="8.5" cy="8" rx="8.5" ry="8" transform="translate(0.013 55.842)" fill="#f7f7f7"/>
        <ellipse id="Ellipse_58-8" data-name="Ellipse 58" cx="8.5" cy="7.5" rx="8.5" ry="7.5" transform="translate(0.013 85.842)" fill="#f7f7f7"/>
        <ellipse id="Ellipse_59-8" data-name="Ellipse 59" cx="8.5" cy="7.5" rx="8.5" ry="7.5" transform="translate(0.013 113.842)" fill="#f7f7f7"/>
        <ellipse id="Ellipse_60-8" data-name="Ellipse 60" cx="8.5" cy="8" rx="8.5" ry="8" transform="translate(0.013 141.842)" fill="#f7f7f7"/>
      </g>
      <g id="Group_1789" data-name="Group 1789" transform="translate(355.233 0)">
        <circle id="Ellipse_55-9" data-name="Ellipse 55" cx="8" cy="8" r="8" transform="translate(-0.233 -0.158)" fill="#f7f7f7"/>
        <circle id="Ellipse_56-9" data-name="Ellipse 56" cx="8" cy="8" r="8" transform="translate(-0.233 27.842)" fill="#f7f7f7"/>
        <circle id="Ellipse_57-9" data-name="Ellipse 57" cx="8" cy="8" r="8" transform="translate(-0.233 55.842)" fill="#f7f7f7"/>
        <ellipse id="Ellipse_58-9" data-name="Ellipse 58" cx="8" cy="7.5" rx="8" ry="7.5" transform="translate(-0.233 85.842)" fill="#f7f7f7"/>
        <ellipse id="Ellipse_59-9" data-name="Ellipse 59" cx="8" cy="7.5" rx="8" ry="7.5" transform="translate(-0.233 113.842)" fill="#f7f7f7"/>
        <circle id="Ellipse_60-9" data-name="Ellipse 60" cx="8" cy="8" r="8" transform="translate(-0.233 141.842)" fill="#f7f7f7"/>
      </g>
      <g id="Group_1790" data-name="Group 1790" transform="translate(399.517 0)">
        <circle id="Ellipse_55-10" data-name="Ellipse 55" cx="8" cy="8" r="8" transform="translate(0.483 -0.158)" fill="#f7f7f7"/>
        <circle id="Ellipse_56-10" data-name="Ellipse 56" cx="8" cy="8" r="8" transform="translate(0.483 27.842)" fill="#f7f7f7"/>
        <circle id="Ellipse_57-10" data-name="Ellipse 57" cx="8" cy="8" r="8" transform="translate(0.483 55.842)" fill="#f7f7f7"/>
        <ellipse id="Ellipse_58-10" data-name="Ellipse 58" cx="8" cy="7.5" rx="8" ry="7.5" transform="translate(0.483 85.842)" fill="#f7f7f7"/>
        <ellipse id="Ellipse_59-10" data-name="Ellipse 59" cx="8" cy="7.5" rx="8" ry="7.5" transform="translate(0.483 113.842)" fill="#f7f7f7"/>
        <circle id="Ellipse_60-10" data-name="Ellipse 60" cx="8" cy="8" r="8" transform="translate(0.483 141.842)" fill="#f7f7f7"/>
      </g>
    </g>
    <g id="Group_1846" data-name="Group 1846" transform="translate(-266 1372.321)" opacity="0.652">
      <ellipse id="Ellipse_55-11" data-name="Ellipse 55" cx="7.5" cy="8" rx="7.5" ry="8" transform="translate(0 -0.321)" fill="#f7f7f7"/>
      <ellipse id="Ellipse_56-11" data-name="Ellipse 56" cx="7.5" cy="8.5" rx="7.5" ry="8.5" transform="translate(0 27.679)" fill="#f7f7f7"/>
      <ellipse id="Ellipse_55-12" data-name="Ellipse 55" cx="8.5" cy="8" rx="8.5" ry="8" transform="translate(44 -0.321)" fill="#f7f7f7"/>
      <circle id="Ellipse_56-12" data-name="Ellipse 56" cx="8.5" cy="8.5" r="8.5" transform="translate(44 27.679)" fill="#f7f7f7"/>
      <ellipse id="Ellipse_55-13" data-name="Ellipse 55" cx="7.5" cy="8" rx="7.5" ry="8" transform="translate(89 -0.321)" fill="#f7f7f7"/>
      <ellipse id="Ellipse_56-13" data-name="Ellipse 56" cx="7.5" cy="8.5" rx="7.5" ry="8.5" transform="translate(89 27.679)" fill="#f7f7f7"/>
      <circle id="Ellipse_55-14" data-name="Ellipse 55" cx="8" cy="8" r="8" transform="translate(133 -0.321)" fill="#f7f7f7"/>
      <ellipse id="Ellipse_56-14" data-name="Ellipse 56" cx="8" cy="8.5" rx="8" ry="8.5" transform="translate(133 27.679)" fill="#f7f7f7"/>
      <ellipse id="Ellipse_55-15" data-name="Ellipse 55" cx="8.5" cy="8" rx="8.5" ry="8" transform="translate(177 -0.321)" fill="#f7f7f7"/>
      <circle id="Ellipse_56-15" data-name="Ellipse 56" cx="8.5" cy="8.5" r="8.5" transform="translate(177 27.679)" fill="#f7f7f7"/>
      <ellipse id="Ellipse_55-16" data-name="Ellipse 55" cx="8.5" cy="8" rx="8.5" ry="8" transform="translate(221 -0.321)" fill="#f7f7f7"/>
      <circle id="Ellipse_56-16" data-name="Ellipse 56" cx="8.5" cy="8.5" r="8.5" transform="translate(221 27.679)" fill="#f7f7f7"/>
      <ellipse id="Ellipse_55-17" data-name="Ellipse 55" cx="7.5" cy="8" rx="7.5" ry="8" transform="translate(267 -0.321)" fill="#f7f7f7"/>
      <ellipse id="Ellipse_56-17" data-name="Ellipse 56" cx="7.5" cy="8.5" rx="7.5" ry="8.5" transform="translate(267 27.679)" fill="#f7f7f7"/>
      <ellipse id="Ellipse_55-18" data-name="Ellipse 55" cx="8.5" cy="8" rx="8.5" ry="8" transform="translate(310 -0.321)" fill="#f7f7f7"/>
      <circle id="Ellipse_56-18" data-name="Ellipse 56" cx="8.5" cy="8.5" r="8.5" transform="translate(310 27.679)" fill="#f7f7f7"/>
      <circle id="Ellipse_55-19" data-name="Ellipse 55" cx="8" cy="8" r="8" transform="translate(355 -0.321)" fill="#f7f7f7"/>
      <ellipse id="Ellipse_56-19" data-name="Ellipse 56" cx="8" cy="8.5" rx="8" ry="8.5" transform="translate(355 27.679)" fill="#f7f7f7"/>
      <circle id="Ellipse_55-20" data-name="Ellipse 55" cx="8" cy="8" r="8" transform="translate(400 -0.321)" fill="#f7f7f7"/>
      <ellipse id="Ellipse_56-20" data-name="Ellipse 56" cx="8" cy="8.5" rx="8" ry="8.5" transform="translate(400 27.679)" fill="#f7f7f7"/>
    </g>
    <g id="Group_1811" data-name="Group 1811" transform="translate(-266 1200)" opacity="0.496">
      <g id="Group_1781-2" data-name="Group 1781" transform="translate(0)">
        <circle id="Ellipse_55-21" data-name="Ellipse 55" cx="7.5" cy="7.5" r="7.5" transform="translate(0)" fill="#f0f0f0"/>
        <ellipse id="Ellipse_56-21" data-name="Ellipse 56" cx="7.5" cy="8" rx="7.5" ry="8" transform="translate(0 28)" fill="#f0f0f0"/>
        <ellipse id="Ellipse_57-11" data-name="Ellipse 57" cx="7.5" cy="8" rx="7.5" ry="8" transform="translate(0 57)" fill="#f0f0f0"/>
        <circle id="Ellipse_58-11" data-name="Ellipse 58" cx="7.5" cy="7.5" r="7.5" transform="translate(0 86)" fill="#f0f0f0"/>
        <ellipse id="Ellipse_59-11" data-name="Ellipse 59" cx="7.5" cy="8" rx="7.5" ry="8" transform="translate(0 114)" fill="#f0f0f0"/>
        <ellipse id="Ellipse_60-11" data-name="Ellipse 60" cx="7.5" cy="8" rx="7.5" ry="8" transform="translate(0 142)" fill="#f0f0f0"/>
      </g>
      <g id="Group_1782-2" data-name="Group 1782" transform="translate(44.284)">
        <ellipse id="Ellipse_55-22" data-name="Ellipse 55" cx="8.5" cy="7.5" rx="8.5" ry="7.5" transform="translate(-0.284)" fill="#f0f0f0"/>
        <ellipse id="Ellipse_56-22" data-name="Ellipse 56" cx="8.5" cy="8" rx="8.5" ry="8" transform="translate(-0.284 28)" fill="#f0f0f0"/>
        <ellipse id="Ellipse_57-12" data-name="Ellipse 57" cx="8.5" cy="8" rx="8.5" ry="8" transform="translate(-0.284 57)" fill="#f0f0f0"/>
        <ellipse id="Ellipse_58-12" data-name="Ellipse 58" cx="8.5" cy="7.5" rx="8.5" ry="7.5" transform="translate(-0.284 86)" fill="#f0f0f0"/>
        <ellipse id="Ellipse_59-12" data-name="Ellipse 59" cx="8.5" cy="8" rx="8.5" ry="8" transform="translate(-0.284 114)" fill="#f0f0f0"/>
        <ellipse id="Ellipse_60-12" data-name="Ellipse 60" cx="8.5" cy="8" rx="8.5" ry="8" transform="translate(-0.284 142)" fill="#f0f0f0"/>
      </g>
      <g id="Group_1783-2" data-name="Group 1783" transform="translate(88.567)">
        <circle id="Ellipse_55-23" data-name="Ellipse 55" cx="7.5" cy="7.5" r="7.5" transform="translate(0.433)" fill="#f0f0f0"/>
        <ellipse id="Ellipse_56-23" data-name="Ellipse 56" cx="7.5" cy="8" rx="7.5" ry="8" transform="translate(0.433 28)" fill="#f0f0f0"/>
        <ellipse id="Ellipse_57-13" data-name="Ellipse 57" cx="7.5" cy="8" rx="7.5" ry="8" transform="translate(0.433 57)" fill="#f0f0f0"/>
        <circle id="Ellipse_58-13" data-name="Ellipse 58" cx="7.5" cy="7.5" r="7.5" transform="translate(0.433 86)" fill="#f0f0f0"/>
        <ellipse id="Ellipse_59-13" data-name="Ellipse 59" cx="7.5" cy="8" rx="7.5" ry="8" transform="translate(0.433 114)" fill="#f0f0f0"/>
        <ellipse id="Ellipse_60-13" data-name="Ellipse 60" cx="7.5" cy="8" rx="7.5" ry="8" transform="translate(0.433 142)" fill="#f0f0f0"/>
      </g>
      <g id="Group_1784-2" data-name="Group 1784" transform="translate(132.851)">
        <ellipse id="Ellipse_55-24" data-name="Ellipse 55" cx="8" cy="7.5" rx="8" ry="7.5" transform="translate(0.148)" fill="#f0f0f0"/>
        <circle id="Ellipse_56-24" data-name="Ellipse 56" cx="8" cy="8" r="8" transform="translate(0.148 28)" fill="#f0f0f0"/>
        <circle id="Ellipse_57-14" data-name="Ellipse 57" cx="8" cy="8" r="8" transform="translate(0.148 57)" fill="#f0f0f0"/>
        <ellipse id="Ellipse_58-14" data-name="Ellipse 58" cx="8" cy="7.5" rx="8" ry="7.5" transform="translate(0.148 86)" fill="#f0f0f0"/>
        <circle id="Ellipse_59-14" data-name="Ellipse 59" cx="8" cy="8" r="8" transform="translate(0.148 114)" fill="#f0f0f0"/>
        <circle id="Ellipse_60-14" data-name="Ellipse 60" cx="8" cy="8" r="8" transform="translate(0.148 142)" fill="#f0f0f0"/>
      </g>
      <g id="Group_1785-2" data-name="Group 1785" transform="translate(177.135)">
        <ellipse id="Ellipse_55-25" data-name="Ellipse 55" cx="8.5" cy="7.5" rx="8.5" ry="7.5" transform="translate(-0.135)" fill="#f0f0f0"/>
        <ellipse id="Ellipse_56-25" data-name="Ellipse 56" cx="8.5" cy="8" rx="8.5" ry="8" transform="translate(-0.135 28)" fill="#f0f0f0"/>
        <ellipse id="Ellipse_57-15" data-name="Ellipse 57" cx="8.5" cy="8" rx="8.5" ry="8" transform="translate(-0.135 57)" fill="#f0f0f0"/>
        <ellipse id="Ellipse_58-15" data-name="Ellipse 58" cx="8.5" cy="7.5" rx="8.5" ry="7.5" transform="translate(-0.135 86)" fill="#f0f0f0"/>
        <ellipse id="Ellipse_59-15" data-name="Ellipse 59" cx="8.5" cy="8" rx="8.5" ry="8" transform="translate(-0.135 114)" fill="#f0f0f0"/>
        <ellipse id="Ellipse_60-15" data-name="Ellipse 60" cx="8.5" cy="8" rx="8.5" ry="8" transform="translate(-0.135 142)" fill="#f0f0f0"/>
      </g>
      <g id="Group_1786-2" data-name="Group 1786" transform="translate(221.418)">
        <ellipse id="Ellipse_55-26" data-name="Ellipse 55" cx="8.5" cy="7.5" rx="8.5" ry="7.5" transform="translate(-0.419)" fill="#f0f0f0"/>
        <ellipse id="Ellipse_56-26" data-name="Ellipse 56" cx="8.5" cy="8" rx="8.5" ry="8" transform="translate(-0.419 28)" fill="#f0f0f0"/>
        <ellipse id="Ellipse_57-16" data-name="Ellipse 57" cx="8.5" cy="8" rx="8.5" ry="8" transform="translate(-0.419 57)" fill="#f0f0f0"/>
        <ellipse id="Ellipse_58-16" data-name="Ellipse 58" cx="8.5" cy="7.5" rx="8.5" ry="7.5" transform="translate(-0.419 86)" fill="#f0f0f0"/>
        <ellipse id="Ellipse_59-16" data-name="Ellipse 59" cx="8.5" cy="8" rx="8.5" ry="8" transform="translate(-0.419 114)" fill="#f0f0f0"/>
        <ellipse id="Ellipse_60-16" data-name="Ellipse 60" cx="8.5" cy="8" rx="8.5" ry="8" transform="translate(-0.419 142)" fill="#f0f0f0"/>
      </g>
      <g id="Group_1787-2" data-name="Group 1787" transform="translate(266.666)">
        <circle id="Ellipse_55-27" data-name="Ellipse 55" cx="7.5" cy="7.5" r="7.5" transform="translate(0.334)" fill="#f0f0f0"/>
        <ellipse id="Ellipse_56-27" data-name="Ellipse 56" cx="7.5" cy="8" rx="7.5" ry="8" transform="translate(0.334 28)" fill="#f0f0f0"/>
        <ellipse id="Ellipse_57-17" data-name="Ellipse 57" cx="7.5" cy="8" rx="7.5" ry="8" transform="translate(0.334 57)" fill="#f0f0f0"/>
        <circle id="Ellipse_58-17" data-name="Ellipse 58" cx="7.5" cy="7.5" r="7.5" transform="translate(0.334 86)" fill="#f0f0f0"/>
        <ellipse id="Ellipse_59-17" data-name="Ellipse 59" cx="7.5" cy="8" rx="7.5" ry="8" transform="translate(0.334 114)" fill="#f0f0f0"/>
        <ellipse id="Ellipse_60-17" data-name="Ellipse 60" cx="7.5" cy="8" rx="7.5" ry="8" transform="translate(0.334 142)" fill="#f0f0f0"/>
      </g>
      <g id="Group_1788-2" data-name="Group 1788" transform="translate(309.987)">
        <ellipse id="Ellipse_55-28" data-name="Ellipse 55" cx="8.5" cy="7.5" rx="8.5" ry="7.5" transform="translate(0.013)" fill="#f0f0f0"/>
        <ellipse id="Ellipse_56-28" data-name="Ellipse 56" cx="8.5" cy="8" rx="8.5" ry="8" transform="translate(0.013 28)" fill="#f0f0f0"/>
        <ellipse id="Ellipse_57-18" data-name="Ellipse 57" cx="8.5" cy="8" rx="8.5" ry="8" transform="translate(0.013 57)" fill="#f0f0f0"/>
        <ellipse id="Ellipse_58-18" data-name="Ellipse 58" cx="8.5" cy="7.5" rx="8.5" ry="7.5" transform="translate(0.013 86)" fill="#f0f0f0"/>
        <ellipse id="Ellipse_59-18" data-name="Ellipse 59" cx="8.5" cy="8" rx="8.5" ry="8" transform="translate(0.013 114)" fill="#f0f0f0"/>
        <ellipse id="Ellipse_60-18" data-name="Ellipse 60" cx="8.5" cy="8" rx="8.5" ry="8" transform="translate(0.013 142)" fill="#f0f0f0"/>
      </g>
      <g id="Group_1789-2" data-name="Group 1789" transform="translate(355.233)">
        <ellipse id="Ellipse_55-29" data-name="Ellipse 55" cx="8" cy="7.5" rx="8" ry="7.5" transform="translate(-0.233)" fill="#f0f0f0"/>
        <circle id="Ellipse_56-29" data-name="Ellipse 56" cx="8" cy="8" r="8" transform="translate(-0.233 28)" fill="#f0f0f0"/>
        <circle id="Ellipse_57-19" data-name="Ellipse 57" cx="8" cy="8" r="8" transform="translate(-0.233 57)" fill="#f0f0f0"/>
        <ellipse id="Ellipse_58-19" data-name="Ellipse 58" cx="8" cy="7.5" rx="8" ry="7.5" transform="translate(-0.233 86)" fill="#f0f0f0"/>
        <circle id="Ellipse_59-19" data-name="Ellipse 59" cx="8" cy="8" r="8" transform="translate(-0.233 114)" fill="#f0f0f0"/>
        <circle id="Ellipse_60-19" data-name="Ellipse 60" cx="8" cy="8" r="8" transform="translate(-0.233 142)" fill="#f0f0f0"/>
      </g>
      <g id="Group_1790-2" data-name="Group 1790" transform="translate(399.517)">
        <ellipse id="Ellipse_55-30" data-name="Ellipse 55" cx="8" cy="7.5" rx="8" ry="7.5" transform="translate(0.483)" fill="#f0f0f0"/>
        <circle id="Ellipse_56-30" data-name="Ellipse 56" cx="8" cy="8" r="8" transform="translate(0.483 28)" fill="#f0f0f0"/>
        <circle id="Ellipse_57-20" data-name="Ellipse 57" cx="8" cy="8" r="8" transform="translate(0.483 57)" fill="#f0f0f0"/>
        <ellipse id="Ellipse_58-20" data-name="Ellipse 58" cx="8" cy="7.5" rx="8" ry="7.5" transform="translate(0.483 86)" fill="#f0f0f0"/>
        <circle id="Ellipse_59-20" data-name="Ellipse 59" cx="8" cy="8" r="8" transform="translate(0.483 114)" fill="#f0f0f0"/>
        <circle id="Ellipse_60-20" data-name="Ellipse 60" cx="8" cy="8" r="8" transform="translate(0.483 142)" fill="#f0f0f0"/>
      </g>
    </g>
  </g>
</svg>
