<svg xmlns="http://www.w3.org/2000/svg" width="266.764" height="94.821" viewBox="0 0 266.764 94.821">
  <g id="Group_4022" data-name="Group 4022" transform="translate(-320.666 -420.532)">
    <g id="Group_3924" data-name="Group 3924" transform="translate(320.665 420.532)">
      <g id="Group_3922" data-name="Group 3922" transform="translate(107.856 0)">
        <g id="Group_3919" data-name="Group 3919" transform="translate(0 1.724)">
          <path id="Path_7958" data-name="Path 7958" d="M387.864,421.624h26.307c9.52,0,14.39,6.07,14.39,12.742,0,6.3-3.9,10.494-8.618,11.468,5.322.824,9.593,5.995,9.593,12.292,0,7.493-5.02,13.491-14.54,13.491H387.864Zm23.984,20.088c3.6,0,5.845-2.326,5.845-5.548,0-3.072-2.248-5.47-5.845-5.47H398.506v11.018Zm.374,20.835c4.046,0,6.444-2.322,6.444-5.92,0-3.148-2.248-5.846-6.444-5.846H398.506v11.766Z" transform="translate(-387.864 -421.624)" fill="#fff"/>
        </g>
        <g id="Group_3920" data-name="Group 3920" transform="translate(57.906 1.724)">
          <path id="Path_7959" data-name="Path 7959" d="M424.542,421.624h23.385c10.868,0,16.789,7.346,16.789,16.114,0,8.694-5.995,15.966-16.789,15.966H435.186v17.913H424.542ZM446.5,430.77H435.186V444.56H446.5c4.2,0,7.343-2.7,7.343-6.9C453.847,433.542,450.7,430.77,446.5,430.77Z" transform="translate(-424.542 -421.624)" fill="#fff"/>
        </g>
        <g id="Group_3921" data-name="Group 3921" transform="translate(111.389)">
          <path id="Path_7960" data-name="Path 7960" d="M458.419,446.39c0-15.365,11.616-25.858,26.233-25.858,11.392,0,17.763,6,21.286,12.218l-9.144,4.5a13.692,13.692,0,0,0-12.142-7.27c-8.7,0-15.29,6.97-15.29,16.414s6.594,16.414,15.29,16.414a13.554,13.554,0,0,0,12.142-7.27l9.144,4.422c-3.6,6.22-9.894,12.292-21.286,12.292C470.035,472.249,458.419,461.755,458.419,446.39Z" transform="translate(-458.419 -420.532)" fill="#fff"/>
        </g>
      </g>
      <path id="Path_7961" data-name="Path 7961" d="M365.438,421.624h-7.475v9.37h7.475c10.27,0,15.664,6.82,15.664,15.664,0,8.47-5.77,15.589-15.664,15.589h-7.475v9.37h7.475c15.664,0,26.533-9.894,26.533-24.959S381.1,421.624,365.438,421.624Z" transform="translate(-298.629 -419.9)" fill="#fff"/>
      <g id="Group_3923" data-name="Group 3923">
        <path id="Path_7962" data-name="Path 7962" d="M320.665,470.14,356.1,434.7V420.532l-35.436,35.441Z" transform="translate(-320.665 -420.532)" fill="#fff"/>
        <path id="Path_7963" data-name="Path 7963" d="M320.665,488.653,356.1,453.212V441.762L320.665,477.2Z" transform="translate(-320.665 -408.245)" fill="#fff"/>
        <path id="Path_7964" data-name="Path 7964" d="M330.39,469.31l35.441-35.437V421.966L330.39,457.407Z" transform="translate(-315.037 -419.702)" fill="#fff"/>
        <path id="Path_7965" data-name="Path 7965" d="M365.831,441.475,330.39,476.911v11.908l35.441-35.441Z" transform="translate(-315.037 -408.411)" fill="#fff"/>
      </g>
    </g>
    <g id="Group_4020" data-name="Group 4020" transform="translate(378.958 485.889)">
      <g id="Group_4020-2" data-name="Group 4020" transform="translate(1.176)">
        <path id="Path_8153" data-name="Path 8153" d="M406.768,311.071h2.253a4.293,4.293,0,1,1,0,8.586h-2.253Zm1.408,7.221h.731a2.928,2.928,0,1,0,0-5.854h-.731Z" transform="translate(-406.768 -310.649)" fill="#fff"/>
        <path id="Path_8154" data-name="Path 8154" d="M411.936,316.475v-5.4h1.408v5.32a1.811,1.811,0,1,0,3.6,0v-5.32h1.408v5.4a3.211,3.211,0,1,1-6.419,0Z" transform="translate(-403.743 -310.649)" fill="#fff"/>
        <path id="Path_8155" data-name="Path 8155" d="M417.477,311.071h2.392a2.461,2.461,0,0,1,2.744,2.365,1.951,1.951,0,0,1-1,1.745,2.032,2.032,0,0,1,1.224,1.928,2.587,2.587,0,0,1-2.828,2.548h-2.533Zm2.392,3.519c.8,0,1.281-.407,1.281-1.1s-.479-1.1-1.281-1.1h-.984v2.2Zm.057,3.743c.915,0,1.449-.477,1.449-1.252s-.534-1.238-1.449-1.238h-1.042v2.491Z" transform="translate(-400.5 -310.649)" fill="#fff"/>
        <path id="Path_8156" data-name="Path 8156" d="M426.966,318.462h-3.632l-.549,1.351h-1.463l3.856-9.008,3.843,9.008h-1.492Zm-1.829-4.448-1.267,3.11h2.548Z" transform="translate(-398.249 -310.805)" fill="#fff"/>
        <path id="Path_8157" data-name="Path 8157" d="M426.942,311.071h1.408v8.586h-1.408Z" transform="translate(-394.96 -310.649)" fill="#fff"/>
        <path id="Path_8158" data-name="Path 8158" d="M431.56,311.071h2.392a2.461,2.461,0,0,1,2.744,2.365,1.951,1.951,0,0,1-1,1.745,2.032,2.032,0,0,1,1.224,1.928,2.587,2.587,0,0,1-2.828,2.548H431.56Zm2.392,3.519c.8,0,1.281-.407,1.281-1.1s-.479-1.1-1.281-1.1h-.986v2.2Zm.055,3.743c.916,0,1.451-.477,1.451-1.252s-.534-1.238-1.451-1.238h-1.042v2.491Z" transform="translate(-392.257 -310.649)" fill="#fff"/>
        <path id="Path_8159" data-name="Path 8159" d="M436.133,316.475v-5.4h1.406v5.32a1.811,1.811,0,1,0,3.6,0v-5.32h1.408v5.4a3.211,3.211,0,1,1-6.417,0Z" transform="translate(-389.58 -310.649)" fill="#fff"/>
        <path id="Path_8160" data-name="Path 8160" d="M441.673,311.071h1.408v8.586h-1.408Z" transform="translate(-386.338 -310.649)" fill="#fff"/>
        <path id="Path_8161" data-name="Path 8161" d="M444.16,311.071h1.408v7.221h2.617l.239,1.365H444.16Z" transform="translate(-384.882 -310.649)" fill="#fff"/>
        <path id="Path_8162" data-name="Path 8162" d="M447.791,311.071h2.253a4.293,4.293,0,1,1,0,8.586h-2.253Zm1.408,7.221h.732a2.928,2.928,0,1,0,0-5.854H449.2Z" transform="translate(-382.757 -310.649)" fill="#fff"/>
        <path id="Path_8163" data-name="Path 8163" d="M453.066,311.071h1.408v8.586h-1.408Z" transform="translate(-379.669 -310.649)" fill="#fff"/>
        <path id="Path_8164" data-name="Path 8164" d="M456.905,314.347v5.461h-1.379v-9l5.347,5.87v-5.461h1.381v8.993Z" transform="translate(-378.229 -310.8)" fill="#fff"/>
        <path id="Path_8165" data-name="Path 8165" d="M465.2,319.657a4.293,4.293,0,1,1,0-8.586h1.661l-.239,1.367H465.31a2.928,2.928,0,1,0,0,5.854h.732V315.97h-1.479l.239-1.367h2.646v5.054Z" transform="translate(-375.106 -310.649)" fill="#fff"/>
        <path id="Path_8166" data-name="Path 8166" d="M469.976,317.517v2.14H468.57v-8.586h2.069a3.223,3.223,0,1,1,0,6.446Zm0-5.079v3.716h.577a1.735,1.735,0,0,0,1.872-1.888,1.717,1.717,0,0,0-1.872-1.828Z" transform="translate(-370.594 -310.649)" fill="#fff"/>
        <path id="Path_8167" data-name="Path 8167" d="M473.027,311.071h4.264l-.239,1.367h-2.617V314.6h2.617v1.367h-2.617v2.322h2.617l.239,1.365h-4.264Z" transform="translate(-367.986 -310.649)" fill="#fff"/>
        <path id="Path_8168" data-name="Path 8168" d="M478.493,316.461v3.2h-1.408v-8.586h2.153a2.8,2.8,0,0,1,3.055,2.957,2.669,2.669,0,0,1-1.928,2.673l2.167,2.957H480.8Zm0-4.023v3.293h.493c1.2,0,1.844-.62,1.844-1.647a1.552,1.552,0,0,0-1.676-1.646Z" transform="translate(-365.611 -310.649)" fill="#fff"/>
        <path id="Path_8169" data-name="Path 8169" d="M482.984,314.309v5.5h-1.379v-9.008l4.123,4.645,4.125-4.645v9.008h-1.381v-5.5l-2.773,3.069Z" transform="translate(-362.965 -310.805)" fill="#fff"/>
        <path id="Path_8170" data-name="Path 8170" d="M488.38,311.071h1.408v8.586H488.38Z" transform="translate(-358.999 -310.649)" fill="#fff"/>
        <path id="Path_8171" data-name="Path 8171" d="M493.71,312.438v7.219H492.3v-7.219H490.43l-.239-1.367h5.631l-.239,1.367Z" transform="translate(-357.939 -310.649)" fill="#fff"/>
        <path id="Path_8172" data-name="Path 8172" d="M496.371,317.054a3.653,3.653,0,0,1,2-2.957l.507-.338-1.872-2.689h5.785l-.239,1.367h-2.914l5.04,7.219h-1.69l-.843-1.211-.493.366a4.162,4.162,0,0,1-2.519.986A2.691,2.691,0,0,1,496.371,317.054Zm4.532.647.464-.352-1.731-2.491-.506.338a2.374,2.374,0,0,0-1.3,1.858,1.313,1.313,0,0,0,1.351,1.336A2.594,2.594,0,0,0,500.9,317.7Z" transform="translate(-354.322 -310.649)" fill="#fff"/>
        <path id="Path_8173" data-name="Path 8173" d="M503.883,315.336a4.053,4.053,0,0,1,4.336-4.264h1.042l-.239,1.367h-.69a2.928,2.928,0,1,0,0,5.854h.69l.239,1.365h-1.042A4.068,4.068,0,0,1,503.883,315.336Z" transform="translate(-349.925 -310.649)" fill="#fff"/>
        <path id="Path_8174" data-name="Path 8174" d="M507.826,315.388a4.406,4.406,0,1,1,8.811,0,4.406,4.406,0,1,1-8.811,0Zm7.348,0a2.944,2.944,0,1,0-2.942,3.055A2.869,2.869,0,0,0,515.174,315.388Z" transform="translate(-347.617 -310.701)" fill="#fff"/>
        <path id="Path_8175" data-name="Path 8175" d="M515.856,314.347v5.461h-1.379v-9l5.349,5.87v-5.461h1.379v8.993Z" transform="translate(-343.724 -310.8)" fill="#fff"/>
        <path id="Path_8176" data-name="Path 8176" d="M523.138,312.438v7.219H521.73v-7.219h-1.872l-.239-1.367h5.629l-.239,1.367Z" transform="translate(-340.715 -310.649)" fill="#fff"/>
        <path id="Path_8177" data-name="Path 8177" d="M525.5,316.461v3.2h-1.408v-8.586h2.154a2.8,2.8,0,0,1,3.053,2.957,2.668,2.668,0,0,1-1.928,2.673l2.167,2.957h-1.731Zm0-4.023v3.293h.493c1.2,0,1.844-.62,1.844-1.647a1.551,1.551,0,0,0-1.676-1.646Z" transform="translate(-338.096 -310.649)" fill="#fff"/>
        <path id="Path_8178" data-name="Path 8178" d="M528.16,315.388a4.406,4.406,0,1,1,8.811,0,4.406,4.406,0,1,1-8.811,0Zm7.348,0a2.944,2.944,0,1,0-2.942,3.055A2.869,2.869,0,0,0,535.508,315.388Z" transform="translate(-335.716 -310.701)" fill="#fff"/>
        <path id="Path_8179" data-name="Path 8179" d="M534.837,311.071h1.408v7.221h2.619l.239,1.365h-4.266Z" transform="translate(-331.807 -310.649)" fill="#fff"/>
      </g>
      <g id="Group_4021" data-name="Group 4021" transform="translate(0 16.598)">
        <path id="Path_8180" data-name="Path 8180" d="M406.854,326.965a1.728,1.728,0,0,1-.212-.474,2.053,2.053,0,0,1-.079-.6,2.2,2.2,0,0,1,.116-.693,1.76,1.76,0,0,1,.365-.633,1.9,1.9,0,0,1,.637-.457,2.3,2.3,0,0,1,.95-.176,2.256,2.256,0,0,1,.967.2,1.67,1.67,0,0,1,.674.541c.033.049.044.086.036.109a.316.316,0,0,1-.036.073l-.51.5a.132.132,0,0,1-.2,0,1.834,1.834,0,0,0-.419-.3,1.084,1.084,0,0,0-.506-.116.869.869,0,0,0-.68.268.993.993,0,0,0-.244.693,1.177,1.177,0,0,0,.177.645,1.484,1.484,0,0,0,.358.412H410.3c.081,0,.121.046.121.135v.753c0,.089-.04.135-.121.135h-4.147c-.081,0-.122-.046-.122-.135V327.1c0-.089.041-.135.122-.135Z" transform="translate(-406.026 -319.717)" fill="#fff"/>
        <path id="Path_8181" data-name="Path 8181" d="M409.486,321.4a.107.107,0,0,1,.12-.122h1.132a.107.107,0,0,1,.12.122v6.3a.707.707,0,0,0,.141.5.6.6,0,0,0,.444.139h.425a.457.457,0,0,1,.365.141.733.733,0,0,1,.122.48.676.676,0,0,1-.116.48.555.555,0,0,1-.371.1h-.961a1.4,1.4,0,0,1-1.094-.371,1.721,1.721,0,0,1-.328-1.162Z" transform="translate(-404.001 -321.275)" fill="#fff"/>
        <path id="Path_8182" data-name="Path 8182" d="M411.146,326.937a.4.4,0,0,1-.335-.122.8.8,0,0,1-.09-.45,1.027,1.027,0,0,1,.084-.5.378.378,0,0,1,.341-.135H412.6a.474.474,0,0,1,.366.135.685.685,0,0,1,.12.461.727.727,0,0,1-.116.493.509.509,0,0,1-.371.116Z" transform="translate(-403.278 -318.666)" fill="#fff"/>
        <path id="Path_8183" data-name="Path 8183" d="M412.066,326.937a.392.392,0,0,1-.333-.122.784.784,0,0,1-.092-.45,1,1,0,0,1,.086-.5.374.374,0,0,1,.339-.135h1.46a.47.47,0,0,1,.365.135.685.685,0,0,1,.122.461.736.736,0,0,1-.116.493.514.514,0,0,1-.371.116Z" transform="translate(-402.739 -318.666)" fill="#fff"/>
        <path id="Path_8184" data-name="Path 8184" d="M412.987,326.937a.4.4,0,0,1-.334-.122.8.8,0,0,1-.092-.45,1,1,0,0,1,.086-.5.376.376,0,0,1,.341-.135h1.459a.468.468,0,0,1,.365.135.676.676,0,0,1,.122.461.727.727,0,0,1-.116.493.509.509,0,0,1-.371.116Z" transform="translate(-402.201 -318.666)" fill="#fff"/>
        <path id="Path_8185" data-name="Path 8185" d="M413.907,326.937a.4.4,0,0,1-.335-.122.8.8,0,0,1-.09-.45,1,1,0,0,1,.086-.5.373.373,0,0,1,.339-.135h1.46a.47.47,0,0,1,.365.135.685.685,0,0,1,.122.461.736.736,0,0,1-.116.493.515.515,0,0,1-.371.116Z" transform="translate(-401.662 -318.666)" fill="#fff"/>
        <path id="Path_8186" data-name="Path 8186" d="M414.828,326.937a.4.4,0,0,1-.334-.122.8.8,0,0,1-.092-.45,1,1,0,0,1,.086-.5.376.376,0,0,1,.341-.135h1.458a.468.468,0,0,1,.365.135.685.685,0,0,1,.122.461.727.727,0,0,1-.116.493.509.509,0,0,1-.371.116Z" transform="translate(-401.123 -318.666)" fill="#fff"/>
        <path id="Path_8187" data-name="Path 8187" d="M415.748,326.937a.4.4,0,0,1-.334-.122.8.8,0,0,1-.09-.45,1.027,1.027,0,0,1,.084-.5.378.378,0,0,1,.341-.135h1.46a.47.47,0,0,1,.365.135.685.685,0,0,1,.122.461.736.736,0,0,1-.116.493.515.515,0,0,1-.371.116Z" transform="translate(-400.584 -318.666)" fill="#fff"/>
        <path id="Path_8188" data-name="Path 8188" d="M416.669,326.937a.393.393,0,0,1-.334-.122.784.784,0,0,1-.092-.45,1,1,0,0,1,.086-.5.376.376,0,0,1,.341-.135h1.459a.47.47,0,0,1,.365.135.685.685,0,0,1,.122.461.727.727,0,0,1-.116.493.515.515,0,0,1-.371.116Z" transform="translate(-400.046 -318.666)" fill="#fff"/>
        <path id="Path_8189" data-name="Path 8189" d="M417.589,326.937a.4.4,0,0,1-.334-.122.8.8,0,0,1-.09-.45,1.027,1.027,0,0,1,.084-.5.377.377,0,0,1,.341-.135h1.46a.47.47,0,0,1,.365.135.686.686,0,0,1,.12.461.737.737,0,0,1-.114.493.515.515,0,0,1-.371.116Z" transform="translate(-399.507 -318.666)" fill="#fff"/>
        <path id="Path_8190" data-name="Path 8190" d="M418.51,326.937a.393.393,0,0,1-.335-.122.784.784,0,0,1-.092-.45,1,1,0,0,1,.086-.5.376.376,0,0,1,.341-.135h1.458a.47.47,0,0,1,.365.135.685.685,0,0,1,.122.461.727.727,0,0,1-.116.493.514.514,0,0,1-.371.116Z" transform="translate(-398.968 -318.666)" fill="#fff"/>
        <path id="Path_8191" data-name="Path 8191" d="M419.43,326.937a.4.4,0,0,1-.335-.122.8.8,0,0,1-.09-.45,1.026,1.026,0,0,1,.084-.5.377.377,0,0,1,.341-.135h1.46a.473.473,0,0,1,.365.135.685.685,0,0,1,.12.461.727.727,0,0,1-.116.493.508.508,0,0,1-.369.116Z" transform="translate(-398.429 -318.666)" fill="#fff"/>
        <path id="Path_8192" data-name="Path 8192" d="M420.35,326.937a.4.4,0,0,1-.334-.122.8.8,0,0,1-.09-.45,1,1,0,0,1,.086-.5.373.373,0,0,1,.339-.135h1.46a.47.47,0,0,1,.365.135.685.685,0,0,1,.122.461.736.736,0,0,1-.116.493.514.514,0,0,1-.371.116Z" transform="translate(-397.891 -318.666)" fill="#fff"/>
        <path id="Path_8193" data-name="Path 8193" d="M421.271,326.937a.4.4,0,0,1-.334-.122.8.8,0,0,1-.092-.45,1,1,0,0,1,.086-.5.378.378,0,0,1,.341-.135h1.458a.474.474,0,0,1,.366.135.685.685,0,0,1,.12.461.727.727,0,0,1-.116.493.51.51,0,0,1-.371.116Z" transform="translate(-397.352 -318.666)" fill="#fff"/>
        <path id="Path_8194" data-name="Path 8194" d="M422.191,326.937a.4.4,0,0,1-.335-.122.8.8,0,0,1-.09-.45,1,1,0,0,1,.086-.5.373.373,0,0,1,.339-.135h1.46a.47.47,0,0,1,.365.135.685.685,0,0,1,.122.461.736.736,0,0,1-.116.493.515.515,0,0,1-.371.116Z" transform="translate(-396.813 -318.666)" fill="#fff"/>
        <path id="Path_8195" data-name="Path 8195" d="M423.112,326.937a.4.4,0,0,1-.335-.122.8.8,0,0,1-.092-.45,1,1,0,0,1,.086-.5.376.376,0,0,1,.341-.135h1.458a.468.468,0,0,1,.365.135.685.685,0,0,1,.122.461.727.727,0,0,1-.116.493.509.509,0,0,1-.371.116Z" transform="translate(-396.275 -318.666)" fill="#fff"/>
        <path id="Path_8196" data-name="Path 8196" d="M424.032,326.937a.4.4,0,0,1-.334-.122.8.8,0,0,1-.09-.45,1.027,1.027,0,0,1,.084-.5.378.378,0,0,1,.341-.135h1.46a.47.47,0,0,1,.365.135.685.685,0,0,1,.122.461.736.736,0,0,1-.116.493.515.515,0,0,1-.371.116Z" transform="translate(-395.736 -318.666)" fill="#fff"/>
        <path id="Path_8197" data-name="Path 8197" d="M424.953,326.937a.393.393,0,0,1-.334-.122.784.784,0,0,1-.092-.45,1,1,0,0,1,.086-.5.376.376,0,0,1,.341-.135h1.459a.47.47,0,0,1,.365.135.685.685,0,0,1,.122.461.727.727,0,0,1-.116.493.512.512,0,0,1-.371.116Z" transform="translate(-395.197 -318.666)" fill="#fff"/>
        <path id="Path_8198" data-name="Path 8198" d="M425.873,326.937a.4.4,0,0,1-.335-.122.8.8,0,0,1-.09-.45,1.027,1.027,0,0,1,.084-.5.378.378,0,0,1,.341-.135h1.46a.47.47,0,0,1,.365.135.685.685,0,0,1,.12.461.737.737,0,0,1-.114.493.515.515,0,0,1-.371.116Z" transform="translate(-394.658 -318.666)" fill="#fff"/>
        <path id="Path_8199" data-name="Path 8199" d="M429.409,327.323a.641.641,0,0,0,.273.558,1.244,1.244,0,0,0,.736.2h.208a.47.47,0,0,1,.365.135.66.66,0,0,1,.122.449.766.766,0,0,1-.116.487.469.469,0,0,1-.371.135,2.7,2.7,0,0,1-.828-.116.983.983,0,0,1-.56-.506.927.927,0,0,1-.5.487,2.55,2.55,0,0,1-.918.135h-.961a.68.68,0,0,1-.365-.079.4.4,0,0,1-.122-.347,1.211,1.211,0,0,1,.116-.541.4.4,0,0,1,.384-.238h.583a.754.754,0,0,0,.328-.06.361.361,0,0,0,.176-.195,1.1,1.1,0,0,0,.067-.354c.008-.144.013-.322.013-.534v-2.578a.108.108,0,0,1,.122-.122h1.13a.108.108,0,0,1,.122.122Zm-1.265-4.306a.108.108,0,0,1-.122-.122V321.85a.108.108,0,0,1,.122-.122h1.167a.108.108,0,0,1,.122.122v1.045a.108.108,0,0,1-.122.122Z" transform="translate(-394.12 -321.01)" fill="#fff"/>
        <path id="Path_8200" data-name="Path 8200" d="M431.787,326.4a.641.641,0,0,0,.273.558,1.244,1.244,0,0,0,.736.2H433a.47.47,0,0,1,.365.135.661.661,0,0,1,.12.449.767.767,0,0,1-.114.487.469.469,0,0,1-.371.135,2.687,2.687,0,0,1-.828-.116.983.983,0,0,1-.56-.506.928.928,0,0,1-.5.487,2.55,2.55,0,0,1-.918.135h-.961a.681.681,0,0,1-.365-.079.4.4,0,0,1-.122-.347,1.21,1.21,0,0,1,.116-.541.394.394,0,0,1,.382-.238h.585a.753.753,0,0,0,.328-.06.361.361,0,0,0,.176-.195,1.1,1.1,0,0,0,.067-.354c.008-.144.013-.322.013-.534V323.43a.108.108,0,0,1,.122-.122h1.13a.108.108,0,0,1,.122.122Zm-1.265,4.268a.108.108,0,0,1-.122-.122V329.5a.108.108,0,0,1,.122-.122h1.167a.108.108,0,0,1,.122.122v1.045a.108.108,0,0,1-.122.122Z" transform="translate(-392.728 -320.085)" fill="#fff"/>
        <path id="Path_8201" data-name="Path 8201" d="M431.572,329.546a.516.516,0,0,1-.365-.116.657.657,0,0,1-.122-.468.766.766,0,0,1,.116-.48.456.456,0,0,1,.371-.141h.6a.606.606,0,0,0,.444-.139.708.708,0,0,0,.139-.5v-6.3a.108.108,0,0,1,.122-.122H434a.108.108,0,0,1,.122.122v6.616a1.721,1.721,0,0,1-.328,1.162,1.4,1.4,0,0,1-1.094.371Z" transform="translate(-391.359 -321.275)" fill="#fff"/>
        <path id="Path_8202" data-name="Path 8202" d="M435.375,329.424a.108.108,0,0,1-.122.122h-1.13a.108.108,0,0,1-.122-.122V321.4a.108.108,0,0,1,.122-.122h1.13a.108.108,0,0,1,.122.122Z" transform="translate(-389.652 -321.275)" fill="#fff"/>
        <path id="Path_8203" data-name="Path 8203" d="M441.082,324.194v-.523a.108.108,0,0,1,.122-.12h1.119a.107.107,0,0,1,.12.12v3.941a.716.716,0,0,0,.139.5.609.609,0,0,0,.444.139h.463c.323,0,.487.2.487.609a.712.712,0,0,1-.116.48.515.515,0,0,1-.371.116h-.984a1.763,1.763,0,0,1-.931-.208,1.056,1.056,0,0,1-.444-.729,1.694,1.694,0,0,1-.609.328,2.485,2.485,0,0,1-.742.109,2.929,2.929,0,0,1-.893-.133,1.905,1.905,0,0,1-1.222-1.126,2.657,2.657,0,0,1-.182-1.038,3.042,3.042,0,0,1,.2-1.18,2.006,2.006,0,0,1,.536-.761,1.973,1.973,0,0,1,.759-.407,3.227,3.227,0,0,1,.888-.122Zm-2.322-1.484a.107.107,0,0,1-.122-.12v-1.046a.108.108,0,0,1,.122-.122h1.021a.108.108,0,0,1,.122.122v1.046a.107.107,0,0,1-.122.12Zm1.18,5.048a1.066,1.066,0,0,0,.864-.335,1.5,1.5,0,0,0,.279-.98V325.41H440a1.046,1.046,0,0,0-1.154,1.254,1.065,1.065,0,0,0,.292.826A1.146,1.146,0,0,0,439.939,327.758Zm.4-5.048a.106.106,0,0,1-.12-.12v-1.046a.107.107,0,0,1,.12-.122h1.022a.107.107,0,0,1,.121.122v1.046a.106.106,0,0,1-.121.12Z" transform="translate(-387.614 -321.19)" fill="#fff"/>
        <path id="Path_8204" data-name="Path 8204" d="M441.544,328.356a.634.634,0,0,1-.365-.086.393.393,0,0,1-.122-.341,1.21,1.21,0,0,1,.116-.541.388.388,0,0,1,.371-.238h.6a.606.606,0,0,0,.444-.139.715.715,0,0,0,.14-.5V323.43a.108.108,0,0,1,.122-.122h1.13a.108.108,0,0,1,.122.122v3.393a1.721,1.721,0,0,1-.328,1.162,1.4,1.4,0,0,1-1.1.371Zm1.07,2.31a.108.108,0,0,1-.122-.122V329.5a.108.108,0,0,1,.122-.122h1.167a.108.108,0,0,1,.122.122v1.045a.108.108,0,0,1-.122.122Z" transform="translate(-385.522 -320.085)" fill="#fff"/>
        <path id="Path_8205" data-name="Path 8205" d="M443.972,321.4a.108.108,0,0,1,.122-.122h1.13a.108.108,0,0,1,.122.122v6.3a.708.708,0,0,0,.14.5.606.606,0,0,0,.444.139h.425a.455.455,0,0,1,.365.141.723.723,0,0,1,.122.48.676.676,0,0,1-.116.48.549.549,0,0,1-.371.1h-.961a1.4,1.4,0,0,1-1.094-.371,1.721,1.721,0,0,1-.328-1.162Z" transform="translate(-383.816 -321.275)" fill="#fff"/>
        <path id="Path_8206" data-name="Path 8206" d="M445.632,326.937a.4.4,0,0,1-.334-.122.8.8,0,0,1-.09-.45,1.028,1.028,0,0,1,.084-.5.378.378,0,0,1,.341-.135h1.46a.47.47,0,0,1,.365.135.685.685,0,0,1,.122.461.736.736,0,0,1-.116.493.515.515,0,0,1-.371.116Z" transform="translate(-383.093 -318.666)" fill="#fff"/>
        <path id="Path_8207" data-name="Path 8207" d="M446.553,326.937a.393.393,0,0,1-.334-.122.783.783,0,0,1-.092-.45,1,1,0,0,1,.086-.5.376.376,0,0,1,.341-.135h1.459a.47.47,0,0,1,.365.135.685.685,0,0,1,.122.461.727.727,0,0,1-.116.493.512.512,0,0,1-.371.116Z" transform="translate(-382.554 -318.666)" fill="#fff"/>
        <path id="Path_8208" data-name="Path 8208" d="M447.473,326.937a.4.4,0,0,1-.335-.122.8.8,0,0,1-.09-.45,1.027,1.027,0,0,1,.084-.5.378.378,0,0,1,.341-.135h1.46a.47.47,0,0,1,.365.135.685.685,0,0,1,.12.461.737.737,0,0,1-.114.493.515.515,0,0,1-.371.116Z" transform="translate(-382.015 -318.666)" fill="#fff"/>
        <path id="Path_8209" data-name="Path 8209" d="M448.493,329.28a.5.5,0,0,1-.371-.122.763.763,0,0,1-.116-.5.661.661,0,0,1,.122-.449.47.47,0,0,1,.365-.135h1.156a2.842,2.842,0,0,1-.279-1.349,3.555,3.555,0,0,1,.2-1.265,2.18,2.18,0,0,1,.547-.839,2.145,2.145,0,0,1,.8-.463,3.12,3.12,0,0,1,.954-.146,3.317,3.317,0,0,1,1,.146,2.02,2.02,0,0,1,.8.463,2.107,2.107,0,0,1,.523.839,3.756,3.756,0,0,1,.189,1.265,3.439,3.439,0,0,1-.182,1.2,2.028,2.028,0,0,1-.51.791,1.87,1.87,0,0,1-.791.431,3.8,3.8,0,0,1-1.021.128Zm2.1-6.264a.107.107,0,0,1-.121-.122V321.85a.107.107,0,0,1,.121-.122h1.023a.107.107,0,0,1,.12.122v1.045a.107.107,0,0,1-.12.122Zm1.278,2.213a1.017,1.017,0,0,0-.851.371,1.643,1.643,0,0,0-.292,1.04,1.726,1.726,0,0,0,.279,1.124,1.082,1.082,0,0,0,.864.323,1.121,1.121,0,0,0,.875-.311,1.606,1.606,0,0,0,.281-1.076C453.03,325.721,452.643,325.23,451.874,325.23Zm.3-2.213a.107.107,0,0,1-.122-.122V321.85a.108.108,0,0,1,.122-.122H453.2a.108.108,0,0,1,.122.122v1.045a.108.108,0,0,1-.122.122Z" transform="translate(-381.455 -321.01)" fill="#fff"/>
        <path id="Path_8210" data-name="Path 8210" d="M452.585,330.811a.108.108,0,0,1-.122-.122v-.972a.108.108,0,0,1,.122-.122h.266a.935.935,0,0,0,.736-.255,1.149,1.149,0,0,0,.225-.778V323.43a.108.108,0,0,1,.122-.122h1.132a.107.107,0,0,1,.12.122v5.155a1.935,1.935,0,0,1-2.153,2.226Z" transform="translate(-378.846 -320.085)" fill="#fff"/>
        <path id="Path_8211" data-name="Path 8211" d="M459.238,328.436a3.669,3.669,0,0,1-1.016-.128,1.726,1.726,0,0,1-.747-.425,1.966,1.966,0,0,1-.469-.772,4.195,4.195,0,0,1,.036-2.438,2.331,2.331,0,0,1,.549-.864,2.092,2.092,0,0,1,.8-.487,2.941,2.941,0,0,1,.948-.152,3.3,3.3,0,0,1,1,.146,1.979,1.979,0,0,1,.785.463,2.111,2.111,0,0,1,.51.826,3.745,3.745,0,0,1,.182,1.252V328.7a2.157,2.157,0,0,1-.571,1.664,2.389,2.389,0,0,1-1.666.523h-1.642a.108.108,0,0,1-.122-.122V329.8a.108.108,0,0,1,.122-.122h1.424a2.209,2.209,0,0,0,.449-.043.733.733,0,0,0,.354-.176.873.873,0,0,0,.225-.377,2.144,2.144,0,0,0,.079-.644Zm.109-4.05a1.014,1.014,0,0,0-.864.414,1.835,1.835,0,0,0-.3,1.107,1.388,1.388,0,0,0,.309,1.046,1.292,1.292,0,0,0,.894.279h1.083v-1.386a1.858,1.858,0,0,0-.268-1.089A.98.98,0,0,0,459.348,324.386Z" transform="translate(-376.282 -320.166)" fill="#fff"/>
        <path id="Path_8212" data-name="Path 8212" d="M462.565,328.169a4.346,4.346,0,0,1,.206-1.314,4.7,4.7,0,0,1,.512-1.13c.04-.073.1-.081.182-.025l.984.39c.041.016.063.04.067.067a.151.151,0,0,1-.017.092,5.727,5.727,0,0,0-.371.8,2.753,2.753,0,0,0-.178,1,1.863,1.863,0,0,0,.152.8,1.484,1.484,0,0,0,.39.517,1.4,1.4,0,0,0,.529.273,2.185,2.185,0,0,0,.571.079,1.632,1.632,0,0,0,1.137-.377,1.523,1.523,0,0,0,.42-1.192v-4.693a.107.107,0,0,1,.122-.122h1.13a.108.108,0,0,1,.122.122v.4a7.707,7.707,0,0,1,1.263-.48,5.17,5.17,0,0,1,1.436-.2,3.949,3.949,0,0,1,1.362.208,2.378,2.378,0,0,1,.918.583,2.247,2.247,0,0,1,.523.918,4.119,4.119,0,0,1,.163,1.2c0,.081,0,.155-.006.224s0,.128,0,.178a.673.673,0,0,0,.279.558,1.213,1.213,0,0,0,.729.2h.195a.47.47,0,0,1,.365.135.66.66,0,0,1,.122.449.766.766,0,0,1-.116.487.469.469,0,0,1-.371.135,2.455,2.455,0,0,1-.911-.154,1.046,1.046,0,0,1-.585-.613,1.2,1.2,0,0,1-.783.633,5.665,5.665,0,0,1-1.368.135h-2.226c-.179,0-.349,0-.511-.006s-.325-.011-.487-.019a2.472,2.472,0,0,1-.882,1.91,3.3,3.3,0,0,1-2.086.631,3.964,3.964,0,0,1-1.191-.17,2.548,2.548,0,0,1-.943-.517,2.4,2.4,0,0,1-.62-.869A3.085,3.085,0,0,1,462.565,328.169Zm8.464-3.783a4.47,4.47,0,0,0-1.338.206,8.806,8.806,0,0,0-1.167.452v2.188h2.6c.341,0,.618-.008.834-.024a1.062,1.062,0,0,0,.5-.14.58.58,0,0,0,.238-.36,3.08,3.08,0,0,0,.06-.693,2.781,2.781,0,0,0-.079-.693,1.123,1.123,0,0,0-.279-.51,1.3,1.3,0,0,0-.529-.317A2.7,2.7,0,0,0,471.029,324.386Z" transform="translate(-372.933 -320.166)" fill="#fff"/>
        <path id="Path_8213" data-name="Path 8213" d="M470.815,326.937a.393.393,0,0,1-.334-.122.784.784,0,0,1-.092-.45,1,1,0,0,1,.086-.5.376.376,0,0,1,.341-.135h1.458a.47.47,0,0,1,.365.135.685.685,0,0,1,.122.461.727.727,0,0,1-.116.493.515.515,0,0,1-.371.116Z" transform="translate(-368.353 -318.666)" fill="#fff"/>
        <path id="Path_8214" data-name="Path 8214" d="M471.735,326.937a.4.4,0,0,1-.334-.122.8.8,0,0,1-.092-.45,1,1,0,0,1,.086-.5.378.378,0,0,1,.341-.135h1.458a.474.474,0,0,1,.366.135.686.686,0,0,1,.12.461.727.727,0,0,1-.116.493.509.509,0,0,1-.371.116Z" transform="translate(-367.815 -318.666)" fill="#fff"/>
        <path id="Path_8215" data-name="Path 8215" d="M472.655,326.937a.392.392,0,0,1-.333-.122.784.784,0,0,1-.092-.45,1,1,0,0,1,.086-.5.374.374,0,0,1,.339-.135h1.46a.47.47,0,0,1,.365.135.684.684,0,0,1,.122.461.736.736,0,0,1-.116.493.515.515,0,0,1-.371.116Z" transform="translate(-367.276 -318.666)" fill="#fff"/>
        <path id="Path_8216" data-name="Path 8216" d="M473.577,326.937a.4.4,0,0,1-.334-.122.8.8,0,0,1-.092-.45,1,1,0,0,1,.086-.5.376.376,0,0,1,.341-.135h1.458a.468.468,0,0,1,.365.135.676.676,0,0,1,.122.461.726.726,0,0,1-.116.493.509.509,0,0,1-.371.116Z" transform="translate(-366.737 -318.666)" fill="#fff"/>
        <path id="Path_8217" data-name="Path 8217" d="M474.5,326.937a.4.4,0,0,1-.335-.122.8.8,0,0,1-.09-.45,1,1,0,0,1,.086-.5.373.373,0,0,1,.339-.135h1.46a.47.47,0,0,1,.365.135.685.685,0,0,1,.122.461.736.736,0,0,1-.116.493.514.514,0,0,1-.371.116Z" transform="translate(-366.198 -318.666)" fill="#fff"/>
        <path id="Path_8218" data-name="Path 8218" d="M478.055,327.734a.925.925,0,0,1-.517.487,2.645,2.645,0,0,1-.931.135h-1.13a.516.516,0,0,1-.365-.116.638.638,0,0,1-.122-.457.791.791,0,0,1,.116-.491.456.456,0,0,1,.371-.141h.791a.683.683,0,0,0,.335-.067.4.4,0,0,0,.17-.206,1.2,1.2,0,0,0,.067-.366c.008-.149.013-.333.013-.553V323.43a.1.1,0,0,1,.067-.1.46.46,0,0,1,.14-.024H478.1a.108.108,0,0,1,.122.122V326.4a.641.641,0,0,0,.273.558,1.245,1.245,0,0,0,.736.2h.208a.47.47,0,0,1,.365.135.661.661,0,0,1,.122.449.766.766,0,0,1-.116.487.469.469,0,0,1-.371.135,2.686,2.686,0,0,1-.828-.116A.983.983,0,0,1,478.055,327.734Zm-1.9,2.955a.107.107,0,0,1-.122-.12v-1.046a.108.108,0,0,1,.122-.122h1.021a.108.108,0,0,1,.122.122v1.046a.107.107,0,0,1-.122.12Zm1.581,0a.107.107,0,0,1-.122-.12v-1.046a.108.108,0,0,1,.122-.122h1.021a.108.108,0,0,1,.122.122v1.046a.107.107,0,0,1-.122.12Z" transform="translate(-365.66 -320.085)" fill="#fff"/>
        <path id="Path_8219" data-name="Path 8219" d="M477.979,329.28a.455.455,0,0,1-.365-.141.992.992,0,0,1-.006-.942.49.49,0,0,1,.371-.122h3.234a2.224,2.224,0,0,0,.511-.048.6.6,0,0,0,.3-.171.638.638,0,0,0,.146-.322,2.868,2.868,0,0,0,.036-.493,3.352,3.352,0,0,0-.073-.723,1.6,1.6,0,0,0-.242-.577,1.141,1.141,0,0,0-.444-.377,1.546,1.546,0,0,0-.688-.135,1.667,1.667,0,0,0-.729.159,2,2,0,0,0-.583.427.113.113,0,0,1-.171.011l-.631-.656c-.065-.065-.073-.12-.025-.171a3.233,3.233,0,0,1,.9-.7,2.669,2.669,0,0,1,1.276-.281,3.276,3.276,0,0,1,1.362.249,2.286,2.286,0,0,1,.877.671,2.589,2.589,0,0,1,.468.972,4.768,4.768,0,0,1,.139,1.173,3.963,3.963,0,0,1-.122,1.083,1.594,1.594,0,0,1-.358.675,1.27,1.27,0,0,1-.6.346,3.188,3.188,0,0,1-.832.1Zm2.346-6.264a.108.108,0,0,1-.122-.122V321.85a.108.108,0,0,1,.122-.122h1.167a.108.108,0,0,1,.122.122v1.045a.107.107,0,0,1-.122.122Z" transform="translate(-364.196 -321.01)" fill="#fff"/>
        <path id="Path_8220" data-name="Path 8220" d="M483.638,329.424a.108.108,0,0,1-.122.122h-1.13a.108.108,0,0,1-.122-.122V321.4a.108.108,0,0,1,.122-.122h1.13a.108.108,0,0,1,.122.122Z" transform="translate(-361.403 -321.275)" fill="#fff"/>
        <path id="Path_8221" data-name="Path 8221" d="M484.985,323.43a.108.108,0,0,1,.122-.122h1.13a.108.108,0,0,1,.122.122V326.4a.642.642,0,0,0,.274.558,1.241,1.241,0,0,0,.736.2h.206a.468.468,0,0,1,.365.135.661.661,0,0,1,.122.449.756.756,0,0,1-.116.487.464.464,0,0,1-.371.135,3.069,3.069,0,0,1-.71-.073.925.925,0,0,1-.506-.328v.23a5.342,5.342,0,0,1-.109,1.149,2.085,2.085,0,0,1-.358.821,1.5,1.5,0,0,1-.663.491,2.785,2.785,0,0,1-1.023.165h-.449a.108.108,0,0,1-.122-.122v-.972a.108.108,0,0,1,.122-.122h.266a1.055,1.055,0,0,0,.549-.12.725.725,0,0,0,.285-.36,1.923,1.923,0,0,0,.109-.572c.013-.222.017-.48.017-.77Z" transform="translate(-360.6 -320.085)" fill="#fff"/>
        <path id="Path_8222" data-name="Path 8222" d="M488.917,328.659a.93.93,0,0,1-.517.487,2.658,2.658,0,0,1-.931.135h-1.13a.513.513,0,0,1-.365-.116.63.63,0,0,1-.122-.457.781.781,0,0,1,.116-.491.451.451,0,0,1,.371-.141h.789a.678.678,0,0,0,.335-.067.4.4,0,0,0,.171-.206,1.2,1.2,0,0,0,.067-.366c.008-.149.011-.333.011-.553v-2.529a.1.1,0,0,1,.068-.1.452.452,0,0,1,.14-.024h1.045a.108.108,0,0,1,.122.122v2.968a.642.642,0,0,0,.274.558,1.241,1.241,0,0,0,.735.2h.206a.47.47,0,0,1,.365.135.661.661,0,0,1,.122.449.756.756,0,0,1-.116.487.465.465,0,0,1-.371.135,2.684,2.684,0,0,1-.826-.116A.978.978,0,0,1,488.917,328.659Zm-1.812-5.642a.108.108,0,0,1-.122-.122V321.85a.108.108,0,0,1,.122-.122h1.021a.108.108,0,0,1,.122.122v1.045a.108.108,0,0,1-.122.122Zm1.581,0a.108.108,0,0,1-.122-.122V321.85a.108.108,0,0,1,.122-.122h1.021a.108.108,0,0,1,.122.122v1.045a.108.108,0,0,1-.122.122Z" transform="translate(-359.302 -321.01)" fill="#fff"/>
        <path id="Path_8223" data-name="Path 8223" d="M488.84,329.546a.516.516,0,0,1-.365-.116.657.657,0,0,1-.122-.468.766.766,0,0,1,.116-.48.456.456,0,0,1,.371-.141h.6a.606.606,0,0,0,.444-.139.708.708,0,0,0,.139-.5v-6.3a.108.108,0,0,1,.122-.122h1.13a.108.108,0,0,1,.122.122v6.616a1.721,1.721,0,0,1-.328,1.162,1.4,1.4,0,0,1-1.094.371Z" transform="translate(-357.839 -321.275)" fill="#fff"/>
        <path id="Path_8224" data-name="Path 8224" d="M498.545,328.734a1.917,1.917,0,0,0,1-.182.542.542,0,0,0,.268-.463.587.587,0,0,0-.14-.395,1.431,1.431,0,0,0-.437-.317,6.886,6.886,0,0,0-.755-.315c-.3-.109-.663-.241-1.076-.395a.1.1,0,0,1-.073-.146l.328-.961c.025-.081.075-.111.147-.086.258.1.506.2.74.3s.466.19.694.268.45.141.669.193a2.833,2.833,0,0,0,.68.079H501.8a.5.5,0,0,1,.365.122.614.614,0,0,1,.122.438.821.821,0,0,1-.116.5.444.444,0,0,1-.371.146h-.839a1.9,1.9,0,0,1,.139.309,1.3,1.3,0,0,1,.079.457,1.587,1.587,0,0,1-.133.644,1.438,1.438,0,0,1-.42.536,2.193,2.193,0,0,1-.742.371,3.884,3.884,0,0,1-1.113.14H496a3.317,3.317,0,0,1-2.353-.729,2.6,2.6,0,0,1-.772-1.982,3.639,3.639,0,0,1,.067-.688,5.05,5.05,0,0,1,.176-.669,5.109,5.109,0,0,1,.251-.607,3.288,3.288,0,0,1,.3-.506c.04-.065.1-.071.17-.024l.961.5a.1.1,0,0,1,.036.159,5.11,5.11,0,0,0-.384.791,2.511,2.511,0,0,0-.176.924,1.6,1.6,0,0,0,.165.766,1.351,1.351,0,0,0,.431.487,1.791,1.791,0,0,0,.607.262,3.09,3.09,0,0,0,.694.079Zm-2.724,3.38a.107.107,0,0,1-.12-.122v-1.045a.107.107,0,0,1,.12-.122h1.023a.107.107,0,0,1,.12.122v1.045a.107.107,0,0,1-.12.122Zm1.581,0a.107.107,0,0,1-.12-.122v-1.045a.107.107,0,0,1,.12-.122h1.023a.107.107,0,0,1,.12.122v1.045a.107.107,0,0,1-.12.122Z" transform="translate(-355.19 -319.248)" fill="#fff"/>
        <path id="Path_8225" data-name="Path 8225" d="M498.666,326.937a.4.4,0,0,1-.334-.122.8.8,0,0,1-.09-.45,1.027,1.027,0,0,1,.084-.5.377.377,0,0,1,.341-.135h1.46a.47.47,0,0,1,.365.135.685.685,0,0,1,.12.461.737.737,0,0,1-.114.493.515.515,0,0,1-.371.116Z" transform="translate(-352.051 -318.666)" fill="#fff"/>
        <path id="Path_8226" data-name="Path 8226" d="M499.587,326.937a.393.393,0,0,1-.334-.122.784.784,0,0,1-.092-.45,1,1,0,0,1,.086-.5.376.376,0,0,1,.341-.135h1.458a.47.47,0,0,1,.365.135.685.685,0,0,1,.122.461.727.727,0,0,1-.116.493.515.515,0,0,1-.371.116Z" transform="translate(-351.513 -318.666)" fill="#fff"/>
        <path id="Path_8227" data-name="Path 8227" d="M500.507,326.937a.4.4,0,0,1-.334-.122.8.8,0,0,1-.09-.45,1.008,1.008,0,0,1,.084-.5.377.377,0,0,1,.341-.135h1.458a.474.474,0,0,1,.366.135.686.686,0,0,1,.121.461.726.726,0,0,1-.116.493.509.509,0,0,1-.371.116Z" transform="translate(-350.974 -318.666)" fill="#fff"/>
        <path id="Path_8228" data-name="Path 8228" d="M501.427,326.937a.392.392,0,0,1-.333-.122.784.784,0,0,1-.092-.45,1,1,0,0,1,.086-.5.374.374,0,0,1,.339-.135h1.46a.47.47,0,0,1,.365.135.685.685,0,0,1,.122.461.736.736,0,0,1-.116.493.514.514,0,0,1-.371.116Z" transform="translate(-350.435 -318.666)" fill="#fff"/>
        <path id="Path_8229" data-name="Path 8229" d="M502.349,326.937a.4.4,0,0,1-.335-.122.8.8,0,0,1-.092-.45,1,1,0,0,1,.086-.5.378.378,0,0,1,.341-.135h1.458a.474.474,0,0,1,.366.135.685.685,0,0,1,.12.461.727.727,0,0,1-.116.493.509.509,0,0,1-.371.116Z" transform="translate(-349.897 -318.666)" fill="#fff"/>
        <path id="Path_8230" data-name="Path 8230" d="M503.268,326.937a.4.4,0,0,1-.335-.122.8.8,0,0,1-.09-.45,1,1,0,0,1,.086-.5.373.373,0,0,1,.339-.135h1.46a.47.47,0,0,1,.365.135.685.685,0,0,1,.122.461.736.736,0,0,1-.116.493.515.515,0,0,1-.371.116Z" transform="translate(-349.358 -318.666)" fill="#fff"/>
        <path id="Path_8231" data-name="Path 8231" d="M504.19,326.937a.4.4,0,0,1-.335-.122.8.8,0,0,1-.092-.45,1,1,0,0,1,.086-.5.376.376,0,0,1,.341-.135h1.458a.468.468,0,0,1,.365.135.676.676,0,0,1,.122.461.727.727,0,0,1-.116.493.51.51,0,0,1-.371.116Z" transform="translate(-348.819 -318.666)" fill="#fff"/>
        <path id="Path_8232" data-name="Path 8232" d="M505.132,328.356a.635.635,0,0,1-.365-.086.393.393,0,0,1-.122-.341,1.233,1.233,0,0,1,.116-.541.388.388,0,0,1,.371-.238h.6a.606.606,0,0,0,.444-.139.708.708,0,0,0,.14-.5V323.43a.108.108,0,0,1,.122-.122h1.13a.108.108,0,0,1,.122.122v3.393a1.721,1.721,0,0,1-.328,1.162,1.4,1.4,0,0,1-1.094.371Zm1.07,2.31a.107.107,0,0,1-.121-.122V329.5a.107.107,0,0,1,.121-.122h1.168a.107.107,0,0,1,.12.122v1.045a.107.107,0,0,1-.12.122Z" transform="translate(-348.303 -320.085)" fill="#fff"/>
        <path id="Path_8233" data-name="Path 8233" d="M512.188,326.357a3.839,3.839,0,0,1-.109,1,1.556,1.556,0,0,1-.328.637,1.16,1.16,0,0,1-.56.341,2.929,2.929,0,0,1-.8.1h-2.822a.108.108,0,0,1-.122-.122v-.961a.108.108,0,0,1,.122-.122h2.262a2.273,2.273,0,0,0,.522-.048.53.53,0,0,0,.433-.463,2.763,2.763,0,0,0,.03-.45v-.815q0-1.07-1.24-1.07h-1.46a.108.108,0,0,1-.122-.122v-.972a.108.108,0,0,1,.122-.122h1.945a2.2,2.2,0,0,1,1.55.529,2.13,2.13,0,0,1,.579,1.647Z" transform="translate(-346.664 -320.166)" fill="#fff"/>
        <path id="Path_8234" data-name="Path 8234" d="M516.838,328.52a3.127,3.127,0,0,1-1.064-.17,1.813,1.813,0,0,1-.785-.547.675.675,0,0,1-.232.236,2.861,2.861,0,0,0-.255.171.775.775,0,0,0-.206.238.847.847,0,0,0-.086.425v2.018h-1.374v-2.273a1.711,1.711,0,0,1,.1-.645,1.312,1.312,0,0,1,.266-.425,1.855,1.855,0,0,1,.354-.287c.125-.076.243-.152.352-.23a1.834,1.834,0,0,0,.292-.255.627.627,0,0,0,.152-.371c-.008-.081-.014-.165-.017-.25s-.006-.176-.006-.273a3.758,3.758,0,0,1,.189-1.265,2.108,2.108,0,0,1,.523-.839,2.022,2.022,0,0,1,.8-.463,3.483,3.483,0,0,1,1.994,0,2.038,2.038,0,0,1,.8.463,2.124,2.124,0,0,1,.522.839,3.722,3.722,0,0,1,.189,1.265,3.553,3.553,0,0,1-.182,1.216,2.062,2.062,0,0,1-.517.815,2.015,2.015,0,0,1-.8.461A3.314,3.314,0,0,1,516.838,328.52Zm0-4.135a1.023,1.023,0,0,0-.869.377,1.782,1.782,0,0,0-.287,1.094,1.731,1.731,0,0,0,.287,1.119,1.067,1.067,0,0,0,.869.341,1.044,1.044,0,0,0,.864-.347,1.781,1.781,0,0,0,.279-1.113Q517.981,324.388,516.838,324.386Z" transform="translate(-343.508 -320.166)" fill="#fff"/>
        <path id="Path_8235" data-name="Path 8235" d="M517.831,321.4a.108.108,0,0,1,.122-.122h1.13a.108.108,0,0,1,.122.122v6.3a.707.707,0,0,0,.14.5.605.605,0,0,0,.444.139h.425a.461.461,0,0,1,.366.141.734.734,0,0,1,.12.48.676.676,0,0,1-.116.48.549.549,0,0,1-.371.1h-.961a1.4,1.4,0,0,1-1.094-.371,1.721,1.721,0,0,1-.328-1.162Z" transform="translate(-340.585 -321.275)" fill="#fff"/>
        <path id="Path_8236" data-name="Path 8236" d="M519.491,326.937a.4.4,0,0,1-.335-.122.8.8,0,0,1-.09-.45,1,1,0,0,1,.086-.5.373.373,0,0,1,.339-.135h1.46a.47.47,0,0,1,.365.135.685.685,0,0,1,.122.461.736.736,0,0,1-.116.493.515.515,0,0,1-.371.116Z" transform="translate(-339.862 -318.666)" fill="#fff"/>
        <path id="Path_8237" data-name="Path 8237" d="M520.412,326.937a.4.4,0,0,1-.334-.122.8.8,0,0,1-.092-.45,1,1,0,0,1,.086-.5.376.376,0,0,1,.341-.135h1.458a.468.468,0,0,1,.365.135.677.677,0,0,1,.122.461.726.726,0,0,1-.116.493.509.509,0,0,1-.371.116Z" transform="translate(-339.324 -318.666)" fill="#fff"/>
        <path id="Path_8238" data-name="Path 8238" d="M521.332,326.937a.4.4,0,0,1-.334-.122.8.8,0,0,1-.09-.45,1.026,1.026,0,0,1,.084-.5.377.377,0,0,1,.341-.135h1.46a.47.47,0,0,1,.365.135.685.685,0,0,1,.122.461.736.736,0,0,1-.116.493.515.515,0,0,1-.371.116Z" transform="translate(-338.785 -318.666)" fill="#fff"/>
        <path id="Path_8239" data-name="Path 8239" d="M522.253,326.937a.393.393,0,0,1-.334-.122.783.783,0,0,1-.092-.45,1,1,0,0,1,.086-.5.376.376,0,0,1,.341-.135h1.458a.47.47,0,0,1,.365.135.684.684,0,0,1,.122.461.726.726,0,0,1-.116.493.512.512,0,0,1-.371.116Z" transform="translate(-338.246 -318.666)" fill="#fff"/>
        <path id="Path_8240" data-name="Path 8240" d="M523.173,326.937a.4.4,0,0,1-.335-.122.8.8,0,0,1-.09-.45,1.026,1.026,0,0,1,.084-.5.377.377,0,0,1,.341-.135h1.46a.47.47,0,0,1,.365.135.686.686,0,0,1,.12.461.738.738,0,0,1-.114.493.515.515,0,0,1-.371.116Z" transform="translate(-337.707 -318.666)" fill="#fff"/>
        <path id="Path_8241" data-name="Path 8241" d="M524.094,326.937a.393.393,0,0,1-.334-.122.783.783,0,0,1-.092-.45,1,1,0,0,1,.086-.5.376.376,0,0,1,.341-.135h1.458a.47.47,0,0,1,.365.135.685.685,0,0,1,.122.461.726.726,0,0,1-.116.493.514.514,0,0,1-.371.116Z" transform="translate(-337.169 -318.666)" fill="#fff"/>
        <path id="Path_8242" data-name="Path 8242" d="M525.014,326.937a.4.4,0,0,1-.335-.122.8.8,0,0,1-.09-.45,1.007,1.007,0,0,1,.084-.5.377.377,0,0,1,.341-.135h1.458a.474.474,0,0,1,.366.135.685.685,0,0,1,.12.461.727.727,0,0,1-.116.493.51.51,0,0,1-.371.116Z" transform="translate(-336.629 -318.666)" fill="#fff"/>
        <path id="Path_8243" data-name="Path 8243" d="M525.934,326.937a.392.392,0,0,1-.333-.122.783.783,0,0,1-.092-.45,1,1,0,0,1,.086-.5.375.375,0,0,1,.339-.135h1.46a.47.47,0,0,1,.365.135.685.685,0,0,1,.122.461.737.737,0,0,1-.116.493.515.515,0,0,1-.371.116Z" transform="translate(-336.091 -318.666)" fill="#fff"/>
        <path id="Path_8244" data-name="Path 8244" d="M526.856,326.937a.4.4,0,0,1-.335-.122.8.8,0,0,1-.092-.45,1,1,0,0,1,.086-.5.378.378,0,0,1,.341-.135h1.458a.474.474,0,0,1,.366.135.685.685,0,0,1,.121.461.727.727,0,0,1-.116.493.509.509,0,0,1-.371.116Z" transform="translate(-335.552 -318.666)" fill="#fff"/>
        <path id="Path_8245" data-name="Path 8245" d="M527.775,326.937a.4.4,0,0,1-.335-.122.8.8,0,0,1-.09-.45,1,1,0,0,1,.086-.5.373.373,0,0,1,.339-.135h1.46a.47.47,0,0,1,.365.135.685.685,0,0,1,.122.461.736.736,0,0,1-.116.493.515.515,0,0,1-.371.116Z" transform="translate(-335.013 -318.666)" fill="#fff"/>
        <path id="Path_8246" data-name="Path 8246" d="M528.7,326.937a.4.4,0,0,1-.334-.122.783.783,0,0,1-.092-.45,1.007,1.007,0,0,1,.085-.5.376.376,0,0,1,.341-.135h1.458a.471.471,0,0,1,.365.135.685.685,0,0,1,.122.461.727.727,0,0,1-.116.493.509.509,0,0,1-.371.116Z" transform="translate(-334.475 -318.666)" fill="#fff"/>
        <path id="Path_8247" data-name="Path 8247" d="M532.292,324.961a8.207,8.207,0,0,1,1.27-.48,5.1,5.1,0,0,1,1.43-.2,3.942,3.942,0,0,1,1.362.208,2.38,2.38,0,0,1,.918.583,2.247,2.247,0,0,1,.523.918,4.119,4.119,0,0,1,.163,1.2c0,.081,0,.155-.006.224s0,.128,0,.178a.677.677,0,0,0,.279.558,1.213,1.213,0,0,0,.729.195h.208a.471.471,0,0,1,.365.135.661.661,0,0,1,.122.449.766.766,0,0,1-.116.487.469.469,0,0,1-.371.135,2.508,2.508,0,0,1-.918-.154,1,1,0,0,1-.579-.614,1.262,1.262,0,0,1-.322.407,1.3,1.3,0,0,1-.45.231,2.782,2.782,0,0,1-.6.1c-.227.017-.477.025-.753.025h-3.247a.645.645,0,0,1-.547-.208,1.035,1.035,0,0,1-.487.178,6.263,6.263,0,0,1-.633.03h-.948a.513.513,0,0,1-.365-.116.63.63,0,0,1-.122-.456.775.775,0,0,1,.116-.51.491.491,0,0,1,.371-.122h.607a.759.759,0,0,0,.347-.067.407.407,0,0,0,.189-.231,1.633,1.633,0,0,0,.078-.45q.019-.285.019-.723V321.4a.108.108,0,0,1,.122-.122h1.13a.108.108,0,0,1,.122.122Zm2.5.534a4.471,4.471,0,0,0-1.338.206,8.907,8.907,0,0,0-1.167.452v1.654c0,.1,0,.19-.013.279a2.408,2.408,0,0,1-.036.255h2.651c.341,0,.618,0,.834-.017a1.012,1.012,0,0,0,.5-.135.578.578,0,0,0,.238-.365,3.17,3.17,0,0,0,.06-.7,2.787,2.787,0,0,0-.079-.693,1.123,1.123,0,0,0-.279-.51,1.3,1.3,0,0,0-.529-.317A2.7,2.7,0,0,0,534.8,325.5Zm-.365-2.213a.108.108,0,0,1-.122-.122v-1.045a.108.108,0,0,1,.122-.122H535.6a.108.108,0,0,1,.122.122v1.045a.108.108,0,0,1-.122.122Z" transform="translate(-333.936 -321.275)" fill="#fff"/>
        <path id="Path_8248" data-name="Path 8248" d="M535.661,329.28a.631.631,0,0,1-.365-.086.389.389,0,0,1-.122-.341,1.211,1.211,0,0,1,.116-.541.385.385,0,0,1,.371-.238h.594a.6.6,0,0,0,.444-.139.707.707,0,0,0,.141-.5v-3.077a.107.107,0,0,1,.12-.122h1.132a.107.107,0,0,1,.12.122v3.393a1.721,1.721,0,0,1-.328,1.162,1.4,1.4,0,0,1-1.094.371Zm1.289-6.264a.108.108,0,0,1-.122-.122V321.85a.108.108,0,0,1,.122-.122h1.167a.108.108,0,0,1,.122.122v1.045a.108.108,0,0,1-.122.122Z" transform="translate(-330.434 -321.01)" fill="#fff"/>
      </g>
    </g>
  </g>
</svg>
