<svg id="DM_Logo" xmlns="http://www.w3.org/2000/svg" xmlns:xlink="http://www.w3.org/1999/xlink" width="181.086" height="55.406" viewBox="0 0 181.086 55.406">
  <defs>
    <linearGradient id="linear-gradient" x1="0.668" y1="0.049" x2="0.433" y2="1.004" gradientUnits="objectBoundingBox">
      <stop offset="0" stop-color="#ffc15a"/>
      <stop offset="0.158" stop-color="#fcba56"/>
      <stop offset="0.38" stop-color="#f5a84b"/>
      <stop offset="0.64" stop-color="#ea8a39"/>
      <stop offset="0.926" stop-color="#db6020"/>
      <stop offset="1" stop-color="#d75519"/>
    </linearGradient>
  </defs>
  <g id="Group_3" data-name="Group 3" transform="translate(0 0)">
    <g id="Group_1" data-name="Group 1" transform="translate(0 18.498)">
      <path id="Path_1" data-name="Path 1" d="M180.271,214.055a1.338,1.338,0,0,0-1.345-1.334,1.3,1.3,0,0,0-.948.393,1.313,1.313,0,0,0,0,1.881,1.342,1.342,0,0,0,2.293-.94Z" transform="translate(-171.327 -192.756)" fill="#a50a2e"/>
      <path id="Path_2" data-name="Path 2" d="M177.646,215a1.314,1.314,0,0,0,0-1.881,1.341,1.341,0,0,0-1.9,0,1.313,1.313,0,0,0,0,1.881,1.343,1.343,0,0,0,1.9,0Z" transform="translate(-172.11 -192.756)" fill="#a50a2e"/>
      <path id="Path_3" data-name="Path 3" d="M195.854,211.759a3.529,3.529,0,0,0,2.58-1.058,3.472,3.472,0,0,0,1.068-2.558v-5.683a2.294,2.294,0,0,0-2.3,2.294v3.389a1.274,1.274,0,0,1-.4.94,1.3,1.3,0,0,1-.948.394h-8.38a1.3,1.3,0,0,1-.948-.394,1.275,1.275,0,0,1-.4-.94v-5.683h-1.26a7.747,7.747,0,0,0-5.139,1.839,5.2,5.2,0,0,0-1.73,3.855,3.431,3.431,0,0,0,.865,2.325,3.688,3.688,0,0,0,2.189,1.23c.048.007.125.012.229.016s.219,0,.344,0a.281.281,0,0,1,.25.171.264.264,0,0,1-.063.294,3.859,3.859,0,0,1-5.451-.052,3.784,3.784,0,0,1-.636-4.495,2.263,2.263,0,0,0-.177-2.5l-.323-.413a6.108,6.108,0,0,0,3.627,10.84,6.187,6.187,0,0,0,4.607-1.777,2.428,2.428,0,0,0,.751-1.824,2.656,2.656,0,0,0-.74-1.747,2.391,2.391,0,0,0-1.835-.748h-.021a.029.029,0,0,1-.021-.011.654.654,0,0,1-.115-.01l-.13-.021c-.045-.007-.082-.014-.109-.02a1.414,1.414,0,0,1-.677-.487,1.237,1.237,0,0,1-.261-.774,2.967,2.967,0,0,1,.677-1.824,3.726,3.726,0,0,1,1.981-1.267,6.924,6.924,0,0,1,.823-.154.091.091,0,0,0,.042-.011v3.245a3.472,3.472,0,0,0,1.068,2.558,3.522,3.522,0,0,0,2.507,1.052v.007h8.454Z" transform="translate(-172.953 -196.362)" fill="#a50a2e"/>
      <path id="Path_4" data-name="Path 4" d="M189.485,210.82a1.316,1.316,0,0,0,0,1.881,1.342,1.342,0,0,0,1.9,0,1.314,1.314,0,0,0,0-1.881,1.343,1.343,0,0,0-1.9,0Z" transform="translate(-167.283 -193.562)" fill="#a50a2e"/>
      <path id="Path_5" data-name="Path 5" d="M204.049,207.106a4.412,4.412,0,0,0-1.3-3.208,4.732,4.732,0,0,0-3.242-1.432h-.146a4.235,4.235,0,0,0-.427.021,5.884,5.884,0,0,0-3.576,1.56l.323.362a2.208,2.208,0,0,0,2.4.578,3.564,3.564,0,0,1,1.032-.227h.031c.077-.007.146-.01.209-.01h.094a2.357,2.357,0,0,1,2.3,2.315,2.316,2.316,0,0,1-.688,1.674,2.457,2.457,0,0,1-1.678.735h-2.919a2.234,2.234,0,0,0-1.625.666,2.182,2.182,0,0,0-.678,1.617H199.5a4.727,4.727,0,0,0,3.242-1.431A4.429,4.429,0,0,0,204.049,207.106Z" transform="translate(-165.502 -196.359)" fill="#a50a2e"/>
      <path id="Path_6" data-name="Path 6" d="M207.781,201.623a1.3,1.3,0,0,0,.948-.392,1.314,1.314,0,0,0,0-1.881,1.34,1.34,0,0,0-1.9,0,1.316,1.316,0,0,0,0,1.881A1.3,1.3,0,0,0,207.781,201.623Z" transform="translate(-161.187 -197.593)" fill="#a50a2e"/>
      <path id="Path_7" data-name="Path 7" d="M210.01,201.623a1.333,1.333,0,1,0-.949-2.273,1.316,1.316,0,0,0,0,1.881A1.3,1.3,0,0,0,210.01,201.623Z" transform="translate(-160.404 -197.593)" fill="#a50a2e"/>
      <path id="Path_8" data-name="Path 8" d="M221.056,210.82a1.314,1.314,0,0,0,0,1.881,1.333,1.333,0,1,0,0-1.881Z" transform="translate(-156.19 -193.562)" fill="#a50a2e"/>
      <path id="Path_9" data-name="Path 9" d="M221.119,211.76a1.278,1.278,0,0,0-.4-.94,1.343,1.343,0,0,0-1.9,0,1.314,1.314,0,0,0,0,1.881,1.342,1.342,0,0,0,1.9,0A1.281,1.281,0,0,0,221.119,211.76Z" transform="translate(-156.973 -193.562)" fill="#a50a2e"/>
      <path id="Path_10" data-name="Path 10" d="M224.273,211.98h2.449a3.53,3.53,0,0,0,2.58-1.058,3.473,3.473,0,0,0,1.068-2.558V202.68a2.293,2.293,0,0,0-2.3,2.294v3.389a1.274,1.274,0,0,1-.4.94,1.3,1.3,0,0,1-.948.394h-12.1a1.34,1.34,0,0,1-1.345-1.334v-6.531a9.925,9.925,0,0,0-4.393.868,6.331,6.331,0,0,0-2.659,2.29,5.642,5.642,0,0,0-.891,3.053,3.78,3.78,0,0,0,1.163,2.78,3.832,3.832,0,0,0,2.808,1.157h2.3a2.2,2.2,0,0,0-.678-1.622,2.273,2.273,0,0,0-1.626-.661,1.612,1.612,0,0,1-1.178-.487,1.584,1.584,0,0,1-.489-1.168q0-2.7,3.325-3.658v3.979a3.463,3.463,0,0,0,1.073,2.558,3.547,3.547,0,0,0,2.586,1.058h9.652Z" transform="translate(-161.575 -196.582)" fill="#a50a2e"/>
      <path id="Path_11" data-name="Path 11" d="M242.289,213.345a3.5,3.5,0,0,0,2.491-.982,3.523,3.523,0,0,0,2.46.982h11.028a3.53,3.53,0,0,0,2.58-1.058,3.472,3.472,0,0,0,1.068-2.558v-5.683a2.3,2.3,0,0,0-2.3,2.294v3.389a1.274,1.274,0,0,1-.4.94,1.3,1.3,0,0,1-.948.394H247.282a1.308,1.308,0,0,1-.949-.388,1.272,1.272,0,0,1-.4-.945V197.947a2.238,2.238,0,0,0-1.626.666,2.186,2.186,0,0,0-.678,1.617v9.5a1.281,1.281,0,0,1-.39.945,1.3,1.3,0,0,1-.954.388h-6.035a1.3,1.3,0,0,1-.948-.394,1.273,1.273,0,0,1-.4-.94v-1.075a4.415,4.415,0,0,0-1.3-3.173,4.745,4.745,0,0,0-3.241-1.426h-.147a4.253,4.253,0,0,0-.427.021,5.884,5.884,0,0,0-3.576,1.56l.323.362a2.209,2.209,0,0,0,2.4.578,3.552,3.552,0,0,1,1.031-.227H230c.077-.007.147-.01.209-.01h.094a2.358,2.358,0,0,1,2.3,2.315,2.319,2.319,0,0,1-.688,1.674,2.461,2.461,0,0,1-1.678.735h-2.919a2.236,2.236,0,0,0-1.626.666,2.185,2.185,0,0,0-.678,1.617h5.348a4.7,4.7,0,0,0,3.033-1.23c.07.076.142.151.219.227a3.35,3.35,0,0,0,2.449,1h6.223Z" transform="translate(-154.658 -197.947)" fill="#a50a2e"/>
      <path id="Path_12" data-name="Path 12" d="M249.208,210.82a1.316,1.316,0,0,0,0,1.881,1.342,1.342,0,0,0,1.9,0,1.316,1.316,0,0,0,0-1.881,1.343,1.343,0,0,0-1.9,0Z" transform="translate(-146.297 -193.562)" fill="#a50a2e"/>
      <path id="Path_13" data-name="Path 13" d="M175.522,219.822H173.1v7.193h2.362c2.116,0,4.02-1.1,4.02-3.6C179.486,220.643,177.829,219.822,175.522,219.822Zm-.336,5.838h-.492v-4.485h.828c1.456,0,2.239.555,2.239,2.242C177.761,225.26,176.9,225.66,175.186,225.66Z" transform="translate(-172.9 -190.261)" fill="#a50a2e"/>
      <path id="Path_14" data-name="Path 14" d="M183.448,224.006c0,.943-.325,1.854-1.59,1.854-1.3,0-1.657-.832-1.657-1.965v-4.074h-1.59v4.263a2.826,2.826,0,0,0,3.147,3.085c1.836,0,3.28-.843,3.28-3.119v-4.229h-1.589Z" transform="translate(-170.965 -190.261)" fill="#a50a2e"/>
      <path id="Path_15" data-name="Path 15" d="M188.624,223.229a1.585,1.585,0,0,0,1.12-1.5c0-1.132-.907-1.909-2.665-1.909h-2.653v7.193h2.844c1.78,0,2.765-.766,2.765-2.109A1.722,1.722,0,0,0,188.624,223.229Zm-2.609-2.165h1.042c.7,0,1.074.289,1.074.8,0,.666-.526.877-1.231.877h-.885Zm1.12,4.685h-1.12v-1.821h1.165c.851,0,1.219.388,1.219.9S188.109,225.749,187.135,225.749Z" transform="translate(-168.922 -190.261)" fill="#a50a2e"/>
      <path id="Path_16" data-name="Path 16" d="M191.473,219.822l-2.609,7.1v.089h1.668l.571-1.721h2.687l.583,1.721h1.69v-.089l-2.609-7.1Zm.056,4.207.907-2.742.93,2.742Z" transform="translate(-167.362 -190.261)" fill="#a50a2e"/>
      <rect id="Rectangle_1" data-name="Rectangle 1" width="1.59" height="7.193" transform="translate(29.639 29.561)" fill="#a50a2e"/>
      <path id="Path_17" data-name="Path 17" d="M203.654,222.974a9.823,9.823,0,0,0-.627,1.421,11.955,11.955,0,0,0-.626-1.421l-1.657-3.153h-1.634v7.193h1.545v-4.474a11.179,11.179,0,0,0,.492,1.077l1.276,2.508h1.221l1.254-2.508a9.478,9.478,0,0,0,.492-1.077v4.474h1.567v-7.193h-1.634Z" transform="translate(-163.762 -190.261)" fill="#a50a2e"/>
      <path id="Path_18" data-name="Path 18" d="M210.811,224.006c0,.943-.324,1.854-1.59,1.854-1.3,0-1.657-.832-1.657-1.965v-4.074h-1.59v4.263a2.826,2.826,0,0,0,3.147,3.085c1.836,0,3.28-.843,3.28-3.119v-4.229h-1.59Z" transform="translate(-161.35 -190.261)" fill="#a50a2e"/>
      <path id="Path_19" data-name="Path 19" d="M216.681,224.672a9.443,9.443,0,0,0-.7-1.166l-2.474-3.685h-1.713v7.193h1.556v-4.862a10.287,10.287,0,0,0,.884,1.51l2.273,3.352h1.725v-7.193h-1.546Z" transform="translate(-159.307 -190.261)" fill="#a50a2e"/>
      <rect id="Rectangle_2" data-name="Rectangle 2" width="1.59" height="7.193" transform="translate(60.507 29.561)" fill="#a50a2e"/>
      <path id="Path_20" data-name="Path 20" d="M223.478,225.867c-1.266,0-2.016-.821-2.016-2.442,0-1.51.559-2.408,1.892-2.408a3.17,3.17,0,0,1,1.724.51l.594-1.165a4.455,4.455,0,0,0-2.4-.655c-1.825,0-3.471.933-3.471,3.807,0,2.1.952,3.7,3.516,3.7a4.541,4.541,0,0,0,2.407-.721l-.615-1.11A2.942,2.942,0,0,1,223.478,225.867Z" transform="translate(-156.49 -190.301)" fill="#a50a2e"/>
      <rect id="Rectangle_3" data-name="Rectangle 3" width="1.59" height="7.193" transform="translate(70.165 29.561)" fill="#a50a2e"/>
      <path id="Path_21" data-name="Path 21" d="M229.775,219.822h-2.542v7.193h1.59v-2.408h.918c1.937,0,2.9-1.055,2.9-2.476C232.641,220.821,231.758,219.822,229.775,219.822Zm-.19,3.519h-.762v-2.253h.93c.772,0,1.254.344,1.254,1.088C231.007,223.073,230.436,223.34,229.586,223.34Z" transform="translate(-153.88 -190.261)" fill="#a50a2e"/>
      <path id="Path_22" data-name="Path 22" d="M233.586,219.822l-2.609,7.1v.089h1.669l.571-1.721H235.9l.582,1.721h1.691v-.089l-2.609-7.1Zm.057,4.207.906-2.742.93,2.742Z" transform="translate(-152.564 -190.261)" fill="#a50a2e"/>
      <path id="Path_23" data-name="Path 23" d="M238.589,219.822H237v7.193h4.881V225.66h-3.292Z" transform="translate(-150.448 -190.261)" fill="#a50a2e"/>
      <rect id="Rectangle_4" data-name="Rectangle 4" width="1.59" height="7.193" transform="translate(92.382 29.561)" fill="#a50a2e"/>
      <path id="Path_24" data-name="Path 24" d="M243.193,221.165h2.318v5.85H247.1v-5.85h2.262v-1.343h-6.169Z" transform="translate(-148.272 -190.261)" fill="#a50a2e"/>
      <path id="Path_25" data-name="Path 25" d="M253.092,219.822l-1.7,2.775-1.635-2.775h-1.791v.089l2.62,4.152v2.953h1.59v-3l2.642-4.107v-.089Z" transform="translate(-146.595 -190.261)" fill="#a50a2e"/>
    </g>
    <g id="Group_2" data-name="Group 2" transform="translate(112.948)">
      <path id="Path_26" data-name="Path 26" d="M287.37,199.552l9-10.641s-4.233-4.233-4.359-4.357a.971.971,0,0,0-.787-.295H273.382a.624.624,0,0,0-.443,1.058C276.576,188.9,287.37,199.552,287.37,199.552Z" transform="translate(-250.83 -184.259)" fill="#a50a2e"/>
      <path id="Path_27" data-name="Path 27" d="M324.49,210.764l-23.8-24.038-.034-.034h0a.63.63,0,0,0-.884,0c-2.222,2.626-42.687,50.419-43.049,50.875s-.254,1.058.629,1.058h39.35a1.49,1.49,0,0,0,1.2-.458L324.49,211.64A.623.623,0,0,0,324.49,210.764Z" transform="translate(-256.532 -183.468)" fill="url(#linear-gradient)"/>
    </g>
  </g>
</svg>
