<svg xmlns="http://www.w3.org/2000/svg" width="70" height="70" viewBox="0 0 70 70">
  <g id="Group_4016" data-name="Group 4016" transform="translate(-216.596 -6473)">
    <path id="Path_307" data-name="Path 307" d="M-9.75-9.75C-6.948-12.889,5.125-15,20-15s27.538,3.066,29.75,5.25S55,6.175,55,21.05s-2.692,26.179-5.25,28.7S34.875,55,20,55-7.194,51.787-9.75,49.75-15,35.925-15,21.05-12.552-6.611-9.75-9.75Z" transform="translate(231.596 6488)" fill="#ee9c47"/>
    <path id="Icon_feather-phone-call" data-name="Icon feather-phone-call" d="M21.724,7.237A7.171,7.171,0,0,1,27.389,12.9M21.724,1.5a12.908,12.908,0,0,1,11.4,11.388M31.692,24.333v4.3A2.868,2.868,0,0,1,28.565,31.5a28.383,28.383,0,0,1-12.377-4.4A27.967,27.967,0,0,1,7.583,18.5a28.383,28.383,0,0,1-4.4-12.435A2.868,2.868,0,0,1,6.034,2.934h4.3A2.868,2.868,0,0,1,13.2,5.4a18.415,18.415,0,0,0,1,4.03,2.868,2.868,0,0,1-.645,3.026l-1.821,1.821a22.948,22.948,0,0,0,8.605,8.605l1.821-1.821a2.868,2.868,0,0,1,3.026-.645,18.416,18.416,0,0,0,4.03,1A2.868,2.868,0,0,1,31.692,24.333Z" transform="translate(233.665 6491.957)" fill="none" stroke="#fff" stroke-linecap="round" stroke-linejoin="round" stroke-width="3"/>
  </g>
</svg>
