<svg id="Google_Play_-_eng" data-name="Google Play - eng" xmlns="http://www.w3.org/2000/svg" width="170.983" height="54.567" viewBox="0 0 170.983 54.567">
  <path id="Path_500" data-name="Path 500" d="M164.65,1.091a5.134,5.134,0,0,1,3.762,1.678,5.962,5.962,0,0,1,1.558,4.051V47.746a5.962,5.962,0,0,1-1.558,4.051,5.134,5.134,0,0,1-3.762,1.678H6.333A5.134,5.134,0,0,1,2.571,51.8a5.961,5.961,0,0,1-1.558-4.051V6.821A5.961,5.961,0,0,1,2.571,2.769,5.134,5.134,0,0,1,6.333,1.091Zm0-1.091H6.333A6.112,6.112,0,0,0,1.855,2,7.1,7.1,0,0,0,0,6.821V47.746a7.1,7.1,0,0,0,1.855,4.823,6.112,6.112,0,0,0,4.478,2H164.65a6.112,6.112,0,0,0,4.478-2,7.1,7.1,0,0,0,1.855-4.823V6.821A7.1,7.1,0,0,0,169.128,2,6.111,6.111,0,0,0,164.65,0Z" transform="translate(0 0)" fill="#fff"/>
  <path id="Path_501" data-name="Path 501" d="M99.931,33.214A5.383,5.383,0,1,0,105.34,38.6a5.307,5.307,0,0,0-5.408-5.383Zm0,8.65a3.268,3.268,0,1,1,3.04-3.268,3.116,3.116,0,0,1-3.04,3.268ZM88.14,33.214a5.383,5.383,0,1,0,5.4,5.383,5.307,5.307,0,0,0-5.408-5.383Zm0,8.65A3.268,3.268,0,1,1,91.167,38.6a3.116,3.116,0,0,1-3.04,3.268ZM74.094,34.874v2.28h5.471A4.775,4.775,0,0,1,78.3,40.028,5.6,5.6,0,0,1,74.081,41.7a6.079,6.079,0,1,1,0-12.159,5.826,5.826,0,0,1,4.142,1.634l1.609-1.609A7.967,7.967,0,0,0,74.094,27.2a8.372,8.372,0,1,0,0,16.731,7.393,7.393,0,0,0,7.815-7.688,7.43,7.43,0,0,0-.127-1.431Zm57.387,1.773A4.979,4.979,0,0,0,121.8,38.6a5.269,5.269,0,0,0,5.345,5.383,5.357,5.357,0,0,0,4.484-2.381L129.8,40.332a3.078,3.078,0,0,1-2.647,1.495,2.735,2.735,0,0,1-2.609-1.634l7.207-2.976Zm-7.346,1.8a2.951,2.951,0,0,1,2.812-3.141,2.09,2.09,0,0,1,2,1.14Zm-5.851,5.218h2.368V27.832h-2.368Zm-3.876-9.246h-.089a3.8,3.8,0,0,0-2.837-1.267,5.4,5.4,0,0,0,0,10.778,3.672,3.672,0,0,0,2.837-1.267h.076v.773c0,2.064-1.1,3.166-2.875,3.166a2.976,2.976,0,0,1-2.71-1.912l-2.064.861a5.129,5.129,0,0,0,4.775,3.179c2.774,0,5.066-1.634,5.066-5.611V33.531h-2.178Zm-2.71,7.447a3.28,3.28,0,0,1,0-6.535,3.04,3.04,0,0,1,2.875,3.268,3.015,3.015,0,0,1-2.888,3.268Zm30.878-14.033h-5.661V43.663h2.368v-6h3.306a4.927,4.927,0,1,0,0-9.828Zm0,7.6H139.27v-5.4h3.356a2.717,2.717,0,1,1,0,5.433Zm14.6-2.28a4.433,4.433,0,0,0-4.218,2.419l2.1.874a2.241,2.241,0,0,1,2.153-1.165,2.28,2.28,0,0,1,2.533,2.039v.165a5.232,5.232,0,0,0-2.47-.608c-2.267,0-4.56,1.267-4.56,3.559a3.661,3.661,0,0,0,3.926,3.483,3.332,3.332,0,0,0,3.04-1.52h.076v1.267h2.28V37.571c0-2.774-2.1-4.382-4.8-4.382Zm-.291,8.676c-.773,0-1.849-.393-1.849-1.343,0-1.267,1.343-1.685,2.533-1.685a4.2,4.2,0,0,1,2.153.532,2.863,2.863,0,0,1-2.774,2.533Zm13.463-8.3-2.71,6.865h-.076l-2.812-6.865H162.22l4.218,9.6-2.406,5.332h2.47l6.485-14.933ZM149.06,43.663h2.368V27.832H149.06Z" transform="translate(-13.63 -1.762)" fill="#fff"/>
  <path id="Path_502" data-name="Path 502" d="M73.746,15.355a3.433,3.433,0,0,1-.95,2.533,3.686,3.686,0,0,1-2.786,1.127,3.99,3.99,0,0,1-2.8-6.8,3.8,3.8,0,0,1,2.8-1.14,3.926,3.926,0,0,1,1.558.317,3.129,3.129,0,0,1,1.191.849l-.671.671a2.533,2.533,0,0,0-2.077-.9,2.938,2.938,0,0,0-2.951,3.04,2.989,2.989,0,0,0,5.066,2.191,2.394,2.394,0,0,0,.633-1.545H70.01v-.912H73.7A3.223,3.223,0,0,1,73.746,15.355Zm5.8-3.166h-3.42v2.406h3.116v.912H76.127v2.406h3.42v.937H75.114v-7.6h4.433ZM83.7,18.851h-.975V12.189H80.6v-.937H85.88v.937H83.7Zm5.9,0v-7.6h.975v7.6Zm5.307,0h-.975V12.189H91.807v-.937h5.218v.937H94.91Zm12.007-.988a3.952,3.952,0,0,1-5.573,0,4.1,4.1,0,0,1,0-5.636,3.926,3.926,0,0,1,5.573,0,4.09,4.09,0,0,1,0,5.636Zm-4.851-.633a2.926,2.926,0,0,0,4.129,0,3.243,3.243,0,0,0,0-4.357,2.926,2.926,0,0,0-4.129,0,3.243,3.243,0,0,0,0,4.357Zm7.346,1.621v-7.6H110.6l3.7,5.915V11.251h.975v7.6h-1.013L110.4,12.657v6.193Z" transform="translate(-13.766 -1.505)" fill="#fff"/>
  <path id="Path_503" data-name="Path 503" d="M104.1,11.16a3.8,3.8,0,0,0-2.7,1.122,3.976,3.976,0,0,0,0,5.46,3.825,3.825,0,0,0,5.391,0,3.964,3.964,0,0,0,0-5.459,3.8,3.8,0,0,0-2.7-1.122Zm-1.558.058a4.054,4.054,0,0,1,4.434.886l0,0a4.217,4.217,0,0,1,0,5.811l0,0a4.079,4.079,0,0,1-5.752,0l0,0a4.229,4.229,0,0,1,0-5.81l0,0A4.049,4.049,0,0,1,102.539,11.218Zm-32.565-.051a3.673,3.673,0,0,0-2.706,1.1h0a3.863,3.863,0,0,0,2.71,6.585h0a3.558,3.558,0,0,0,2.69-1.088,3.306,3.306,0,0,0,.915-2.44l.127-.006h-.127a3.1,3.1,0,0,0-.032-.443H70.1v.659h2.753l0,.131a2.521,2.521,0,0,1-.667,1.627l0,.005A3.116,3.116,0,0,1,66.9,15.019a3.065,3.065,0,0,1,3.075-3.168,2.66,2.66,0,0,1,2.086.841l.491-.491a3,3,0,0,0-1.063-.727h0a3.8,3.8,0,0,0-1.508-.306Zm3.866,4.151a3.56,3.56,0,0,1-.985,2.624,3.813,3.813,0,0,1-2.881,1.166,4.116,4.116,0,0,1-2.886-7.017,3.926,3.926,0,0,1,2.89-1.178,4.052,4.052,0,0,1,1.605.326,3.255,3.255,0,0,1,1.237.882l.077.089-.852.852-.089-.106a2.407,2.407,0,0,0-1.973-.854h-.008a2.811,2.811,0,0,0-2.824,2.908v.006A2.862,2.862,0,0,0,72,17.12a2.267,2.267,0,0,0,.589-1.33H69.85V14.625h3.918l.019.1A3.346,3.346,0,0,1,73.84,15.319Zm1.115-4.227H79.64v1.191h-3.42v2.153h3.116V15.6H76.221v2.153h3.42v1.191H74.954Zm.253.253v7.346h4.18v-.684h-3.42v-2.66h3.116v-.659H75.967v-2.66h3.42v-.684Zm5.231-.253h5.535v1.191H83.795v6.662H82.566V12.282H80.438Zm.253.253v.684h2.128v6.662h.722V12.029H85.72v-.684Zm8.752-.253h1.229v7.853H89.443Zm.253.253v7.346h.722V11.345Zm1.95-.253h5.471v1.191H95v6.662H93.775V12.282H91.647Zm.253.253v.684h2.128v6.662h.722V12.029h2.115v-.684Zm17.351-.253h1.388l3.5,5.6v-5.6h1.229v7.853h-1.21l-3.666-5.878v5.878h-1.241Zm.253.253v7.346h.735V12.181l4.06,6.509h.816V11.345h-.722v6.23l-3.9-6.23Zm-7.562,1.4a3.053,3.053,0,0,1,4.308,0l0,0a3.371,3.371,0,0,1,0,4.527l0,0a3.053,3.053,0,0,1-4.308,0l.089-.09-.093.085a3.368,3.368,0,0,1,0-4.527Zm.181,4.359a2.8,2.8,0,0,0,3.945,0,3.116,3.116,0,0,0,0-4.182,2.8,2.8,0,0,0-3.945,0,3.116,3.116,0,0,0,0,4.182Z" transform="translate(-13.733 -1.479)" fill="#fff" fill-rule="evenodd"/>
  <path id="Path_504" data-name="Path 504" d="M16.619,47.757,32.135,29.709l-15.5-18.015a2.117,2.117,0,0,0-.67,1.78v32.52A2.163,2.163,0,0,0,16.619,47.757Z" transform="translate(-3.327 -2.437)" fill="#ee9c47"/>
  <path id="Path_505" data-name="Path 505" d="M33.082,27.269,37.7,22.474,18.883,11.77a2.026,2.026,0,0,0-1.044-.292L33.081,27.267Z" transform="translate(-3.718 -1.375)" fill="#ee9c47"/>
  <path id="Path_506" data-name="Path 506" d="M33.07,32.551,17.781,48.41a2.018,2.018,0,0,0,1.092-.3L37.731,37.376Z" transform="translate(-3.706 -3.893)" fill="#ee9c47"/>
  <path id="Path_507" data-name="Path 507" d="M48.649,29.337l-6.263-3.569-4.748,4.925,4.783,4.956,6.226-3.559C49.971,31.334,49.971,30.089,48.649,29.337Z" transform="translate(-7.844 -3.417)" fill="#ee9c47"/>
</svg>
