<svg xmlns="http://www.w3.org/2000/svg" width="52.075" height="26.675" viewBox="0 0 52.075 26.675">
  <g id="_4023881-aerial-drone-uav-unmanned-vehicle_112869" data-name="4023881-aerial-drone-uav-unmanned-vehicle_112869" transform="translate(0)">
    <g id="Group_1896" data-name="Group 1896" transform="translate(0 0)">
      <g id="Group_1894" data-name="Group 1894" transform="translate(0 0)">
        <path id="Path_1922" data-name="Path 1922" d="M26.563,154.982a2.884,2.884,0,1,0,2.04.848A2.772,2.772,0,0,0,26.563,154.982Zm2.33-6.734h.136a7.817,7.817,0,0,1,2.733.5,4.809,4.809,0,0,1,1.95,1.411H42.89v-2.655q-1.685-.032-3.112-.154-1.014-.087-1.9-.219-2.523-.371-2.526-.9t2.526-.9a40.017,40.017,0,0,1,5.01-.356v-.124a1.163,1.163,0,0,1,.065-.409,1.242,1.242,0,0,1,.3-.486,1.2,1.2,0,0,1,.889-.362,1.227,1.227,0,0,1,.9.362,1.25,1.25,0,0,1,.373.859v.16q.977.027,1.867.089,1.521.085,2.781.267l.142.03q2.388.362,2.4.865-.008.509-2.4.871l-.142.024a37.583,37.583,0,0,1-4.648.362v2.667h1.1a1.225,1.225,0,0,1,.9.373,1.25,1.25,0,0,1,.184,1.553,1.717,1.717,0,0,1-.937.6l-10.386,2.49,3.966,8.311c.023.041.045.083.065.124a5.069,5.069,0,0,1-1.986,6.42,1.226,1.226,0,0,1-.943.225,1.266,1.266,0,0,1-.516-2.282,2.772,2.772,0,0,0,1.061-3.5l-4.168-8.7-1.085.267v4.333a1.7,1.7,0,0,1-.231.866v.006a1.709,1.709,0,0,1-.634.628l-4.375,2.519v.006a1.717,1.717,0,0,1-1.731-.006l-4.369-2.525-.012-.006a1.71,1.71,0,0,1-.622-.634,1.686,1.686,0,0,1-.231-.86v-4.327l-1.091-.267-4.168,8.7a2.772,2.772,0,0,0,1.061,3.5,1.261,1.261,0,1,1-1.458,2.057,5.069,5.069,0,0,1-1.986-6.42c.02-.042.042-.083.065-.124l3.966-8.311-10.387-2.49a1.715,1.715,0,0,1-.937-.6,1.249,1.249,0,0,1,.184-1.553,1.225,1.225,0,0,1,.9-.373h1.1V147.5a37.573,37.573,0,0,1-4.648-.362l-.142-.024q-2.388-.363-2.4-.871.008-.5,2.4-.865l.142-.03q1.26-.182,2.78-.267.891-.062,1.868-.089v-.16a1.252,1.252,0,0,1,.374-.859,1.226,1.226,0,0,1,.9-.362,1.2,1.2,0,0,1,.889.362,1.24,1.24,0,0,1,.3.486,1.158,1.158,0,0,1,.065.409v.124a40.061,40.061,0,0,1,5.01.356q2.523.374,2.526.9t-2.526.9q-.883.132-1.9.219-1.428.122-3.112.154v2.655h9.177a4.808,4.808,0,0,1,1.95-1.411,7.816,7.816,0,0,1,2.733-.5h.136c.119,0,.242,0,.367,0h3.924Q28.714,148.242,28.893,148.248Z" transform="translate(-0.526 -143.607)" fill="#ff577e" fill-rule="evenodd"/>
      </g>
      <g id="Group_1895" data-name="Group 1895" transform="translate(24.591 12.816)">
        <path id="Path_1923" data-name="Path 1923" d="M243.358,269.413a1.4,1.4,0,0,1,1.02.427,1.438,1.438,0,0,1-2.034,2.033,1.443,1.443,0,0,1,1.014-2.46Z" transform="translate(-241.917 -269.413)" fill="#ff577e" fill-rule="evenodd"/>
      </g>
    </g>
  </g>
</svg>
