<svg xmlns="http://www.w3.org/2000/svg" width="151.021" height="53.681" viewBox="0 0 151.021 53.681">
  <g id="Group_4019" data-name="Group 4019" transform="translate(-320.666 -420.532)">
    <g id="Group_3924" data-name="Group 3924" transform="translate(320.665 420.532)">
      <g id="Group_3922" data-name="Group 3922" transform="translate(61.06 0)">
        <g id="Group_3919" data-name="Group 3919" transform="translate(0 0.976)">
          <path id="Path_7958" data-name="Path 7958" d="M387.864,421.624h14.893c5.389,0,8.147,3.437,8.147,7.214a6.287,6.287,0,0,1-4.879,6.492,6.857,6.857,0,0,1,5.431,6.959c0,4.242-2.842,7.637-8.232,7.637H387.864ZM401.442,433a3.124,3.124,0,1,0,0-6.238h-7.553V433Zm.212,11.8c2.291,0,3.648-1.315,3.648-3.352a3.307,3.307,0,0,0-3.648-3.31h-7.765v6.661Z" transform="translate(-387.864 -421.624)" fill="#3c3c3c"/>
        </g>
        <g id="Group_3920" data-name="Group 3920" transform="translate(32.782 0.976)">
          <path id="Path_7959" data-name="Path 7959" d="M424.542,421.624H437.78c6.153,0,9.5,4.159,9.5,9.123,0,4.922-3.394,9.039-9.5,9.039h-7.213v10.141h-6.026Zm12.433,5.178h-6.407v7.807h6.407a3.911,3.911,0,1,0,0-7.807Z" transform="translate(-424.542 -421.624)" fill="#3c3c3c"/>
        </g>
        <g id="Group_3921" data-name="Group 3921" transform="translate(63.06)">
          <path id="Path_7960" data-name="Path 7960" d="M458.419,435.171c0-8.7,6.576-14.639,14.851-14.639a13.06,13.06,0,0,1,12.051,6.917l-5.177,2.545a7.752,7.752,0,0,0-6.874-4.116c-4.923,0-8.656,3.946-8.656,9.293s3.733,9.293,8.656,9.293a7.673,7.673,0,0,0,6.874-4.116l5.177,2.5a13.139,13.139,0,0,1-12.051,6.959C465,449.81,458.419,443.869,458.419,435.171Z" transform="translate(-458.419 -420.532)" fill="#3c3c3c"/>
        </g>
      </g>
      <path id="Path_7961" data-name="Path 7961" d="M362.195,421.624h-4.232v5.3h4.232c5.814,0,8.868,3.861,8.868,8.868a8.471,8.471,0,0,1-8.868,8.825h-4.232v5.3h4.232c8.868,0,15.021-5.6,15.021-14.13S371.063,421.624,362.195,421.624Z" transform="translate(-324.373 -420.648)" fill="#3c3c3c"/>
      <g id="Group_3923" data-name="Group 3923">
        <path id="Path_7962" data-name="Path 7962" d="M320.665,448.616l20.061-20.061v-8.023L320.665,440.6Z" transform="translate(-320.665 -420.532)" fill="#a50a2e"/>
        <path id="Path_7963" data-name="Path 7963" d="M320.665,468.308l20.061-20.064v-6.483l-20.061,20.062Z" transform="translate(-320.665 -422.787)" fill="#a50a2e"/>
        <path id="Path_7964" data-name="Path 7964" d="M330.39,448.768l20.064-20.061v-6.741L330.39,442.03Z" transform="translate(-321.698 -420.684)" fill="#a50a2e"/>
        <path id="Path_7965" data-name="Path 7965" d="M350.454,441.475,330.39,461.536v6.741l20.064-20.064Z" transform="translate(-321.698 -422.757)" fill="#a50a2e"/>
      </g>
    </g>
    <g id="Group_4020" data-name="Group 4020" transform="translate(-52.36 146.727)">
      <g id="Group_4020-2" data-name="Group 4020" transform="translate(406.692 310.805)">
        <path id="Path_8153" data-name="Path 8153" d="M406.768,311.071h1.275a2.431,2.431,0,1,1,0,4.861h-1.275Zm.8,4.088h.414a1.658,1.658,0,1,0,0-3.314h-.414Z" transform="translate(-406.768 -310.832)" fill="#202020"/>
        <path id="Path_8154" data-name="Path 8154" d="M411.936,314.131v-3.06h.8v3.012a1.026,1.026,0,1,0,2.04,0v-3.012h.8v3.06a1.818,1.818,0,1,1-3.634,0Z" transform="translate(-407.298 -310.832)" fill="#202020"/>
        <path id="Path_8155" data-name="Path 8155" d="M417.477,311.071h1.354a1.393,1.393,0,0,1,1.554,1.339,1.1,1.1,0,0,1-.565.988,1.15,1.15,0,0,1,.693,1.091,1.465,1.465,0,0,1-1.6,1.442h-1.434Zm1.354,1.992c.454,0,.725-.231.725-.622s-.271-.621-.725-.621h-.557v1.243Zm.032,2.119c.518,0,.82-.27.82-.709s-.3-.7-.82-.7h-.59v1.41Z" transform="translate(-407.866 -310.832)" fill="#202020"/>
        <path id="Path_8156" data-name="Path 8156" d="M424.517,315.14h-2.056l-.311.765h-.828l2.183-5.1,2.176,5.1h-.845Zm-1.036-2.518-.717,1.761h1.442Z" transform="translate(-408.26 -310.805)" fill="#202020"/>
        <path id="Path_8157" data-name="Path 8157" d="M426.942,311.071h.8v4.861h-.8Z" transform="translate(-408.836 -310.832)" fill="#202020"/>
        <path id="Path_8158" data-name="Path 8158" d="M431.56,311.071h1.354a1.393,1.393,0,0,1,1.554,1.339,1.1,1.1,0,0,1-.565.988,1.15,1.15,0,0,1,.693,1.091,1.465,1.465,0,0,1-1.6,1.442H431.56Zm1.354,1.992c.454,0,.725-.231.725-.622s-.271-.621-.725-.621h-.558v1.243Zm.031,2.119c.519,0,.821-.27.821-.709s-.3-.7-.821-.7h-.59v1.41Z" transform="translate(-409.31 -310.832)" fill="#202020"/>
        <path id="Path_8159" data-name="Path 8159" d="M436.133,314.131v-3.06h.8v3.012a1.026,1.026,0,1,0,2.04,0v-3.012h.8v3.06a1.818,1.818,0,1,1-3.633,0Z" transform="translate(-409.778 -310.832)" fill="#202020"/>
        <path id="Path_8160" data-name="Path 8160" d="M441.673,311.071h.8v4.861h-.8Z" transform="translate(-410.346 -310.832)" fill="#202020"/>
        <path id="Path_8161" data-name="Path 8161" d="M444.16,311.071h.8v4.088h1.482l.136.773H444.16Z" transform="translate(-410.601 -310.832)" fill="#202020"/>
        <path id="Path_8162" data-name="Path 8162" d="M447.791,311.071h1.275a2.431,2.431,0,1,1,0,4.861h-1.275Zm.8,4.088H449a1.657,1.657,0,1,0,0-3.314h-.415Z" transform="translate(-410.974 -310.832)" fill="#202020"/>
        <path id="Path_8163" data-name="Path 8163" d="M453.066,311.071h.8v4.861h-.8Z" transform="translate(-411.514 -310.832)" fill="#202020"/>
        <path id="Path_8164" data-name="Path 8164" d="M456.307,312.813v3.092h-.781v-5.092l3.027,3.323v-3.092h.782v5.091Z" transform="translate(-411.767 -310.806)" fill="#202020"/>
        <path id="Path_8165" data-name="Path 8165" d="M463.317,315.932a2.431,2.431,0,1,1,0-4.861h.941l-.136.774h-.741a1.657,1.657,0,1,0,0,3.314h.415v-1.315h-.837l.136-.774h1.5v2.861Z" transform="translate(-412.314 -310.832)" fill="#202020"/>
        <path id="Path_8166" data-name="Path 8166" d="M469.366,314.72v1.212h-.8v-4.861h1.171a1.825,1.825,0,1,1,0,3.649Zm0-2.876v2.1h.327a.982.982,0,0,0,1.06-1.069.972.972,0,0,0-1.06-1.035Z" transform="translate(-413.104 -310.832)" fill="#202020"/>
        <path id="Path_8167" data-name="Path 8167" d="M473.027,311.071h2.414l-.136.774h-1.482v1.226h1.482v.774h-1.482v1.315h1.482l.136.773h-2.414Z" transform="translate(-413.561 -310.832)" fill="#202020"/>
        <path id="Path_8168" data-name="Path 8168" d="M477.882,314.122v1.809h-.8v-4.861H478.3a1.585,1.585,0,0,1,1.729,1.674,1.511,1.511,0,0,1-1.091,1.513l1.227,1.674h-.98Zm0-2.278v1.864h.279c.677,0,1.044-.351,1.044-.932a.879.879,0,0,0-.949-.932Z" transform="translate(-413.977 -310.832)" fill="#202020"/>
        <path id="Path_8169" data-name="Path 8169" d="M482.386,312.788V315.9h-.781v-5.1l2.334,2.63,2.335-2.63v5.1h-.782v-3.116l-1.57,1.738Z" transform="translate(-414.44 -310.805)" fill="#202020"/>
        <path id="Path_8170" data-name="Path 8170" d="M488.38,311.071h.8v4.861h-.8Z" transform="translate(-415.135 -310.832)" fill="#202020"/>
        <path id="Path_8171" data-name="Path 8171" d="M492.183,311.845v4.087h-.8v-4.087h-1.06l-.136-.774h3.188l-.136.774Z" transform="translate(-415.32 -310.832)" fill="#202020"/>
        <path id="Path_8172" data-name="Path 8172" d="M496.371,314.458a2.068,2.068,0,0,1,1.132-1.674l.287-.191-1.06-1.522H500l-.136.774h-1.65l2.853,4.087h-.957l-.477-.686-.279.207a2.357,2.357,0,0,1-1.426.558A1.523,1.523,0,0,1,496.371,314.458Zm2.566.366.263-.2-.98-1.41-.286.191a1.344,1.344,0,0,0-.733,1.052.744.744,0,0,0,.765.757A1.469,1.469,0,0,0,498.937,314.824Z" transform="translate(-415.954 -310.832)" fill="#202020"/>
        <path id="Path_8173" data-name="Path 8173" d="M503.883,313.485a2.3,2.3,0,0,1,2.455-2.414h.59l-.136.774h-.39a1.657,1.657,0,1,0,0,3.314h.39l.136.773h-.59A2.3,2.3,0,0,1,503.883,313.485Z" transform="translate(-416.724 -310.832)" fill="#202020"/>
        <path id="Path_8174" data-name="Path 8174" d="M507.826,313.476a2.494,2.494,0,1,1,4.988,0,2.494,2.494,0,1,1-4.988,0Zm4.16,0a1.667,1.667,0,1,0-1.666,1.729A1.624,1.624,0,0,0,511.986,313.476Z" transform="translate(-417.128 -310.823)" fill="#202020"/>
        <path id="Path_8175" data-name="Path 8175" d="M515.258,312.813v3.092h-.781v-5.092l3.028,3.323v-3.092h.781v5.091Z" transform="translate(-417.81 -310.806)" fill="#202020"/>
        <path id="Path_8176" data-name="Path 8176" d="M521.61,311.845v4.087h-.8v-4.087h-1.06l-.136-.774H522.8l-.135.774Z" transform="translate(-418.337 -310.832)" fill="#202020"/>
        <path id="Path_8177" data-name="Path 8177" d="M524.89,314.122v1.809h-.8v-4.861h1.22a1.584,1.584,0,0,1,1.729,1.674,1.511,1.511,0,0,1-1.091,1.513l1.227,1.674h-.98Zm0-2.278v1.864h.279c.677,0,1.044-.351,1.044-.932a.878.878,0,0,0-.949-.932Z" transform="translate(-418.796 -310.832)" fill="#202020"/>
        <path id="Path_8178" data-name="Path 8178" d="M528.16,313.476a2.494,2.494,0,1,1,4.988,0,2.494,2.494,0,1,1-4.988,0Zm4.16,0a1.667,1.667,0,1,0-1.666,1.729A1.624,1.624,0,0,0,532.32,313.476Z" transform="translate(-419.213 -310.823)" fill="#202020"/>
        <path id="Path_8179" data-name="Path 8179" d="M534.837,311.071h.8v4.088h1.483l.135.773h-2.415Z" transform="translate(-419.897 -310.832)" fill="#202020"/>
      </g>
      <g id="Group_4021" data-name="Group 4021" transform="translate(406.026 320.202)">
        <path id="Path_8180" data-name="Path 8180" d="M406.495,325.651a.979.979,0,0,1-.12-.268,1.163,1.163,0,0,1-.045-.337,1.248,1.248,0,0,1,.066-.392,1,1,0,0,1,.206-.358,1.078,1.078,0,0,1,.361-.258,1.3,1.3,0,0,1,.538-.1,1.277,1.277,0,0,1,.547.114.945.945,0,0,1,.381.306c.019.028.025.048.021.062a.178.178,0,0,1-.021.041l-.289.283a.075.075,0,0,1-.11,0,1.039,1.039,0,0,0-.237-.169.614.614,0,0,0-.286-.066.492.492,0,0,0-.385.152.562.562,0,0,0-.138.392.666.666,0,0,0,.1.365.84.84,0,0,0,.2.233h1.157c.046,0,.068.026.068.076v.426c0,.05-.022.076-.068.076H406.1c-.046,0-.069-.026-.069-.076v-.426c0-.05.023-.076.069-.076Z" transform="translate(-406.026 -321.548)" fill="#202020"/>
        <path id="Path_8181" data-name="Path 8181" d="M409.486,321.344a.061.061,0,0,1,.068-.069h.641a.061.061,0,0,1,.068.069v3.567a.4.4,0,0,0,.08.285.342.342,0,0,0,.251.079h.241a.259.259,0,0,1,.206.08.415.415,0,0,1,.069.272.383.383,0,0,1-.065.272.314.314,0,0,1-.21.058h-.544a.791.791,0,0,1-.619-.21.974.974,0,0,1-.186-.658Z" transform="translate(-406.381 -321.275)" fill="#202020"/>
        <path id="Path_8182" data-name="Path 8182" d="M410.962,326.414a.224.224,0,0,1-.189-.069.453.453,0,0,1-.051-.255.582.582,0,0,1,.048-.282.214.214,0,0,1,.193-.076h.826a.268.268,0,0,1,.207.076.388.388,0,0,1,.068.261.412.412,0,0,1-.066.279.288.288,0,0,1-.21.066Z" transform="translate(-406.507 -321.732)" fill="#202020"/>
        <path id="Path_8183" data-name="Path 8183" d="M411.882,326.414a.222.222,0,0,1-.188-.069.444.444,0,0,1-.052-.255.568.568,0,0,1,.048-.282.212.212,0,0,1,.192-.076h.827a.266.266,0,0,1,.206.076.388.388,0,0,1,.069.261.416.416,0,0,1-.066.279.291.291,0,0,1-.21.066Z" transform="translate(-406.602 -321.732)" fill="#202020"/>
        <path id="Path_8184" data-name="Path 8184" d="M412.8,326.414a.224.224,0,0,1-.189-.069.452.452,0,0,1-.052-.255.569.569,0,0,1,.048-.282.213.213,0,0,1,.193-.076h.826a.265.265,0,0,1,.206.076.383.383,0,0,1,.069.261.412.412,0,0,1-.065.279.288.288,0,0,1-.21.066Z" transform="translate(-406.696 -321.732)" fill="#202020"/>
        <path id="Path_8185" data-name="Path 8185" d="M413.723,326.414a.225.225,0,0,1-.189-.069.453.453,0,0,1-.051-.255.568.568,0,0,1,.048-.282.211.211,0,0,1,.192-.076h.827a.266.266,0,0,1,.206.076.388.388,0,0,1,.069.261.417.417,0,0,1-.065.279.291.291,0,0,1-.21.066Z" transform="translate(-406.79 -321.732)" fill="#202020"/>
        <path id="Path_8186" data-name="Path 8186" d="M414.643,326.414a.224.224,0,0,1-.189-.069.451.451,0,0,1-.052-.255.569.569,0,0,1,.048-.282.213.213,0,0,1,.193-.076h.826a.265.265,0,0,1,.206.076.388.388,0,0,1,.069.261.411.411,0,0,1-.066.279.288.288,0,0,1-.21.066Z" transform="translate(-406.885 -321.732)" fill="#202020"/>
        <path id="Path_8187" data-name="Path 8187" d="M415.564,326.414a.225.225,0,0,1-.189-.069.453.453,0,0,1-.051-.255.582.582,0,0,1,.048-.282.214.214,0,0,1,.193-.076h.827a.266.266,0,0,1,.206.076.388.388,0,0,1,.069.261.416.416,0,0,1-.066.279.291.291,0,0,1-.21.066Z" transform="translate(-406.979 -321.732)" fill="#202020"/>
        <path id="Path_8188" data-name="Path 8188" d="M416.484,326.414a.223.223,0,0,1-.189-.069.444.444,0,0,1-.052-.255.568.568,0,0,1,.048-.282.213.213,0,0,1,.193-.076h.826a.266.266,0,0,1,.206.076.387.387,0,0,1,.069.261.411.411,0,0,1-.066.279.291.291,0,0,1-.21.066Z" transform="translate(-407.073 -321.732)" fill="#202020"/>
        <path id="Path_8189" data-name="Path 8189" d="M417.4,326.414a.225.225,0,0,1-.189-.069.453.453,0,0,1-.051-.255.582.582,0,0,1,.048-.282.214.214,0,0,1,.193-.076h.827a.266.266,0,0,1,.206.076.388.388,0,0,1,.068.261.417.417,0,0,1-.065.279.291.291,0,0,1-.21.066Z" transform="translate(-407.168 -321.732)" fill="#202020"/>
        <path id="Path_8190" data-name="Path 8190" d="M418.325,326.414a.223.223,0,0,1-.189-.069.444.444,0,0,1-.052-.255.569.569,0,0,1,.048-.282.213.213,0,0,1,.193-.076h.826a.266.266,0,0,1,.206.076.388.388,0,0,1,.069.261.411.411,0,0,1-.066.279.291.291,0,0,1-.21.066Z" transform="translate(-407.262 -321.732)" fill="#202020"/>
        <path id="Path_8191" data-name="Path 8191" d="M419.246,326.414a.224.224,0,0,1-.189-.069.453.453,0,0,1-.051-.255.581.581,0,0,1,.048-.282.214.214,0,0,1,.193-.076h.827a.268.268,0,0,1,.206.076.388.388,0,0,1,.068.261.412.412,0,0,1-.065.279.287.287,0,0,1-.209.066Z" transform="translate(-407.357 -321.732)" fill="#202020"/>
        <path id="Path_8192" data-name="Path 8192" d="M420.166,326.414a.225.225,0,0,1-.189-.069.453.453,0,0,1-.051-.255.568.568,0,0,1,.048-.282.211.211,0,0,1,.192-.076h.827a.266.266,0,0,1,.206.076.388.388,0,0,1,.069.261.416.416,0,0,1-.066.279.291.291,0,0,1-.21.066Z" transform="translate(-407.451 -321.732)" fill="#202020"/>
        <path id="Path_8193" data-name="Path 8193" d="M421.086,326.414a.224.224,0,0,1-.189-.069.451.451,0,0,1-.052-.255.569.569,0,0,1,.048-.282.214.214,0,0,1,.193-.076h.826a.268.268,0,0,1,.207.076.388.388,0,0,1,.068.261.412.412,0,0,1-.065.279.288.288,0,0,1-.21.066Z" transform="translate(-407.545 -321.732)" fill="#202020"/>
        <path id="Path_8194" data-name="Path 8194" d="M422.007,326.414a.225.225,0,0,1-.189-.069.453.453,0,0,1-.051-.255.568.568,0,0,1,.048-.282.211.211,0,0,1,.192-.076h.827a.266.266,0,0,1,.206.076.388.388,0,0,1,.069.261.417.417,0,0,1-.065.279.291.291,0,0,1-.21.066Z" transform="translate(-407.64 -321.732)" fill="#202020"/>
        <path id="Path_8195" data-name="Path 8195" d="M422.927,326.414a.224.224,0,0,1-.189-.069.452.452,0,0,1-.052-.255.569.569,0,0,1,.048-.282.213.213,0,0,1,.193-.076h.826a.265.265,0,0,1,.206.076.388.388,0,0,1,.069.261.412.412,0,0,1-.066.279.288.288,0,0,1-.21.066Z" transform="translate(-407.734 -321.732)" fill="#202020"/>
        <path id="Path_8196" data-name="Path 8196" d="M423.848,326.414a.225.225,0,0,1-.189-.069.453.453,0,0,1-.051-.255.582.582,0,0,1,.048-.282.214.214,0,0,1,.193-.076h.827a.266.266,0,0,1,.206.076.388.388,0,0,1,.069.261.416.416,0,0,1-.066.279.291.291,0,0,1-.21.066Z" transform="translate(-407.828 -321.732)" fill="#202020"/>
        <path id="Path_8197" data-name="Path 8197" d="M424.768,326.414a.223.223,0,0,1-.189-.069.444.444,0,0,1-.052-.255.569.569,0,0,1,.048-.282.213.213,0,0,1,.193-.076h.826a.266.266,0,0,1,.206.076.388.388,0,0,1,.069.261.412.412,0,0,1-.065.279.29.29,0,0,1-.21.066Z" transform="translate(-407.923 -321.732)" fill="#202020"/>
        <path id="Path_8198" data-name="Path 8198" d="M425.689,326.414a.225.225,0,0,1-.189-.069.453.453,0,0,1-.051-.255.582.582,0,0,1,.048-.282.214.214,0,0,1,.193-.076h.827a.266.266,0,0,1,.206.076.388.388,0,0,1,.068.261.418.418,0,0,1-.065.279.291.291,0,0,1-.21.066Z" transform="translate(-408.017 -321.732)" fill="#202020"/>
        <path id="Path_8199" data-name="Path 8199" d="M428.089,324.9a.363.363,0,0,0,.154.316.7.7,0,0,0,.416.11h.118a.266.266,0,0,1,.206.076.374.374,0,0,1,.069.254.433.433,0,0,1-.066.276.265.265,0,0,1-.21.076,1.525,1.525,0,0,1-.469-.066.557.557,0,0,1-.317-.286.525.525,0,0,1-.285.276,1.444,1.444,0,0,1-.52.076h-.544a.385.385,0,0,1-.206-.045.224.224,0,0,1-.069-.2.685.685,0,0,1,.066-.306.224.224,0,0,1,.217-.135h.33a.427.427,0,0,0,.186-.034.2.2,0,0,0,.1-.11.624.624,0,0,0,.038-.2c0-.082.007-.182.007-.3v-1.459a.061.061,0,0,1,.069-.069h.64a.061.061,0,0,1,.069.069Zm-.716-2.438a.061.061,0,0,1-.069-.069V321.8a.061.061,0,0,1,.069-.069h.661a.061.061,0,0,1,.069.069v.591a.061.061,0,0,1-.069.069Z" transform="translate(-408.111 -321.321)" fill="#202020"/>
        <path id="Path_8200" data-name="Path 8200" d="M430.467,325.057a.363.363,0,0,0,.154.316.7.7,0,0,0,.416.11h.118a.266.266,0,0,1,.206.076.374.374,0,0,1,.068.254.434.434,0,0,1-.065.276.265.265,0,0,1-.21.076,1.521,1.521,0,0,1-.469-.066.556.556,0,0,1-.317-.286.525.525,0,0,1-.285.276,1.444,1.444,0,0,1-.52.076h-.544a.385.385,0,0,1-.206-.045.224.224,0,0,1-.069-.2.685.685,0,0,1,.066-.306.223.223,0,0,1,.216-.135h.331a.426.426,0,0,0,.186-.034.2.2,0,0,0,.1-.11.625.625,0,0,0,.038-.2c0-.082.007-.182.007-.3v-1.459a.061.061,0,0,1,.069-.069h.64a.061.061,0,0,1,.069.069Zm-.716,2.416a.061.061,0,0,1-.069-.069v-.591a.061.061,0,0,1,.069-.069h.661a.061.061,0,0,1,.069.069v.591a.061.061,0,0,1-.069.069Z" transform="translate(-408.355 -321.483)" fill="#202020"/>
        <path id="Path_8201" data-name="Path 8201" d="M431.361,325.957a.292.292,0,0,1-.206-.066.372.372,0,0,1-.069-.265.434.434,0,0,1,.066-.272.258.258,0,0,1,.21-.08h.337a.343.343,0,0,0,.251-.079.4.4,0,0,0,.079-.285v-3.567a.061.061,0,0,1,.069-.069h.64a.061.061,0,0,1,.069.069v3.745a.974.974,0,0,1-.186.658.791.791,0,0,1-.619.21Z" transform="translate(-408.595 -321.275)" fill="#202020"/>
        <path id="Path_8202" data-name="Path 8202" d="M434.778,325.888a.061.061,0,0,1-.069.069h-.64a.061.061,0,0,1-.069-.069v-4.544a.061.061,0,0,1,.069-.069h.64a.061.061,0,0,1,.069.069Z" transform="translate(-408.894 -321.275)" fill="#202020"/>
        <path id="Path_8203" data-name="Path 8203" d="M439.52,322.991v-.3a.061.061,0,0,1,.069-.068h.634a.06.06,0,0,1,.068.068v2.231a.4.4,0,0,0,.079.285.345.345,0,0,0,.251.079h.262c.183,0,.276.115.276.345a.4.4,0,0,1-.066.272.291.291,0,0,1-.21.066h-.557a1,1,0,0,1-.527-.118.6.6,0,0,1-.251-.413.959.959,0,0,1-.345.186,1.407,1.407,0,0,1-.42.062,1.659,1.659,0,0,1-.505-.075,1.078,1.078,0,0,1-.692-.637,1.5,1.5,0,0,1-.1-.588,1.723,1.723,0,0,1,.113-.668,1.136,1.136,0,0,1,.3-.431,1.117,1.117,0,0,1,.43-.231,1.827,1.827,0,0,1,.5-.069Zm-1.315-.84a.061.061,0,0,1-.069-.068v-.592a.061.061,0,0,1,.069-.069h.578a.061.061,0,0,1,.069.069v.592a.061.061,0,0,1-.069.068Zm.668,2.858a.6.6,0,0,0,.489-.189.85.85,0,0,0,.158-.555v-.585h-.613a.592.592,0,0,0-.653.71.6.6,0,0,0,.165.468A.648.648,0,0,0,438.873,325.008Zm.227-2.858a.06.06,0,0,1-.068-.068v-.592a.061.061,0,0,1,.068-.069h.579a.061.061,0,0,1,.068.069v.592a.06.06,0,0,1-.068.068Z" transform="translate(-409.251 -321.29)" fill="#202020"/>
        <path id="Path_8204" data-name="Path 8204" d="M441.333,326.166a.359.359,0,0,1-.206-.048.223.223,0,0,1-.069-.193.685.685,0,0,1,.066-.306.22.22,0,0,1,.21-.135h.337a.343.343,0,0,0,.251-.079.4.4,0,0,0,.079-.285v-1.742a.061.061,0,0,1,.069-.069h.64a.061.061,0,0,1,.069.069V325.3a.974.974,0,0,1-.186.658.793.793,0,0,1-.62.21Zm.606,1.308a.061.061,0,0,1-.069-.069v-.591a.061.061,0,0,1,.069-.069h.661a.061.061,0,0,1,.069.069v.591a.061.061,0,0,1-.069.069Z" transform="translate(-409.617 -321.483)" fill="#202020"/>
        <path id="Path_8205" data-name="Path 8205" d="M443.972,321.344a.061.061,0,0,1,.069-.069h.64a.061.061,0,0,1,.069.069v3.567a.4.4,0,0,0,.079.285.343.343,0,0,0,.251.079h.241a.257.257,0,0,1,.206.08.409.409,0,0,1,.069.272.383.383,0,0,1-.066.272.311.311,0,0,1-.21.058h-.544a.791.791,0,0,1-.619-.21.974.974,0,0,1-.186-.658Z" transform="translate(-409.916 -321.275)" fill="#202020"/>
        <path id="Path_8206" data-name="Path 8206" d="M445.448,326.414a.225.225,0,0,1-.189-.069.453.453,0,0,1-.051-.255.582.582,0,0,1,.048-.282.214.214,0,0,1,.193-.076h.827a.266.266,0,0,1,.206.076.388.388,0,0,1,.069.261.416.416,0,0,1-.066.279.291.291,0,0,1-.21.066Z" transform="translate(-410.043 -321.732)" fill="#202020"/>
        <path id="Path_8207" data-name="Path 8207" d="M446.368,326.414a.223.223,0,0,1-.189-.069.444.444,0,0,1-.052-.255.568.568,0,0,1,.048-.282.213.213,0,0,1,.193-.076h.826a.266.266,0,0,1,.206.076.388.388,0,0,1,.069.261.411.411,0,0,1-.065.279.29.29,0,0,1-.21.066Z" transform="translate(-410.137 -321.732)" fill="#202020"/>
        <path id="Path_8208" data-name="Path 8208" d="M447.289,326.414a.225.225,0,0,1-.189-.069.453.453,0,0,1-.051-.255.581.581,0,0,1,.048-.282.214.214,0,0,1,.193-.076h.827a.266.266,0,0,1,.206.076.388.388,0,0,1,.068.261.418.418,0,0,1-.065.279.291.291,0,0,1-.21.066Z" transform="translate(-410.231 -321.732)" fill="#202020"/>
        <path id="Path_8209" data-name="Path 8209" d="M448.281,326a.28.28,0,0,1-.21-.069.432.432,0,0,1-.065-.283.374.374,0,0,1,.069-.254.266.266,0,0,1,.206-.076h.654a1.609,1.609,0,0,1-.158-.764,2.013,2.013,0,0,1,.113-.716,1.234,1.234,0,0,1,.31-.475,1.214,1.214,0,0,1,.455-.262,1.767,1.767,0,0,1,.54-.083,1.878,1.878,0,0,1,.565.083,1.144,1.144,0,0,1,.451.262,1.193,1.193,0,0,1,.3.475,2.127,2.127,0,0,1,.107.716,1.947,1.947,0,0,1-.1.681,1.148,1.148,0,0,1-.289.448,1.058,1.058,0,0,1-.448.244,2.154,2.154,0,0,1-.578.073Zm1.191-3.546a.06.06,0,0,1-.068-.069V321.8a.061.061,0,0,1,.068-.069h.579a.061.061,0,0,1,.068.069v.591a.06.06,0,0,1-.068.069Zm.723,1.253a.576.576,0,0,0-.482.21.93.93,0,0,0-.165.589.977.977,0,0,0,.158.636.613.613,0,0,0,.489.183.635.635,0,0,0,.5-.176.91.91,0,0,0,.159-.609C450.85,323.989,450.631,323.711,450.2,323.711Zm.172-1.253a.061.061,0,0,1-.069-.069V321.8a.061.061,0,0,1,.069-.069h.578a.061.061,0,0,1,.069.069v.591a.061.061,0,0,1-.069.069Z" transform="translate(-410.33 -321.321)" fill="#202020"/>
        <path id="Path_8210" data-name="Path 8210" d="M452.532,327.556a.061.061,0,0,1-.069-.069v-.55a.061.061,0,0,1,.069-.069h.151a.53.53,0,0,0,.416-.144.651.651,0,0,0,.127-.441v-2.905a.061.061,0,0,1,.069-.069h.641a.061.061,0,0,1,.068.069V326.3a1.1,1.1,0,0,1-1.219,1.26Z" transform="translate(-410.787 -321.483)" fill="#202020"/>
        <path id="Path_8211" data-name="Path 8211" d="M458.2,326.151a2.078,2.078,0,0,1-.575-.073.978.978,0,0,1-.423-.241,1.113,1.113,0,0,1-.266-.437,2.375,2.375,0,0,1,.021-1.38,1.32,1.32,0,0,1,.311-.489,1.184,1.184,0,0,1,.451-.276,1.665,1.665,0,0,1,.537-.086,1.868,1.868,0,0,1,.568.083,1.12,1.12,0,0,1,.444.262,1.2,1.2,0,0,1,.289.468,2.119,2.119,0,0,1,.1.709V326.3a1.221,1.221,0,0,1-.323.942,1.352,1.352,0,0,1-.943.3h-.93a.061.061,0,0,1-.069-.069v-.55a.061.061,0,0,1,.069-.069h.806a1.25,1.25,0,0,0,.254-.024.415.415,0,0,0,.2-.1.494.494,0,0,0,.127-.214,1.214,1.214,0,0,0,.045-.364Zm.062-2.293a.574.574,0,0,0-.489.234,1.039,1.039,0,0,0-.171.626.786.786,0,0,0,.175.592.731.731,0,0,0,.506.158h.613v-.784a1.052,1.052,0,0,0-.152-.617A.555.555,0,0,0,458.261,323.858Z" transform="translate(-411.236 -321.469)" fill="#202020"/>
        <path id="Path_8212" data-name="Path 8212" d="M462.565,326a2.461,2.461,0,0,1,.117-.744,2.657,2.657,0,0,1,.29-.64c.022-.041.057-.046.1-.014l.557.221c.023.009.036.022.038.038a.086.086,0,0,1-.01.052,3.24,3.24,0,0,0-.21.451,1.559,1.559,0,0,0-.1.567,1.055,1.055,0,0,0,.086.451.84.84,0,0,0,.221.293.79.79,0,0,0,.3.154,1.236,1.236,0,0,0,.323.045.924.924,0,0,0,.643-.214.862.862,0,0,0,.238-.675v-2.657a.061.061,0,0,1,.069-.069h.64a.061.061,0,0,1,.069.069v.227a4.364,4.364,0,0,1,.715-.272,2.928,2.928,0,0,1,.813-.114,2.235,2.235,0,0,1,.771.118,1.347,1.347,0,0,1,.52.33,1.272,1.272,0,0,1,.3.52,2.332,2.332,0,0,1,.092.678c0,.046,0,.088,0,.127s0,.073,0,.1a.381.381,0,0,0,.158.316.687.687,0,0,0,.413.11h.11a.266.266,0,0,1,.206.076.374.374,0,0,1,.069.254.433.433,0,0,1-.066.276.265.265,0,0,1-.21.076,1.39,1.39,0,0,1-.516-.087.592.592,0,0,1-.331-.347.681.681,0,0,1-.443.358,3.208,3.208,0,0,1-.775.076H466.5c-.1,0-.2,0-.289,0l-.275-.011a1.4,1.4,0,0,1-.5,1.081,1.866,1.866,0,0,1-1.181.357,2.244,2.244,0,0,1-.674-.1,1.443,1.443,0,0,1-.534-.293,1.362,1.362,0,0,1-.351-.492A1.746,1.746,0,0,1,462.565,326Zm4.792-2.141a2.531,2.531,0,0,0-.757.117,4.986,4.986,0,0,0-.661.256v1.239h1.473c.193,0,.35,0,.472-.013a.6.6,0,0,0,.282-.079.328.328,0,0,0,.135-.2,1.743,1.743,0,0,0,.034-.392,1.575,1.575,0,0,0-.045-.392.635.635,0,0,0-.158-.289.735.735,0,0,0-.3-.18A1.527,1.527,0,0,0,467.357,323.858Z" transform="translate(-411.822 -321.469)" fill="#202020"/>
        <path id="Path_8213" data-name="Path 8213" d="M470.63,326.414a.223.223,0,0,1-.189-.069.444.444,0,0,1-.052-.255.569.569,0,0,1,.048-.282.213.213,0,0,1,.193-.076h.826a.266.266,0,0,1,.206.076.388.388,0,0,1,.069.261.411.411,0,0,1-.066.279.291.291,0,0,1-.21.066Z" transform="translate(-412.624 -321.732)" fill="#202020"/>
        <path id="Path_8214" data-name="Path 8214" d="M471.55,326.414a.224.224,0,0,1-.189-.069.452.452,0,0,1-.052-.255.568.568,0,0,1,.048-.282.214.214,0,0,1,.193-.076h.826a.268.268,0,0,1,.207.076.388.388,0,0,1,.068.261.411.411,0,0,1-.065.279.288.288,0,0,1-.21.066Z" transform="translate(-412.719 -321.732)" fill="#202020"/>
        <path id="Path_8215" data-name="Path 8215" d="M472.471,326.414a.222.222,0,0,1-.188-.069.444.444,0,0,1-.052-.255.568.568,0,0,1,.048-.282.212.212,0,0,1,.192-.076h.827a.266.266,0,0,1,.206.076.388.388,0,0,1,.069.261.417.417,0,0,1-.065.279.291.291,0,0,1-.21.066Z" transform="translate(-412.813 -321.732)" fill="#202020"/>
        <path id="Path_8216" data-name="Path 8216" d="M473.391,326.414a.224.224,0,0,1-.189-.069.451.451,0,0,1-.052-.255.568.568,0,0,1,.048-.282.213.213,0,0,1,.193-.076h.826a.265.265,0,0,1,.206.076.383.383,0,0,1,.069.261.411.411,0,0,1-.066.279.288.288,0,0,1-.21.066Z" transform="translate(-412.907 -321.732)" fill="#202020"/>
        <path id="Path_8217" data-name="Path 8217" d="M474.312,326.414a.225.225,0,0,1-.189-.069.453.453,0,0,1-.051-.255.568.568,0,0,1,.048-.282.211.211,0,0,1,.192-.076h.827a.266.266,0,0,1,.206.076.388.388,0,0,1,.069.261.416.416,0,0,1-.066.279.291.291,0,0,1-.21.066Z" transform="translate(-413.002 -321.732)" fill="#202020"/>
        <path id="Path_8218" data-name="Path 8218" d="M476.726,325.814a.524.524,0,0,1-.293.276,1.5,1.5,0,0,1-.527.076h-.64a.292.292,0,0,1-.206-.066.361.361,0,0,1-.069-.258.448.448,0,0,1,.066-.278.258.258,0,0,1,.21-.08h.448a.386.386,0,0,0,.189-.038.227.227,0,0,0,.1-.117.679.679,0,0,0,.038-.207c0-.084.007-.188.007-.313v-1.431a.055.055,0,0,1,.038-.056.26.26,0,0,1,.079-.013h.592a.061.061,0,0,1,.069.069v1.68a.363.363,0,0,0,.154.316.7.7,0,0,0,.416.11h.118a.266.266,0,0,1,.206.076.374.374,0,0,1,.069.254.433.433,0,0,1-.066.276.265.265,0,0,1-.21.076,1.521,1.521,0,0,1-.468-.066A.556.556,0,0,1,476.726,325.814Zm-1.073,1.673a.061.061,0,0,1-.069-.068v-.592a.061.061,0,0,1,.069-.069h.578a.061.061,0,0,1,.069.069v.592a.061.061,0,0,1-.069.068Zm.895,0a.061.061,0,0,1-.069-.068v-.592a.061.061,0,0,1,.069-.069h.578a.061.061,0,0,1,.069.069v.592a.061.061,0,0,1-.069.068Z" transform="translate(-413.096 -321.483)" fill="#202020"/>
        <path id="Path_8219" data-name="Path 8219" d="M477.768,326a.257.257,0,0,1-.206-.08.561.561,0,0,1,0-.533.278.278,0,0,1,.21-.069H479.6a1.258,1.258,0,0,0,.289-.027.338.338,0,0,0,.172-.1.361.361,0,0,0,.083-.182,1.625,1.625,0,0,0,.021-.279,1.9,1.9,0,0,0-.041-.409.905.905,0,0,0-.137-.327.646.646,0,0,0-.251-.214.875.875,0,0,0-.39-.076.944.944,0,0,0-.413.09,1.131,1.131,0,0,0-.33.241.064.064,0,0,1-.1.006l-.357-.372c-.037-.037-.041-.068-.014-.1a1.831,1.831,0,0,1,.51-.4,1.511,1.511,0,0,1,.722-.159,1.855,1.855,0,0,1,.771.141,1.294,1.294,0,0,1,.5.38,1.466,1.466,0,0,1,.265.55,2.7,2.7,0,0,1,.079.664,2.245,2.245,0,0,1-.069.613.9.9,0,0,1-.2.382.719.719,0,0,1-.337.2,1.8,1.8,0,0,1-.471.056Zm1.328-3.546a.061.061,0,0,1-.069-.069V321.8a.061.061,0,0,1,.069-.069h.661a.061.061,0,0,1,.069.069v.591a.061.061,0,0,1-.069.069Z" transform="translate(-413.352 -321.321)" fill="#202020"/>
        <path id="Path_8220" data-name="Path 8220" d="M483.041,325.888a.061.061,0,0,1-.069.069h-.64a.061.061,0,0,1-.069-.069v-4.544a.061.061,0,0,1,.069-.069h.64a.061.061,0,0,1,.069.069Z" transform="translate(-413.842 -321.275)" fill="#202020"/>
        <path id="Path_8221" data-name="Path 8221" d="M484.4,323.377a.061.061,0,0,1,.069-.069h.64a.061.061,0,0,1,.069.069v1.68a.363.363,0,0,0,.155.316.7.7,0,0,0,.416.11h.117a.265.265,0,0,1,.206.076.374.374,0,0,1,.069.254.428.428,0,0,1-.066.276.263.263,0,0,1-.21.076,1.738,1.738,0,0,1-.4-.041.523.523,0,0,1-.286-.186v.13a3.024,3.024,0,0,1-.062.651,1.181,1.181,0,0,1-.2.465.848.848,0,0,1-.375.278,1.577,1.577,0,0,1-.579.093h-.254a.061.061,0,0,1-.069-.069v-.55a.061.061,0,0,1,.069-.069h.151a.6.6,0,0,0,.311-.068.41.41,0,0,0,.162-.2,1.09,1.09,0,0,0,.062-.324c.007-.126.01-.272.01-.436Z" transform="translate(-413.982 -321.483)" fill="#202020"/>
        <path id="Path_8222" data-name="Path 8222" d="M487.588,325.652a.526.526,0,0,1-.293.276,1.5,1.5,0,0,1-.527.076h-.64a.29.29,0,0,1-.206-.066.357.357,0,0,1-.069-.258.442.442,0,0,1,.065-.278.256.256,0,0,1,.21-.08h.447a.384.384,0,0,0,.189-.038.224.224,0,0,0,.1-.117.677.677,0,0,0,.038-.207c0-.084.006-.188.006-.313v-1.431a.054.054,0,0,1,.039-.056.256.256,0,0,1,.079-.013h.591a.061.061,0,0,1,.069.069v1.68a.363.363,0,0,0,.155.316.7.7,0,0,0,.416.11h.117a.266.266,0,0,1,.206.076.374.374,0,0,1,.069.254.428.428,0,0,1-.065.276.263.263,0,0,1-.21.076,1.519,1.519,0,0,1-.468-.066A.554.554,0,0,1,487.588,325.652Zm-1.026-3.194a.061.061,0,0,1-.069-.069V321.8a.061.061,0,0,1,.069-.069h.578a.061.061,0,0,1,.069.069v.591a.061.061,0,0,1-.069.069Zm.895,0a.061.061,0,0,1-.069-.069V321.8a.061.061,0,0,1,.069-.069h.578a.061.061,0,0,1,.069.069v.591a.061.061,0,0,1-.069.069Z" transform="translate(-414.21 -321.321)" fill="#202020"/>
        <path id="Path_8223" data-name="Path 8223" d="M488.629,325.957a.292.292,0,0,1-.206-.066.372.372,0,0,1-.069-.265.434.434,0,0,1,.065-.272.258.258,0,0,1,.21-.08h.337a.343.343,0,0,0,.251-.079.4.4,0,0,0,.079-.285v-3.567a.061.061,0,0,1,.069-.069h.64a.061.061,0,0,1,.069.069v3.745a.974.974,0,0,1-.186.658.791.791,0,0,1-.619.21Z" transform="translate(-414.466 -321.275)" fill="#202020"/>
        <path id="Path_8224" data-name="Path 8224" d="M496.087,327a1.085,1.085,0,0,0,.565-.1.307.307,0,0,0,.152-.262.332.332,0,0,0-.079-.223.809.809,0,0,0-.248-.179,3.891,3.891,0,0,0-.427-.179c-.171-.062-.375-.136-.609-.224a.058.058,0,0,1-.041-.083l.186-.544c.014-.046.042-.063.083-.048.146.056.286.111.419.169s.264.108.393.152.255.08.379.109a1.6,1.6,0,0,0,.385.045h.688a.281.281,0,0,1,.206.069.348.348,0,0,1,.069.248.465.465,0,0,1-.066.283.251.251,0,0,1-.21.083h-.475a1.071,1.071,0,0,1,.079.175.737.737,0,0,1,.045.258.9.9,0,0,1-.075.364.814.814,0,0,1-.238.3,1.242,1.242,0,0,1-.42.21,2.2,2.2,0,0,1-.63.079h-1.57a1.878,1.878,0,0,1-1.332-.413,1.469,1.469,0,0,1-.437-1.122,2.061,2.061,0,0,1,.038-.389,2.858,2.858,0,0,1,.1-.379,2.9,2.9,0,0,1,.142-.344,1.864,1.864,0,0,1,.169-.286c.022-.037.055-.04.1-.013l.544.282a.058.058,0,0,1,.021.09,2.892,2.892,0,0,0-.217.448,1.422,1.422,0,0,0-.1.523.906.906,0,0,0,.093.433.765.765,0,0,0,.244.276,1.014,1.014,0,0,0,.344.148,1.75,1.75,0,0,0,.393.045Zm-1.542,1.913a.061.061,0,0,1-.068-.069v-.591a.06.06,0,0,1,.068-.069h.579a.06.06,0,0,1,.068.069v.591a.061.061,0,0,1-.068.069Zm.895,0a.061.061,0,0,1-.068-.069v-.591a.06.06,0,0,1,.068-.069h.579a.06.06,0,0,1,.068.069v.591a.061.061,0,0,1-.068.069Z" transform="translate(-414.93 -321.63)" fill="#202020"/>
        <path id="Path_8225" data-name="Path 8225" d="M498.482,326.414a.225.225,0,0,1-.189-.069.453.453,0,0,1-.051-.255.582.582,0,0,1,.048-.282.214.214,0,0,1,.193-.076h.827a.266.266,0,0,1,.206.076.388.388,0,0,1,.068.261.417.417,0,0,1-.065.279.291.291,0,0,1-.21.066Z" transform="translate(-415.48 -321.732)" fill="#202020"/>
        <path id="Path_8226" data-name="Path 8226" d="M499.4,326.414a.223.223,0,0,1-.189-.069.444.444,0,0,1-.052-.255.569.569,0,0,1,.048-.282.213.213,0,0,1,.193-.076h.826a.266.266,0,0,1,.206.076.388.388,0,0,1,.069.261.411.411,0,0,1-.066.279.291.291,0,0,1-.21.066Z" transform="translate(-415.574 -321.732)" fill="#202020"/>
        <path id="Path_8227" data-name="Path 8227" d="M500.323,326.414a.224.224,0,0,1-.189-.069.453.453,0,0,1-.051-.255.571.571,0,0,1,.048-.282.214.214,0,0,1,.193-.076h.826a.268.268,0,0,1,.207.076.388.388,0,0,1,.068.261.411.411,0,0,1-.066.279.288.288,0,0,1-.21.066Z" transform="translate(-415.668 -321.732)" fill="#202020"/>
        <path id="Path_8228" data-name="Path 8228" d="M501.243,326.414a.222.222,0,0,1-.188-.069.444.444,0,0,1-.052-.255.568.568,0,0,1,.048-.282.212.212,0,0,1,.192-.076h.827a.266.266,0,0,1,.206.076.388.388,0,0,1,.069.261.416.416,0,0,1-.066.279.291.291,0,0,1-.21.066Z" transform="translate(-415.763 -321.732)" fill="#202020"/>
        <path id="Path_8229" data-name="Path 8229" d="M502.163,326.414a.224.224,0,0,1-.189-.069.451.451,0,0,1-.052-.255.568.568,0,0,1,.048-.282.214.214,0,0,1,.193-.076h.826a.268.268,0,0,1,.207.076.388.388,0,0,1,.068.261.411.411,0,0,1-.066.279.288.288,0,0,1-.21.066Z" transform="translate(-415.857 -321.732)" fill="#202020"/>
        <path id="Path_8230" data-name="Path 8230" d="M503.084,326.414a.225.225,0,0,1-.189-.069.453.453,0,0,1-.051-.255.568.568,0,0,1,.048-.282.211.211,0,0,1,.192-.076h.827a.266.266,0,0,1,.206.076.388.388,0,0,1,.069.261.417.417,0,0,1-.065.279.291.291,0,0,1-.21.066Z" transform="translate(-415.951 -321.732)" fill="#202020"/>
        <path id="Path_8231" data-name="Path 8231" d="M504,326.414a.224.224,0,0,1-.189-.069.451.451,0,0,1-.052-.255.569.569,0,0,1,.048-.282.213.213,0,0,1,.193-.076h.826a.265.265,0,0,1,.206.076.383.383,0,0,1,.069.261.412.412,0,0,1-.066.279.288.288,0,0,1-.21.066Z" transform="translate(-416.046 -321.732)" fill="#202020"/>
        <path id="Path_8232" data-name="Path 8232" d="M504.921,326.166a.359.359,0,0,1-.206-.048.223.223,0,0,1-.069-.193.7.7,0,0,1,.066-.306.22.22,0,0,1,.21-.135h.337a.343.343,0,0,0,.251-.079.4.4,0,0,0,.079-.285v-1.742a.061.061,0,0,1,.069-.069h.64a.061.061,0,0,1,.069.069V325.3a.974.974,0,0,1-.186.658.791.791,0,0,1-.619.21Zm.606,1.308a.061.061,0,0,1-.068-.069v-.591a.06.06,0,0,1,.068-.069h.661a.06.06,0,0,1,.068.069v.591a.061.061,0,0,1-.068.069Z" transform="translate(-416.136 -321.483)" fill="#202020"/>
        <path id="Path_8233" data-name="Path 8233" d="M510.13,324.974a2.173,2.173,0,0,1-.062.568.88.88,0,0,1-.186.361.656.656,0,0,1-.317.193,1.658,1.658,0,0,1-.454.056h-1.6a.061.061,0,0,1-.069-.069v-.544a.061.061,0,0,1,.069-.069h1.281a1.286,1.286,0,0,0,.3-.027.3.3,0,0,0,.245-.262,1.567,1.567,0,0,0,.017-.255v-.461q0-.606-.7-.606h-.827a.061.061,0,0,1-.069-.069v-.55a.061.061,0,0,1,.069-.069h1.1a1.247,1.247,0,0,1,.878.3,1.206,1.206,0,0,1,.328.932Z" transform="translate(-416.423 -321.469)" fill="#202020"/>
        <path id="Path_8234" data-name="Path 8234" d="M515.1,326.2a1.77,1.77,0,0,1-.6-.1,1.026,1.026,0,0,1-.444-.31.382.382,0,0,1-.131.134,1.617,1.617,0,0,0-.144.1.439.439,0,0,0-.117.135.48.48,0,0,0-.048.241v1.142h-.778v-1.287a.969.969,0,0,1,.059-.365.743.743,0,0,1,.151-.241,1.052,1.052,0,0,1,.2-.162c.071-.043.137-.086.2-.13a1.036,1.036,0,0,0,.165-.145.355.355,0,0,0,.086-.21c0-.046-.008-.093-.01-.142s0-.1,0-.154a2.127,2.127,0,0,1,.107-.716,1.193,1.193,0,0,1,.3-.475,1.144,1.144,0,0,1,.451-.262,1.971,1.971,0,0,1,1.129,0,1.153,1.153,0,0,1,.451.262,1.2,1.2,0,0,1,.3.475,2.107,2.107,0,0,1,.107.716,2.011,2.011,0,0,1-.1.688,1.167,1.167,0,0,1-.293.461,1.141,1.141,0,0,1-.451.261A1.876,1.876,0,0,1,515.1,326.2Zm0-2.341a.579.579,0,0,0-.492.214,1.009,1.009,0,0,0-.162.619.98.98,0,0,0,.162.634.6.6,0,0,0,.492.193.591.591,0,0,0,.489-.2,1.008,1.008,0,0,0,.158-.63Q515.749,323.859,515.1,323.858Z" transform="translate(-416.976 -321.469)" fill="#202020"/>
        <path id="Path_8235" data-name="Path 8235" d="M517.831,321.344a.061.061,0,0,1,.069-.069h.64a.061.061,0,0,1,.069.069v3.567a.4.4,0,0,0,.079.285.343.343,0,0,0,.251.079h.241a.261.261,0,0,1,.207.08.415.415,0,0,1,.068.272.383.383,0,0,1-.065.272.311.311,0,0,1-.21.058h-.544a.791.791,0,0,1-.619-.21.974.974,0,0,1-.186-.658Z" transform="translate(-417.488 -321.275)" fill="#202020"/>
        <path id="Path_8236" data-name="Path 8236" d="M519.307,326.414a.225.225,0,0,1-.189-.069.453.453,0,0,1-.051-.255.569.569,0,0,1,.048-.282.211.211,0,0,1,.192-.076h.827a.266.266,0,0,1,.206.076.388.388,0,0,1,.069.261.417.417,0,0,1-.065.279.291.291,0,0,1-.21.066Z" transform="translate(-417.614 -321.732)" fill="#202020"/>
        <path id="Path_8237" data-name="Path 8237" d="M520.227,326.414a.224.224,0,0,1-.189-.069.451.451,0,0,1-.052-.255.569.569,0,0,1,.048-.282.213.213,0,0,1,.193-.076h.826a.265.265,0,0,1,.206.076.383.383,0,0,1,.069.261.411.411,0,0,1-.065.279.288.288,0,0,1-.21.066Z" transform="translate(-417.709 -321.732)" fill="#202020"/>
        <path id="Path_8238" data-name="Path 8238" d="M521.148,326.414a.225.225,0,0,1-.189-.069.453.453,0,0,1-.051-.255.581.581,0,0,1,.048-.282.214.214,0,0,1,.193-.076h.827a.266.266,0,0,1,.206.076.388.388,0,0,1,.069.261.416.416,0,0,1-.066.279.291.291,0,0,1-.21.066Z" transform="translate(-417.803 -321.732)" fill="#202020"/>
        <path id="Path_8239" data-name="Path 8239" d="M522.068,326.414a.223.223,0,0,1-.189-.069.444.444,0,0,1-.052-.255.569.569,0,0,1,.048-.282.213.213,0,0,1,.193-.076h.826a.266.266,0,0,1,.206.076.388.388,0,0,1,.069.261.411.411,0,0,1-.065.279.29.29,0,0,1-.21.066Z" transform="translate(-417.898 -321.732)" fill="#202020"/>
        <path id="Path_8240" data-name="Path 8240" d="M522.989,326.414a.225.225,0,0,1-.189-.069.453.453,0,0,1-.051-.255.581.581,0,0,1,.048-.282.214.214,0,0,1,.193-.076h.827a.266.266,0,0,1,.206.076.388.388,0,0,1,.068.261.418.418,0,0,1-.065.279.291.291,0,0,1-.21.066Z" transform="translate(-417.992 -321.732)" fill="#202020"/>
        <path id="Path_8241" data-name="Path 8241" d="M523.909,326.414a.223.223,0,0,1-.189-.069.444.444,0,0,1-.052-.255.568.568,0,0,1,.048-.282.213.213,0,0,1,.193-.076h.826a.266.266,0,0,1,.206.076.388.388,0,0,1,.069.261.411.411,0,0,1-.066.279.291.291,0,0,1-.21.066Z" transform="translate(-418.086 -321.732)" fill="#202020"/>
        <path id="Path_8242" data-name="Path 8242" d="M524.83,326.414a.224.224,0,0,1-.189-.069.453.453,0,0,1-.051-.255.57.57,0,0,1,.048-.282.214.214,0,0,1,.193-.076h.826a.268.268,0,0,1,.207.076.388.388,0,0,1,.068.261.412.412,0,0,1-.065.279.288.288,0,0,1-.21.066Z" transform="translate(-418.181 -321.732)" fill="#202020"/>
        <path id="Path_8243" data-name="Path 8243" d="M525.75,326.414a.222.222,0,0,1-.188-.069.444.444,0,0,1-.052-.255.569.569,0,0,1,.048-.282.212.212,0,0,1,.192-.076h.827a.266.266,0,0,1,.206.076.388.388,0,0,1,.069.261.417.417,0,0,1-.065.279.291.291,0,0,1-.21.066Z" transform="translate(-418.275 -321.732)" fill="#202020"/>
        <path id="Path_8244" data-name="Path 8244" d="M526.67,326.414a.224.224,0,0,1-.189-.069.451.451,0,0,1-.052-.255.569.569,0,0,1,.048-.282.214.214,0,0,1,.193-.076h.826a.268.268,0,0,1,.207.076.388.388,0,0,1,.068.261.411.411,0,0,1-.066.279.288.288,0,0,1-.21.066Z" transform="translate(-418.369 -321.732)" fill="#202020"/>
        <path id="Path_8245" data-name="Path 8245" d="M527.591,326.414a.225.225,0,0,1-.189-.069.453.453,0,0,1-.051-.255.569.569,0,0,1,.048-.282.211.211,0,0,1,.192-.076h.827a.266.266,0,0,1,.206.076.388.388,0,0,1,.069.261.417.417,0,0,1-.065.279.291.291,0,0,1-.21.066Z" transform="translate(-418.464 -321.732)" fill="#202020"/>
        <path id="Path_8246" data-name="Path 8246" d="M528.511,326.414a.224.224,0,0,1-.189-.069.444.444,0,0,1-.052-.255.57.57,0,0,1,.048-.282.213.213,0,0,1,.193-.076h.826a.266.266,0,0,1,.206.076.388.388,0,0,1,.069.261.411.411,0,0,1-.065.279.288.288,0,0,1-.21.066Z" transform="translate(-418.558 -321.732)" fill="#202020"/>
        <path id="Path_8247" data-name="Path 8247" d="M530.946,323.362a4.642,4.642,0,0,1,.719-.272,2.888,2.888,0,0,1,.81-.114,2.232,2.232,0,0,1,.771.118,1.347,1.347,0,0,1,.52.33,1.272,1.272,0,0,1,.3.52,2.331,2.331,0,0,1,.092.678c0,.046,0,.088,0,.127s0,.073,0,.1a.383.383,0,0,0,.158.316.687.687,0,0,0,.413.11h.118a.266.266,0,0,1,.206.076.374.374,0,0,1,.069.254.433.433,0,0,1-.066.276.265.265,0,0,1-.21.076,1.42,1.42,0,0,1-.52-.087.568.568,0,0,1-.328-.347.714.714,0,0,1-.182.231.737.737,0,0,1-.255.131,1.573,1.573,0,0,1-.341.058c-.128.01-.27.014-.426.014h-1.838a.366.366,0,0,1-.31-.118.586.586,0,0,1-.276.1,3.548,3.548,0,0,1-.358.017h-.537a.29.29,0,0,1-.206-.066.357.357,0,0,1-.069-.258.439.439,0,0,1,.066-.289.278.278,0,0,1,.21-.069h.344a.43.43,0,0,0,.2-.038.231.231,0,0,0,.107-.131.924.924,0,0,0,.044-.255q.011-.162.011-.409v-3.1a.061.061,0,0,1,.069-.069h.64a.061.061,0,0,1,.069.069Zm1.418.3a2.531,2.531,0,0,0-.757.117,5.037,5.037,0,0,0-.661.256v.936c0,.055,0,.108-.007.158a1.372,1.372,0,0,1-.021.144h1.5c.193,0,.35,0,.472-.01a.573.573,0,0,0,.282-.076.327.327,0,0,0,.135-.206,1.8,1.8,0,0,0,.034-.4,1.577,1.577,0,0,0-.045-.392.636.636,0,0,0-.158-.289.735.735,0,0,0-.3-.18A1.527,1.527,0,0,0,532.365,323.664Zm-.206-1.253a.061.061,0,0,1-.069-.069v-.591a.061.061,0,0,1,.069-.069h.661a.061.061,0,0,1,.069.069v.591a.061.061,0,0,1-.069.069Z" transform="translate(-418.652 -321.275)" fill="#202020"/>
        <path id="Path_8248" data-name="Path 8248" d="M535.45,326a.357.357,0,0,1-.206-.048.22.22,0,0,1-.069-.193.685.685,0,0,1,.065-.306.218.218,0,0,1,.21-.135h.337a.342.342,0,0,0,.251-.079.4.4,0,0,0,.08-.285v-1.742a.061.061,0,0,1,.068-.069h.641a.061.061,0,0,1,.068.069v1.921a.974.974,0,0,1-.186.658.791.791,0,0,1-.619.21Zm.73-3.546a.061.061,0,0,1-.069-.069V321.8a.061.061,0,0,1,.069-.069h.661a.061.061,0,0,1,.069.069v.591a.061.061,0,0,1-.069.069Z" transform="translate(-419.266 -321.321)" fill="#202020"/>
      </g>
    </g>
  </g>
</svg>
