<svg id="Dubai_Governement_Logo" data-name="Dubai Governement_Logo" xmlns="http://www.w3.org/2000/svg" width="139.711" height="57.41" viewBox="0 0 139.711 57.41">
  <g id="Group_4" data-name="Group 4" transform="translate(0 48.871)">
    <path id="a" d="M6.351,36.121a2.784,2.784,0,0,0-1.393-.32,2.789,2.789,0,0,0-2.047.933,3.492,3.492,0,0,0-.682,1.156,4.717,4.717,0,0,0-.265,1.643,4.37,4.37,0,0,0,.195,1.393,3.267,3.267,0,0,0,.571,1.045,2.637,2.637,0,0,0,.905.7,2.881,2.881,0,0,0,1.226.251H5.906l.223-.084a3.141,3.141,0,0,0,0-.362v-2.7H7.953a1.408,1.408,0,0,0,0,.306v2.632a2.245,2.245,0,0,0,0,.362,13.448,13.448,0,0,1-1.588.348,9.952,9.952,0,0,1-1.588.139,6.33,6.33,0,0,1-1.992-.237,4.4,4.4,0,0,1-1.393-.836,3.557,3.557,0,0,1-.975-1.24A3.779,3.779,0,0,1,0,39.589a4.864,4.864,0,0,1,.376-1.978,3.867,3.867,0,0,1,1.045-1.393,4.406,4.406,0,0,1,1.56-.85,6.7,6.7,0,0,1,1.95-.279,5.78,5.78,0,0,1,1.56.181A6.1,6.1,0,0,1,7.8,35.8l-.181.557a3.154,3.154,0,0,1-.153.6H7.3a3.036,3.036,0,0,0-.947-.864" transform="translate(0.001 -35.089)" fill="#ed1d24"/>
  </g>
  <g id="Group_5" data-name="Group 5" transform="translate(9.151 48.844)">
    <path id="b" d="M13.52,37.675a3.362,3.362,0,0,0-.529-1.045,2.379,2.379,0,0,0-.822-.655,2.475,2.475,0,0,0-1.059-.223,2.134,2.134,0,0,0-1.086.279,2.5,2.5,0,0,0-.822.794A3.728,3.728,0,0,0,8.7,38a5.863,5.863,0,0,0-.167,1.393,5.6,5.6,0,0,0,.195,1.6,2.919,2.919,0,0,0,.557,1.059,2.047,2.047,0,0,0,.794.571,2.572,2.572,0,0,0,.947.181,2.372,2.372,0,0,0,1.017-.223,2.324,2.324,0,0,0,.822-.641,3.7,3.7,0,0,0,.585-1.184,5.655,5.655,0,0,0,.223-1.7,4.708,4.708,0,0,0-.181-1.393m-6.63.014A4.182,4.182,0,0,1,9.231,35.4a5.045,5.045,0,0,1,1.88-.334,5.68,5.68,0,0,1,1.769.265,4.07,4.07,0,0,1,1.393.78,3.667,3.667,0,0,1,.961,1.393,4.565,4.565,0,0,1,.348,1.866A4.108,4.108,0,0,1,14.3,42.4a4.2,4.2,0,0,1-1.393.905,5.038,5.038,0,0,1-1.825.32A6.409,6.409,0,0,1,9.3,43.329a3.734,3.734,0,0,1-1.393-.752,3.619,3.619,0,0,1-.975-1.323,4.761,4.761,0,0,1-.362-1.922A4.182,4.182,0,0,1,6.9,37.675" transform="translate(-6.569 -35.07)" fill="#ed1d24"/>
  </g>
  <g id="Group_6" data-name="Group 6" transform="translate(18.497 48.984)">
    <path id="c" d="M18.656,38.109c.39-1.031.738-1.992,1.045-2.939a2.8,2.8,0,0,0,.529,0,2.8,2.8,0,0,0,.529,0l-.71,1.7-.864,2.089c-.306.738-.6,1.49-.891,2.256s-.571,1.476-.808,2.075H16.442l-.432-1.156-.557-1.393L14.84,39.2l-.557-1.476-.557-1.393-.446-1.1h2.131c.139.446.292.905.46,1.393l.529,1.5c.181.515.362,1.031.557,1.546l.571,1.532q.612-1.519,1.2-3.036" transform="translate(-13.28 -35.17)" fill="#ed1d24"/>
  </g>
  <g id="Group_7" data-name="Group 7" transform="translate(26.965 48.984)">
    <path id="d" d="M19.43,36.716V35.17h4.527a2.321,2.321,0,0,0,0,.5,2.561,2.561,0,0,0,0,.292V36.2H21.282v2.6H23.97v.529a.913.913,0,0,0,0,.195v.292c-.905,0-1.811-.111-2.7-.111v3.008h1.393a5.193,5.193,0,0,0,1.393-.125v.237a2.561,2.561,0,0,0,0,.292,2.561,2.561,0,0,0,0,.292.983.983,0,0,0,0,.181H19.36v-6.88" transform="translate(-19.36 -35.17)" fill="#ed1d24"/>
  </g>
  <g id="Group_8" data-name="Group 8" transform="translate(32.982 48.984)">
    <path id="e" d="M27.287,36.577a.9.9,0,0,0-.32-.46,1.144,1.144,0,0,0-.571-.209,5.976,5.976,0,0,0-.836,0v3.231h.265a1.6,1.6,0,0,0,1.2-.418,1.727,1.727,0,0,0,.418-1.281,2.609,2.609,0,0,0-.111-.836ZM25.518,39.6v2.242a10.978,10.978,0,0,0,.07,1.518l-.348-.07H23.68a11.387,11.387,0,0,1,.07-1.518,14.712,14.712,0,0,0,0-1.755v-3.3a11.488,11.488,0,0,0-.07-1.546H27.2l.557.07a1.786,1.786,0,0,1,.4.125,1.425,1.425,0,0,1,.32.181,1.869,1.869,0,0,1,.557.641,1.915,1.915,0,0,1,.209.919,2.111,2.111,0,0,1-.474,1.393,2.6,2.6,0,0,1-1.393.78,19.252,19.252,0,0,0,1.226,2.006l1.365,2.006H27.761l-2.117-3.747h-.125Z" transform="translate(-23.68 -35.17)" fill="#ed1d24"/>
  </g>
  <g id="Group_9" data-name="Group 9" transform="translate(40.266 48.984)">
    <path id="f" d="M29.133,36.159V35.17a2.364,2.364,0,0,0,1.072,0l2.563,2.786c.836.933,1.713,1.88,2.591,2.786v-5.1a4.215,4.215,0,0,0,0-.46,3.536,3.536,0,0,0,.543,0,3.357,3.357,0,0,0,.529,0,17.8,17.8,0,0,1-.1,1.964v6.17h-.947q-2.7-2.86-5.418-5.71V43.36H28.91v-.682a10.41,10.41,0,0,1,.07-1.393c.07-.543,0-1.17.07-1.825a16.928,16.928,0,0,0,0-1.88V36.187" transform="translate(-28.91 -35.17)" fill="#ed1d24"/>
  </g>
  <g id="Group_10" data-name="Group 10" transform="translate(48.999 48.887)">
    <path id="g" d="M36.5,40.713c0,.891-.125,1.783-.195,2.674H35.18q.391-2.047.682-4.067c.195-1.393.376-2.786.557-4.178h.961c.223.474.446.961.682,1.393L38.773,38c.237.5.46.975.7,1.393l.669,1.393c.474-.891.947-1.825,1.393-2.786s.919-1.936,1.393-2.9a2.894,2.894,0,0,0,.515,0,2.74,2.74,0,0,0,.5,0l.251,2.2c.1.78.181,1.56.265,2.3s.181,1.393.265,2.1.167,1.184.237,1.574H42.994c0-.822-.111-1.7-.195-2.66s-.181-1.894-.279-2.786l-1.393,2.786c-.432.905-.864,1.811-1.3,2.786h-.418c-.432-.891-.85-1.783-1.281-2.674l-1.309-2.7c-.125.905-.223,1.811-.292,2.7" transform="translate(-35.18 -35.1)" fill="#ed1d24"/>
  </g>
  <g id="Group_11" data-name="Group 11" transform="translate(60.044 48.984)">
    <path id="h" d="M43.166,36.716V35.17h4.6a2.156,2.156,0,0,0,0,.5,1.708,1.708,0,0,0,0,.292,2.238,2.238,0,0,0,0,.237H45.018v2.6h2.7v.529a.762.762,0,0,0,0,.195v.292c-.905,0-1.811-.111-2.7-.111v3.008h1.393a5.244,5.244,0,0,0,1.393-.125,2.236,2.236,0,0,0,0,.237,1.709,1.709,0,0,0,0,.292,1.709,1.709,0,0,0,0,.292.787.787,0,0,0,0,.181H43.11v-6.88" transform="translate(-43.11 -35.17)" fill="#ed1d24"/>
  </g>
  <g id="Group_12" data-name="Group 12" transform="translate(66.033 48.984)">
    <path id="i" d="M47.647,36.159V35.17a2.364,2.364,0,0,0,1.072,0l2.563,2.786c.836.933,1.713,1.88,2.6,2.786v-5.1a4.221,4.221,0,0,0,0-.46,3.357,3.357,0,0,0,.529,0,3.536,3.536,0,0,0,.543,0c0,.724-.07,1.393-.1,1.964s0,1.128,0,1.643v4.527H53.9q-2.7-2.856-5.4-5.71V43.36l-.265-.07H47.41v-.682a8.692,8.692,0,0,1,.084-1.393c.084-.543,0-1.17.07-1.825a16.928,16.928,0,0,0,0-1.88V36.117" transform="translate(-47.41 -35.17)" fill="#ed1d24"/>
  </g>
  <g id="Group_13" data-name="Group 13" transform="translate(74.654 48.831)">
    <path id="j" d="M55.8,36.522q.01-.209,0-.418H53.6a2.1,2.1,0,0,0,0-.265,1.884,1.884,0,0,0,0-.251,2.1,2.1,0,0,0,0-.265,2.1,2.1,0,0,0,0-.265h6.059v.265a1.681,1.681,0,0,0,0,.265,1.883,1.883,0,0,0,0,.251V36.1H57.583q0,.084,0,.167v7.117l-.362-.056H55.7v-6.88Z" transform="translate(-53.6 -35.06)" fill="#ed1d24"/>
  </g>
  <g id="Group_14" data-name="Group 14" transform="translate(84.778 48.844)">
    <path id="k" d="M67.806,37.675a3.177,3.177,0,0,0-.529-1.045,2.408,2.408,0,0,0-.822-.655,2.454,2.454,0,0,0-1.059-.223,2.134,2.134,0,0,0-1.086.279,2.646,2.646,0,0,0-.808.794,3.942,3.942,0,0,0-.5,1.17,5.589,5.589,0,0,0-.167,1.393,5.369,5.369,0,0,0,.209,1.6,2.932,2.932,0,0,0,.543,1.059,2.047,2.047,0,0,0,.794.571,2.572,2.572,0,0,0,.947.181,2.41,2.41,0,0,0,1.017-.223,2.366,2.366,0,0,0,.808-.641,3.593,3.593,0,0,0,.585-1.184,5.727,5.727,0,0,0,.279-1.7,4.67,4.67,0,0,0-.195-1.393m-6.671.014a4.182,4.182,0,0,1,2.368-2.27,5.073,5.073,0,0,1,1.88-.334,5.674,5.674,0,0,1,1.769.265,4.024,4.024,0,0,1,1.393.78,3.764,3.764,0,0,1,.961,1.393,4.636,4.636,0,0,1,.348,1.866A4.249,4.249,0,0,1,67.194,43.3a4.99,4.99,0,0,1-1.838.32,6.413,6.413,0,0,1-1.755-.292,3.7,3.7,0,0,1-2.368-2.075,4.715,4.715,0,0,1-.362-1.922,4.178,4.178,0,0,1,.32-1.657" transform="translate(-60.869 -35.07)" fill="#ed1d24"/>
  </g>
  <g id="Group_15" data-name="Group 15" transform="translate(95.086 48.984)">
    <path id="l" d="M68.34,36.716a11.484,11.484,0,0,0-.07-1.546h4.6a2.324,2.324,0,0,0,0,.5V36.2H70.192v2.6h2.7v.529a.913.913,0,0,0,0,.195v.292c-.905,0-1.811-.111-2.7-.111v3.635H68.27a10.975,10.975,0,0,1,.07-1.5,14.706,14.706,0,0,0,0-1.755V36.716" transform="translate(-68.27 -35.17)" fill="#ed1d24"/>
  </g>
  <g id="Group_16" data-name="Group 16" transform="translate(104.46 48.984)">
    <path id="m" d="M76.852,40.894v1.7h1.059a2.658,2.658,0,0,0,2.131-.919,5.067,5.067,0,0,0,.529-3.955,3.087,3.087,0,0,0-.557-.989,2.441,2.441,0,0,0-.836-.655,2.784,2.784,0,0,0-1.114-.223h-1.24v5.042ZM75.07,36.716A11.488,11.488,0,0,0,75,35.17h3.12a8.655,8.655,0,0,1,1.866.181,3.794,3.794,0,0,1,1.393.627,2.923,2.923,0,0,1,.947,1.184,5.231,5.231,0,0,1,0,3.663,4.041,4.041,0,0,1-.891,1.393,3.8,3.8,0,0,1-1.309.864,4.163,4.163,0,0,1-1.588.306H75.432L75,43.29a11.283,11.283,0,0,1,.07-1.518,14.716,14.716,0,0,0,0-1.755Z" transform="translate(-75 -35.17)" fill="#ed1d24"/>
  </g>
  <g id="Group_17" data-name="Group 17" transform="translate(113.833 49.068)">
    <path id="n" d="M83.917,43.266a3.194,3.194,0,0,1-1.156-.543,2.561,2.561,0,0,1-.752-.85,3.326,3.326,0,0,1-.279-1.393V35.258h1.95c-.07.766-.125,1.49-.139,2.159s0,1.393,0,2.02a8.107,8.107,0,0,0,.153,1.741,2.491,2.491,0,0,0,.46,1.031,1.393,1.393,0,0,0,.752.487,4.174,4.174,0,0,0,1.017.125,1.617,1.617,0,0,0,1.114-.362,2.22,2.22,0,0,0,.613-.947,4.992,4.992,0,0,0,.251-1.393V36.873a13.082,13.082,0,0,0-.07-1.643h1.2V39.7a4.079,4.079,0,0,1-.891,2.967,3.508,3.508,0,0,1-2.618.891,6.09,6.09,0,0,1-1.393-.153" transform="translate(-81.73 -35.23)" fill="#ed1d24"/>
  </g>
  <g id="Group_18" data-name="Group 18" transform="translate(122.97 48.984)">
    <path id="o" d="M91.8,39.85a1.792,1.792,0,0,1,.376,1.24,2.151,2.151,0,0,1-.111.7,1.546,1.546,0,0,1-.32.474,1.213,1.213,0,0,1-.919.432H90.17V39.446h.5a1.4,1.4,0,0,1,1.17.39m.223-3.134a2.085,2.085,0,0,1,0,.543,1.8,1.8,0,0,1-.153.7,1.5,1.5,0,0,1-.306.474,1.393,1.393,0,0,1-.933.376H90.2V35.922h.585a1.405,1.405,0,0,1,.6.111,1.244,1.244,0,0,1,.627.682m-3.621,0v3.3a12.264,12.264,0,0,1,0,1.755A9.422,9.422,0,0,0,88.3,43.29l.543.056h2.41a4.835,4.835,0,0,0,1.031-.111,2.293,2.293,0,0,0,.891-.4,2.123,2.123,0,0,0,.613-.738,2.369,2.369,0,0,0,.237-1.1,1.71,1.71,0,0,0-.237-.905,2.1,2.1,0,0,0-.571-.613,2.808,2.808,0,0,0-.7-.362,2.867,2.867,0,0,0-.641-.125,3.364,3.364,0,0,0,.613-.181,2.467,2.467,0,0,0,.627-.362,1.946,1.946,0,0,0,.5-.585,1.652,1.652,0,0,0,.209-.836,1.863,1.863,0,0,0-.181-.85,1.522,1.522,0,0,0-.487-.571,2.263,2.263,0,0,0-.766-.32,3.96,3.96,0,0,0-.975-.111H88.29a9.592,9.592,0,0,1,.084,1.546" transform="translate(-88.29 -35.17)" fill="#ed1d24"/>
  </g>
  <g id="Group_19" data-name="Group 19" transform="translate(128.945 48.928)">
    <path id="p" d="M96.02,37.414c-.209.487-.4.947-.585,1.393L94.906,40.2h2.187c-.167-.487-.348-.947-.515-1.393s-.348-.933-.543-1.393m4.22,5.891h-2.02l-.39-1.2c-.139-.4-.279-.808-.432-1.212H94.558c-.153.4-.306.808-.446,1.212s-.251.808-.362,1.2H92.58c.1-.209.223-.5.39-.864s.334-.78.529-1.24l.613-1.476.655-1.6c.223-.543.432-1.072.641-1.6s.4-1,.585-1.393H96.9l.808,2.159c.292.78.585,1.532.877,2.27s.585,1.393.864,2.117.529,1.226.752,1.685" transform="translate(-92.58 -35.13)" fill="#ed1d24"/>
  </g>
  <g id="Group_20" data-name="Group 20" transform="translate(137.803 48.984)">
    <path id="q" d="M99.024,36.716V35.17h1.825a11.488,11.488,0,0,1-.07,1.546,14.7,14.7,0,0,0,0,1.755v3.371a10.679,10.679,0,0,0,.07,1.5l-.432-.056H98.94V36.716" transform="translate(-98.94 -35.17)" fill="#ed1d24"/>
  </g>
  <g id="Group_21" data-name="Group 21" transform="translate(0.335 7.047)">
    <path id="r" d="M.24,19.615S9.349,31.439,28.6,31.439a46.412,46.412,0,0,0,23.8-6.323s.334-.822-1.17-1.17l-1.518-.376A26.661,26.661,0,0,1,44.14,21.4l1.031-2.6A11.147,11.147,0,0,0,50.617,17.4c.78-.432.125-1.755-.237-2.242a40.891,40.891,0,0,1-2.786-4.833,3.272,3.272,0,0,0-1.086-1.811l.6-3.454,3.747,3.747H49.238s1.866,3.134,2.2,3.8a6.522,6.522,0,0,1,.669,4.415,5.576,5.576,0,0,1-2.27,3.273s2.786.78,3.384,1.031,1.574,1.031.794,3.259a6,6,0,0,1-2.786,3.747c-1.267.794-8.482,6.24-26.379,5.989-10.223-.1-19.374-6.463-19.374-6.463s-3.5-4.847-4.4-6.351A4.185,4.185,0,0,1,.24,19.615" transform="translate(-0.24 -5.06)" fill="#ed1d24"/>
  </g>
  <g id="Group_22" data-name="Group 22" transform="translate(13.567 0.863)">
    <path id="s" d="M50.493.62S22.456,9.687,11.133,14.715l-1.393,2.6s26.087-9.931,39.694-14.4Z" transform="translate(-9.74 -0.62)" fill="#ed1d24"/>
  </g>
  <g id="Group_23" data-name="Group 23" transform="translate(31.06 17.168)">
    <path id="t" d="M22.3,15.145s1.393-2.66,2.061-2.786a12.858,12.858,0,0,1,4.54.487c.961.432,0,1.5-.543,2.354a4.336,4.336,0,0,1-2.3,2.061c-1.031.251-5.32.85-3.148,0s5.39-1.88,3.2-2.006-3.816-.111-3.816-.111" transform="translate(-22.3 -12.326)" fill="#ed1d24"/>
  </g>
  <g id="Group_24" data-name="Group 24" transform="translate(49.484 14.346)">
    <path id="u" d="M42.69,13.643a7.423,7.423,0,0,1,1.755,1.811,19.5,19.5,0,0,0,7.326,5.32c3.51,1.393,3.329,1.936,2.786,2.479A134.82,134.82,0,0,1,41.547,31.47c-3.51,1.7-6.588,2.061-3.872-5.571,0,0-.251-.362-.85,1.031s-2.786,6.964.362,8.176c1.086.432,2.3.237,5.808-1.574s10.892-6.769,12.034-8.106a4.524,4.524,0,0,0,.905-3.691c-.125-1.393-.125-2.061-3.259-3.747s-5.808-3.092-6.964-4.777l1.5-.125L42.745,10.3v3.343Z" transform="translate(-35.528 -10.3)" fill="#ed1d24"/>
  </g>
  <g id="Group_25" data-name="Group 25" transform="translate(70.03 18.775)">
    <path id="v" d="M51.659,13.48l2.813,2.061-1.365,2.772L50.28,16.252l1.379-2.772Z" transform="translate(-50.28 -13.48)" fill="#ed1d24"/>
  </g>
  <g id="Group_26" data-name="Group 26" transform="translate(74.362 18.064)">
    <path id="w" d="M54.769,12.97l2.813,2.075-1.351,2.772L53.39,15.742l1.379-2.772Z" transform="translate(-53.39 -12.97)" fill="#ed1d24"/>
  </g>
  <g id="Group_27" data-name="Group 27" transform="translate(56.088 23.162)">
    <path id="x" d="M41.649,16.63l2.813,2.061-1.351,2.772L40.27,19.388l1.379-2.758Z" transform="translate(-40.27 -16.63)" fill="#ed1d24"/>
  </g>
  <g id="Group_28" data-name="Group 28" transform="translate(33.832 38.524)">
    <path id="y" d="M25.669,27.66l2.813,2.061-1.365,2.772L24.29,30.432l1.379-2.772Z" transform="translate(-24.29 -27.66)" fill="#ed1d24"/>
  </g>
  <g id="Group_29" data-name="Group 29" transform="translate(29.472 39.012)">
    <path id="z" d="M22.539,28.01l2.813,2.061L24,32.843,21.16,30.782l1.379-2.772Z" transform="translate(-21.16 -28.01)" fill="#ed1d24"/>
  </g>
  <g id="Group_30" data-name="Group 30" transform="translate(52.662 0)">
    <path id="A-2" data-name="A" d="M50.111,3.528S48.231,2.2,48.468,1.912a1.267,1.267,0,0,1,1.56-.195c.585.376.084,1.825.084,1.825M51.42,4.586a5.741,5.741,0,0,0-.808-.724s1.393-2.173.223-3.7c-.4-.529-2.215.376-2.911,1.24a1.852,1.852,0,0,0,.195,2.535l1.267.989a21.855,21.855,0,0,1-4.819,4.3c-3.482,2.535-6.574,4.708-6.574,4.708s-.989.808,1.616-.585a58,58,0,0,0,5.947-3.454,38.342,38.342,0,0,0,4.276-4.568,3.109,3.109,0,0,1,.78.71c.279.4.432.669.432.669s.71-1.657.362-2.061" transform="translate(-37.81 0)" fill="#ed1d24"/>
  </g>
  <g id="Group_31" data-name="Group 31" transform="translate(69.46 0.613)">
    <path id="B-2" data-name="B" d="M62.207,3.94S60.327,2.617,60.55,2.3a1.267,1.267,0,0,1,1.56-.209c.585.376.084,1.825.084,1.825m1.3,1.114A8.629,8.629,0,0,0,62.75,4.3S64.059,2.129,62.9.6c-.4-.529-2.2.376-2.911,1.281A1.866,1.866,0,0,0,60.2,4.413l1.254.989a21.754,21.754,0,0,1-4.805,4.3c-3.5,2.479-6.6,4.61-6.6,4.61s-.975.836,1.643-.557a60.174,60.174,0,0,0,5.947-3.468,38.553,38.553,0,0,0,4.276-4.554,2.961,2.961,0,0,1,.78.71c.279.4.432.655.432.655s.71-1.643.362-2.047" transform="translate(-49.87 -0.44)" fill="#ed1d24"/>
  </g>
  <g id="Group_32" data-name="Group 32" transform="translate(120.546 8.482)">
    <path id="C-2" data-name="C" d="M96.611,8.92s-1.531-1.064-1.379-1.382A1.032,1.032,0,0,1,96.5,7.373a1.626,1.626,0,0,1,0,1.478m1.182,1a6.749,6.749,0,0,0-.6-.6,3.008,3.008,0,0,0,.125-3.036c-.334-.432-1.811.306-2.382,1.059A1.517,1.517,0,0,0,95,9.352l1.031.794a18.091,18.091,0,0,1-3.942,3.524c-2.869,2.033-5.39,3.788-5.39,3.788s-.808.669,1.393-.474A46.19,46.19,0,0,0,92.962,14.2a31.658,31.658,0,0,0,3.51-3.733,2.346,2.346,0,0,1,.655.585l.265.487a2.858,2.858,0,0,0,.292-1.685" transform="translate(-86.55 -6.09)" fill="#ed1d24"/>
  </g>
  <g id="Group_33" data-name="Group 33" transform="translate(80.894 10.362)">
    <path id="D-2" data-name="D" d="M77.468,7.44S61.952,12.9,58.609,14.585L58.08,16.2s5.07-2.256,10.362-4.178,7.911-2.994,7.911-2.994Z" transform="translate(-58.08 -7.44)" fill="#ed1d24"/>
  </g>
  <g id="Group_34" data-name="Group 34" transform="translate(68.637 24.095)">
    <path id="E-2" data-name="E" d="M76.026,20.053a3.52,3.52,0,0,1,1.393,1.978c.195.682-.822.084-1.49-.279a6.717,6.717,0,0,1-1.393-1.114,1.533,1.533,0,0,1,1.546-.6m-3.4,2.7a11.148,11.148,0,0,0,4.541,2.786c1.532.5,2.354-2.423,2.479-2.9s-1.1-5.139-2.786-5.32-3.259,2.3-3.259,2.3h-.139a.251.251,0,0,0-.355-.007l-.007.007-.585.655C70.51,23.354,69.215,23.716,67,23.605c-2.674-.139-4.276-3.343-4.763-4.485s-3.078,0-4.415,2.173a72.181,72.181,0,0,0-3.2,7.869c-1.156,2.66-2.187,2.061-3.329.669s-1.574-5.376-1.5-7.145-.362-.487-.362-.487c-.78,6.964,1.811,11.017,3.273,10.892s2.228-1.811,2.786-3.022,1.616-5.752,2.911-7.256a2.632,2.632,0,0,1,2.563-1.072,1.466,1.466,0,0,1,.46.585c.432.724,2.688,4.387,5.71,4.387a5.318,5.318,0,0,0,4.387-2.939c.181-.306.738-1.588,1.142-1.031" transform="translate(-49.28 -17.3)" fill="#ed1d24"/>
  </g>
  <g id="Group_35" data-name="Group 35" transform="translate(90.309 1.671)">
    <path id="F-2" data-name="F" d="M100.9,28.7a25.7,25.7,0,0,1-3.844,1.031s-1.156-3.926-1.184-4.177a1.7,1.7,0,0,1,.7-1.212,3.912,3.912,0,0,1,3.928-.46c2.117.724,5.028,2.4,6.3,2.786,0,0-3.329,1.184-5.891,2.033m-22.2.905c-.6-.237-.752-.237-.334-.752a1.238,1.238,0,0,1,1.476-.362,1.675,1.675,0,0,1,1,.7,2.789,2.789,0,0,1,.432.669,11.608,11.608,0,0,1-2.577-.251m28.232-6.064c-2.061-.794-6.5-3.691-9.164-2.354a5.669,5.669,0,0,0-3.022,4.652,22.28,22.28,0,0,0,.627,3.719c-3.663-1.086-4.9-5.028-8.05-8.649s-9.192-9.749-9.192-9.749A89.213,89.213,0,0,1,97.726,4.2c2.423-.487,3.4-.139,3.552.153.766,1.1-.39,2.117-1.184,3.384a35.564,35.564,0,0,0-2.479,5.571c-.237.905-.334,1.88.181.752s2.089-4.095,2.786-5.39,2.66-4.694,2.688-6.086-2.3-1.546-4.025-1.267c-9.29,1.393-21.992,7.521-21.992,7.521l-1.267,3.747A113.834,113.834,0,0,1,86.807,27.765c.209.78-2.981,1.56-2.981,1.56a6.089,6.089,0,0,0-3.844-3.747c-1.184-.125-2.535,1.156-3.468,3.106a2.786,2.786,0,0,0,1.358,3.7,2.707,2.707,0,0,0,.494.174,10.427,10.427,0,0,0,4.178-.125c.529.78.1,1.059.1,1.059A28.9,28.9,0,0,1,73.1,40.077c-3.747,1.588-6.964-.251-7.215-3.426a15.63,15.63,0,0,1,1.267-6.476s0-.836-.543.279a16.948,16.948,0,0,0-1.755,6.435c-.1.905.111,6.24,4.415,6.713,5.864.655,11.769-5.71,13.245-7.173a7.749,7.749,0,0,0,1.6-4.443c3.2-1.059,3.2-2.423,3.51-3.719a10.239,10.239,0,0,0-.418-3.774S89.537,28,91.542,30.48a6.015,6.015,0,0,0,4.694,2.34,6.732,6.732,0,0,0,.251,1.936c.641,0,.752-2.047.752-2.047,2.2-.334,6.268-2.173,9.749-3.761s5.474-.766,5.474-.766l1.393-2.786a29.244,29.244,0,0,1-6.964-1.838" transform="translate(-64.84 -1.2)" fill="#ed1d24"/>
  </g>
  <g id="Group_36" data-name="Group 36" transform="translate(88.33 4.494)">
    <path id="G-2" data-name="G" d="M64.855,5.7,64.743,6a5.636,5.636,0,0,0-1-.515c-.265,0-.362-.223-.306-.669s.139-1.393.752-1.128a6.322,6.322,0,0,1,2.437,4.373s.265-2.967.487-3.816.543-1.643,2.061-.306l-.432,1.114S67.654,3.872,67.348,4.9a25.981,25.981,0,0,0-.334,3.008c-.181,1.212-.432,2.02-.515,1.184a7.54,7.54,0,0,0-1.058-2.66,1.918,1.918,0,0,0-.585-.738" transform="translate(-63.419 -3.227)" fill="#ed1d24"/>
  </g>
  <g id="Group_37" data-name="Group 37" transform="translate(112.648 11.648)">
    <path id="H-2" data-name="H" d="M82.329,10.83l-.125.306a5.7,5.7,0,0,0-1-.487c-.265,0-.362-.209-.306-.67s.153-1.4.752-1.117a6.3,6.3,0,0,1,2.423,4.369s.265-2.974.487-3.825.557-1.676,2.061-.334l-.432,1.116S85.1,9,84.794,10.034a25.9,25.9,0,0,0-.39,3c-.181,1.215-.418,2.024-.515,1.185a7.7,7.7,0,0,0-1.059-2.666,2.125,2.125,0,0,0-.543-.726" transform="translate(-80.879 -8.363)" fill="#ed1d24"/>
  </g>
  <g id="Group_38" data-name="Group 38" transform="translate(88.697 17.951)">
    <path id="I-2" data-name="I" d="M64.362,19.6c.46.111,1.309-.223,1.643-1.9.2-.946-.292,0-.292,0a.669.669,0,0,1-.724.306c-.362-.195-.808-.7-.279-2.182a21.536,21.536,0,0,1,1.156-2.78c0-.125-.07-.4-.446.348a17.9,17.9,0,0,0-1.643,4.015,2.192,2.192,0,0,0,.418,2.043Z" transform="translate(-63.682 -12.888)" fill="#ed1d24"/>
  </g>
  <g id="Group_39" data-name="Group 39" transform="translate(38.778 22.775)">
    <path id="J-2" data-name="J" d="M28.522,23.062c.474.111,1.309-.209,1.643-1.894.195-.947-.292,0-.292,0a.682.682,0,0,1-.724.306c-.362-.195-.808-.7-.279-2.187A23.805,23.805,0,0,1,30.026,16.5c.07-.125-.07-.39-.446.348a17.8,17.8,0,0,0-1.643,4.039,2.185,2.185,0,0,0,.418,2.047Z" transform="translate(-27.841 -16.352)" fill="#ed1d24"/>
  </g>
</svg>
