<svg xmlns="http://www.w3.org/2000/svg" width="70" height="70" viewBox="0 0 70 70">
  <g id="Group_4017" data-name="Group 4017" transform="translate(-206.596 -6473)">
    <path id="Path_307" data-name="Path 307" d="M-9.75-9.75C-6.948-12.889,5.125-15,20-15s27.538,3.066,29.75,5.25S55,6.175,55,21.05s-2.692,26.179-5.25,28.7S34.875,55,20,55-7.194,51.787-9.75,49.75-15,35.925-15,21.05-12.552-6.611-9.75-9.75Z" transform="translate(221.596 6488)" fill="#ee9c47"/>
    <g id="Icon_feather-map-pin" data-name="Icon feather-map-pin" transform="translate(223.096 6489.5)">
      <path id="Path_508" data-name="Path 508" d="M31.5,15C31.5,25.5,18,34.5,18,34.5S4.5,25.5,4.5,15a13.5,13.5,0,1,1,27,0Z" fill="none" stroke="#fff" stroke-linecap="round" stroke-linejoin="round" stroke-width="3"/>
      <path id="Path_509" data-name="Path 509" d="M22.5,15A4.5,4.5,0,1,1,18,10.5,4.5,4.5,0,0,1,22.5,15Z" fill="none" stroke="#fff" stroke-linecap="round" stroke-linejoin="round" stroke-width="3"/>
    </g>
  </g>
</svg>
