<svg xmlns="http://www.w3.org/2000/svg" width="66" height="66" viewBox="0 0 66 66">
  <g id="Group_1843" data-name="Group 1843" transform="translate(-1809 -3754)">
    <g id="Path_1886" data-name="Path 1886" transform="translate(1809 3754)" fill="#fff">
      <path d="M 50 65 L 16 65 C 11.99335956573486 65 8.226530075073242 63.43973159790039 5.393400192260742 60.60660171508789 C 2.560270071029663 57.77347946166992 1 54.00664901733398 1 50 L 1 16 C 1 11.99335956573486 2.560270071029663 8.226530075073242 5.393400192260742 5.393400192260742 C 8.226530075073242 2.560270071029663 11.99335956573486 1 16 1 L 50 1 C 54.00664901733398 1 57.77347946166992 2.560270071029663 60.60660171508789 5.393400192260742 C 63.43973159790039 8.226530075073242 65 11.99335956573486 65 16 L 65 50 C 65 54.00664901733398 63.43973159790039 57.77347946166992 60.60660171508789 60.60660171508789 C 57.77347946166992 63.43973159790039 54.00664901733398 65 50 65 Z" stroke="none"/>
      <path d="M 16 2 C 12.26045989990234 2 8.7447509765625 3.456249237060547 6.100498199462891 6.100498199462891 C 3.456249237060547 8.7447509765625 2 12.26045989990234 2 16 L 2 50 C 2 53.73952865600586 3.456249237060547 57.25524139404297 6.100498199462891 59.89949035644531 C 8.7447509765625 62.54375076293945 12.26045989990234 64 16 64 L 50 64 C 53.73952865600586 64 57.25524139404297 62.54375076293945 59.89949035644531 59.89949035644531 C 62.54375076293945 57.25524139404297 64 53.73952865600586 64 50 L 64 16 C 64 12.26045989990234 62.54375076293945 8.7447509765625 59.89949035644531 6.100498199462891 C 57.25524139404297 3.456249237060547 53.73952865600586 2 50 2 L 16 2 M 16 0 L 50 0 C 58.83655166625977 0 66 7.163440704345703 66 16 L 66 50 C 66 58.83655166625977 58.83655166625977 66 50 66 L 16 66 C 7.163440704345703 66 0 58.83655166625977 0 50 L 0 16 C 0 7.163440704345703 7.163440704345703 0 16 0 Z" stroke="none" fill="#ee9c47"/>
    </g>
    <g id="Group_1844" data-name="Group 1844" transform="translate(0 -2)">
      <g id="arrow-up-short" transform="translate(1819.877 3758.877)">
        <path id="Path_1884" data-name="Path 1884" d="M18.541,12.375a1.666,1.666,0,0,1,1.666,1.666V30.7a1.666,1.666,0,1,1-3.331,0V14.041A1.666,1.666,0,0,1,18.541,12.375Z" transform="translate(3.245 1.082)" fill="#a50a2e" fill-rule="evenodd"/>
        <path id="Path_1885" data-name="Path 1885" d="M20.605,10.613a1.666,1.666,0,0,1,2.359,0l9.994,9.994A1.668,1.668,0,1,1,30.6,22.965l-8.814-8.818L12.97,22.964a1.668,1.668,0,0,1-2.359-2.359l9.994-9.994Z" transform="translate(0)" fill="#a50a2e" fill-rule="evenodd"/>
      </g>
      <text id="TOP" transform="translate(1842 3810)" fill="#a50a2e" font-size="14" font-family="Dubai-Bold, Dubai" font-weight="700"><tspan x="-12.992" y="0">TOP</tspan></text>
    </g>
  </g>
</svg>
